<svg width="298" height="254" viewBox="0 0 298 254" fill="none" xmlns="http://www.w3.org/2000/svg">
<g clip-path="url(#clip0_127_3315)">
<path d="M144.726 1.10723C135.578 3.63069 127.641 9.25054 119.916 14.7738L80.8859 42.6606C63.1959 55.2972 44.682 68.9831 36.3777 89.0807C29.1743 106.584 31.0733 127.222 39.9762 143.921C48.8792 160.619 64.316 173.411 81.8193 180.614C112.918 193.392 149.006 188.738 179.906 175.464C195.684 168.692 210.696 159.647 222.612 147.294C234.527 134.941 243.211 119.073 245.188 102.02C247.672 80.5061 239.227 58.664 225.451 41.9525C210.059 23.2841 189.092 10.184 166.4 2.56208C159.1 0.109436 152.328 -0.984923 144.726 1.10723Z" fill="#FFECDE"/>
<path d="M269.366 13.8919H173.662V87.0851H269.366V13.8919Z" stroke="#FABFA3" stroke-miterlimit="10"/>
<path d="M269.366 87.3233H173.662V223.056H269.366V87.3233Z" stroke="#FABFA3" stroke-miterlimit="10"/>
<path d="M184.785 150.809H181.238V181.219H184.785V150.809Z" fill="#FABFA3"/>
<path d="M184.785 36.2812H181.238V59.9772H184.785V36.2812Z" fill="#FABFA3"/>
<path d="M186.124 223.062H178.02V233.729H186.124V223.062Z" fill="#FABFA3"/>
<path d="M265.008 223.062H256.904V233.729H265.008V223.062Z" fill="#FABFA3"/>
<path d="M90.2459 13.8147H20.5739V43.2979H90.2459V13.8147Z" stroke="#FABFA3" stroke-miterlimit="10"/>
<path d="M87.4971 16.4926H23.3291V40.6135H87.4971V16.4926Z" stroke="#FABFA3" stroke-miterlimit="10"/>
<path d="M67.5283 35.8048H43.2915V37.5944H67.5283V35.8048Z" fill="#FABFA3"/>
<path d="M90.2459 43.2078H20.5739V72.6911H90.2459V43.2078Z" stroke="#FABFA3" stroke-miterlimit="10"/>
<path d="M87.4971 45.8922H23.3291V70.0131H87.4971V45.8922Z" stroke="#FABFA3" stroke-miterlimit="10"/>
<path d="M67.5283 65.198H43.2915V66.9876H67.5283V65.198Z" fill="#FABFA3"/>
<path d="M123.238 13.8147H90.2459V72.6911H123.238V13.8147Z" stroke="#FABFA3" stroke-miterlimit="10"/>
<path d="M121.075 34.8714H119.176V51.0228H121.075V34.8714Z" fill="#FABFA3"/>
<path d="M156.236 13.8147H123.244V72.6911H156.236V13.8147Z" stroke="#FABFA3" stroke-miterlimit="10"/>
<path d="M127.306 34.8714H125.407V51.0228H127.306V34.8714Z" fill="#FABFA3"/>
<path d="M125.085 242.503L125.117 242.709C125.117 243.025 125.182 243.353 125.24 243.649C125.298 243.945 125.355 244.209 125.413 244.512H157.6C157.637 244.228 157.654 243.942 157.652 243.655C157.64 243.339 157.61 243.023 157.562 242.709C157.553 242.639 157.538 242.57 157.517 242.503C157.163 240.688 155.843 238.19 151.446 237.385C151.234 237.338 151.019 237.302 150.802 237.276C150.455 237.225 150.114 237.192 149.74 237.16H149.38C140.573 236.478 136.672 233.523 136.672 233.523C133.403 234.112 130.054 234.112 126.785 233.523C126.337 234.34 125.981 235.203 125.722 236.098C125.652 236.368 125.568 236.664 125.491 236.973C125.491 237.031 125.458 237.096 125.439 237.167C125.42 237.237 125.381 237.431 125.355 237.572C125.353 237.613 125.353 237.654 125.355 237.694C125.355 237.727 125.355 237.74 125.355 237.765C125.215 238.483 125.129 239.21 125.098 239.941C125.027 240.793 125.023 241.65 125.085 242.503Z" fill="#3391A6"/>
<path d="M139.827 233.748C139.717 233.644 139.573 233.584 139.421 233.581C139.269 233.59 139.124 233.649 139.009 233.748L138.745 233.961C138.32 234.289 137.889 234.604 137.458 234.913C137.329 234.989 137.235 235.111 137.194 235.255C137.155 235.405 137.176 235.564 137.252 235.699C137.33 235.829 137.455 235.924 137.602 235.962C137.749 236.001 137.905 235.98 138.037 235.905C138.681 235.474 139.247 235.029 139.833 234.566C139.939 234.455 139.999 234.307 140.001 234.154C139.997 234.001 139.935 233.856 139.827 233.748Z" fill="white"/>
<path d="M142.106 234.772C141.995 234.667 141.849 234.608 141.697 234.608C141.545 234.608 141.398 234.667 141.288 234.772C140.869 235.263 140.401 235.709 139.891 236.104L139.64 236.291C139.515 236.371 139.422 236.492 139.376 236.632C139.342 236.783 139.362 236.94 139.434 237.076C139.513 237.207 139.64 237.302 139.788 237.341C139.936 237.379 140.093 237.358 140.226 237.282C140.919 236.796 141.55 236.228 142.106 235.589C142.207 235.478 142.266 235.334 142.273 235.184C142.271 235.03 142.212 234.883 142.106 234.772Z" fill="white"/>
<path d="M144.198 235.519C144.145 235.465 144.081 235.423 144.012 235.394C143.942 235.365 143.867 235.351 143.792 235.351C143.717 235.35 143.642 235.364 143.572 235.393C143.502 235.422 143.439 235.465 143.387 235.519L142.099 237.192C141.996 237.305 141.937 237.451 141.932 237.604C141.934 237.756 141.993 237.901 142.099 238.01C142.208 238.116 142.355 238.176 142.508 238.176C142.661 238.176 142.807 238.116 142.917 238.01L144.204 236.33C144.306 236.218 144.365 236.075 144.372 235.924C144.371 235.848 144.356 235.773 144.326 235.704C144.296 235.634 144.252 235.571 144.198 235.519Z" fill="white"/>
<path d="M146.522 236.059C146.389 235.984 146.232 235.965 146.085 236.005C145.938 236.044 145.813 236.14 145.736 236.272C145.447 236.755 145.163 237.244 144.88 237.727C144.84 237.791 144.814 237.862 144.801 237.937C144.789 238.011 144.792 238.088 144.809 238.161C144.827 238.235 144.858 238.304 144.903 238.365C144.947 238.427 145.002 238.479 145.067 238.518C145.131 238.558 145.202 238.585 145.277 238.597C145.352 238.609 145.428 238.606 145.501 238.589C145.575 238.572 145.644 238.54 145.705 238.496C145.767 238.452 145.819 238.396 145.859 238.332L146.708 236.877C146.752 236.812 146.781 236.738 146.795 236.661C146.809 236.584 146.807 236.505 146.79 236.428C146.773 236.352 146.74 236.28 146.694 236.216C146.647 236.153 146.589 236.099 146.522 236.059Z" fill="white"/>
<path d="M125.111 242.716C125.149 243.018 125.182 243.327 125.246 243.649C125.31 243.971 125.349 244.216 125.42 244.512H157.607C157.644 244.228 157.661 243.942 157.658 243.655C157.647 243.341 157.617 243.027 157.568 242.716H125.111Z" fill="#195B78"/>
<path d="M138.024 187.303C137.934 203.19 137.503 217.243 137.039 225.56C137.007 226.204 136.975 226.802 136.949 227.369C136.769 231.231 136.64 233.478 136.64 233.478C136.64 233.478 131.529 235.235 126.752 233.478L126.076 227.099L125.999 226.056L121.577 187.431L113.202 114.56L113.118 113.794H114.232L134.69 114.148C137.458 133.01 138.159 162.403 138.024 187.303Z" fill="#FFC9AB"/>
<path d="M109.616 242.503V242.709C109.584 243.025 109.545 243.353 109.487 243.649C109.429 243.945 109.371 244.209 109.313 244.512H77.1265C77.0896 244.228 77.0724 243.942 77.075 243.655C77.0871 243.339 77.1172 243.023 77.1651 242.709C77.1739 242.639 77.189 242.57 77.2102 242.503C77.5578 240.688 78.8775 238.19 83.2742 237.385C83.4975 237.338 83.7231 237.301 83.9501 237.276C84.2977 237.225 84.6389 237.192 85.0123 237.16H85.3728C94.1792 236.478 98.0802 233.523 98.0802 233.523C101.352 234.112 104.703 234.112 107.974 233.523C108.421 234.34 108.775 235.203 109.03 236.098C109.107 236.368 109.191 236.664 109.268 236.973C109.268 237.031 109.301 237.096 109.32 237.167C109.339 237.237 109.371 237.431 109.397 237.572C109.4 237.613 109.4 237.654 109.397 237.694C109.397 237.727 109.397 237.74 109.397 237.765C109.537 238.483 109.625 239.21 109.661 239.941C109.713 240.795 109.698 241.652 109.616 242.503Z" fill="#3391A6"/>
<path d="M94.8937 233.748C95.0025 233.643 95.1476 233.583 95.2993 233.581C95.4499 233.588 95.5934 233.647 95.7048 233.748L95.9687 233.961C96.3936 234.289 96.8249 234.604 97.2562 234.913C97.3808 234.993 97.474 235.114 97.5202 235.255C97.5591 235.405 97.5383 235.564 97.4622 235.699C97.3832 235.83 97.2562 235.924 97.1082 235.963C96.9603 236.001 96.8032 235.981 96.6704 235.905C96.0267 235.474 95.4666 235.029 94.8808 234.566C94.8271 234.512 94.7847 234.447 94.756 234.377C94.7273 234.306 94.7128 234.23 94.7134 234.154C94.7146 234.078 94.7312 234.002 94.7622 233.933C94.7932 233.863 94.8379 233.8 94.8937 233.748Z" fill="white"/>
<path d="M92.5955 234.772C92.7046 234.667 92.8499 234.609 93.0011 234.609C93.1522 234.609 93.2976 234.667 93.4066 234.772C93.8261 235.264 94.2965 235.711 94.81 236.104L95.0546 236.291C95.1815 236.369 95.2754 236.49 95.3185 236.632C95.3581 236.782 95.3373 236.942 95.2606 237.076C95.1828 237.207 95.0569 237.302 94.9101 237.34C94.7632 237.379 94.607 237.358 94.4752 237.282C93.7796 236.8 93.148 236.231 92.5955 235.589C92.4916 235.479 92.4301 235.335 92.4217 235.184C92.4229 235.029 92.4854 234.881 92.5955 234.772Z" fill="white"/>
<path d="M90.4969 235.519C90.6063 235.412 90.753 235.352 90.9057 235.352C91.0584 235.352 91.2051 235.412 91.3145 235.519L92.602 237.192C92.7049 237.305 92.7643 237.451 92.7693 237.604C92.7693 237.756 92.709 237.902 92.6015 238.009C92.4941 238.117 92.3484 238.177 92.1964 238.177C92.121 238.178 92.0461 238.164 91.9763 238.135C91.9066 238.107 91.8435 238.064 91.7908 238.01L90.5034 236.33C90.4018 236.218 90.3426 236.075 90.336 235.924C90.3361 235.773 90.3936 235.628 90.4969 235.519Z" fill="white"/>
<path d="M88.173 236.059C88.3066 235.984 88.4643 235.964 88.6123 236.004C88.7603 236.044 88.8869 236.14 88.9648 236.272L89.8146 237.727C89.8543 237.791 89.881 237.862 89.8931 237.937C89.9052 238.011 89.9025 238.088 89.8852 238.161C89.8679 238.235 89.8362 238.304 89.7921 238.365C89.7479 238.427 89.6921 238.479 89.6279 238.518C89.5636 238.558 89.4922 238.585 89.4176 238.597C89.3431 238.609 89.2669 238.606 89.1933 238.589C89.1198 238.572 89.0504 238.54 88.9891 238.496C88.9278 238.452 88.8758 238.396 88.8361 238.332L87.9864 236.87C87.945 236.805 87.917 236.732 87.904 236.656C87.891 236.579 87.8932 236.501 87.9106 236.426C87.928 236.351 87.9601 236.279 88.0051 236.216C88.0502 236.153 88.1072 236.1 88.173 236.059Z" fill="white"/>
<path d="M109.59 242.716C109.552 243.018 109.513 243.327 109.449 243.649C109.384 243.971 109.346 244.216 109.275 244.512H77.0878C77.046 244.228 77.0266 243.942 77.0299 243.655C77.0407 243.34 77.073 243.026 77.1265 242.716H109.59Z" fill="#195B78"/>
<path d="M117.528 113.807L111.734 187.837L108.708 226.41L108.65 227.118L107.968 233.497C103.198 235.248 98.0802 233.497 98.0802 233.497C98.0802 233.497 97.9579 231.27 97.7712 227.388C97.7712 227.047 97.739 226.693 97.7197 226.326C97.3013 218.118 96.2134 203.699 95.3443 187.335C94.0182 162.428 93.1942 133.022 95.988 114.193L117.528 113.807Z" fill="#FFC9AB"/>
<path d="M117.528 113.807L111.734 187.837C106.275 188.454 100.755 188.283 95.3443 187.328C94.0182 162.422 93.1942 133.016 95.988 114.187L117.528 113.807Z" fill="#DE6300"/>
<path d="M138.024 187.303C132.568 188.013 127.046 188.067 121.577 187.463L113.202 114.56C113.536 114.296 113.845 114.045 114.232 113.813L134.69 114.167C137.458 133.01 138.159 162.403 138.024 187.303Z" fill="#DE6300"/>
<path d="M123.218 58.5546C128.111 60.3828 129.733 88.1087 129.733 88.1087L156.866 84.6325L158.347 91.3595C158.347 91.3595 135.205 96.7605 131.432 97.6489C127.66 98.5372 119.903 98.2926 119.163 91.6557C118.422 85.0187 123.218 58.5546 123.218 58.5546Z" fill="#FFC9AB"/>
<path d="M95.737 114.174C120.502 118.036 134.799 114.985 134.799 114.985C133.241 107.505 126.63 85.141 126.63 85.141C131.98 82.9265 131.973 73.3541 125.529 68.0047L123.218 58.5546L116.813 56.7263L108.618 57.2027L100.507 60.4214L101.37 100.069L95.737 114.174Z" fill="#DA9604"/>
<path d="M108.193 68.8158L109.59 93.0204L101.383 100.102L95.3829 115.094L92.9625 150.313C92.9625 150.313 129.334 155.637 139.685 150.313L135.739 115.423L126.971 85.3921C132.121 81.7549 131.941 73.0323 125.51 68.0111L108.193 68.8158Z" fill="#3391A6"/>
<path d="M113.813 111.418C111.364 111.44 108.978 110.643 107.035 109.153C106.487 108.734 105.982 108.261 105.528 107.743C105.406 107.608 105.2 107.814 105.322 107.949C106.992 109.822 109.24 111.084 111.708 111.534C112.403 111.656 113.108 111.714 113.813 111.708C113.846 111.701 113.876 111.683 113.898 111.657C113.919 111.63 113.931 111.597 113.931 111.563C113.931 111.529 113.919 111.496 113.898 111.47C113.876 111.444 113.846 111.426 113.813 111.418Z" fill="#195B78"/>
<path d="M114.096 112.571C111.474 112.896 108.813 112.469 106.423 111.341C106.256 111.264 106.114 111.515 106.281 111.592C108.712 112.753 111.422 113.199 114.096 112.88C114.277 112.841 114.283 112.551 114.096 112.571Z" fill="#195B78"/>
<path d="M124.506 71.4809L113.157 72.0345C113.157 72.0345 114.747 78.7229 120.65 78.3174C127.287 77.8668 124.506 71.4809 124.506 71.4809Z" fill="#195B78"/>
<path d="M136.434 77.3518C133.949 77.7187 131.419 87.3104 133.46 88.2953C135.501 89.2803 143.625 87.1366 144.088 85.8427C144.552 84.5488 139.769 76.8625 136.434 77.3518Z" fill="#568203"/>
<path d="M143.367 82.9523L142.936 83.0746C143.034 82.9774 143.12 82.8694 143.193 82.7527C143.215 82.7212 143.223 82.6824 143.216 82.645C143.208 82.6075 143.186 82.5745 143.155 82.5532C143.123 82.5318 143.085 82.5239 143.047 82.5312C143.01 82.5384 142.977 82.5602 142.955 82.5918C142.787 82.8482 142.568 83.0673 142.312 83.2355C140.791 83.5503 139.223 83.5592 137.699 83.2619C136.175 82.9646 134.725 82.367 133.434 81.5039C133.28 81.3944 133.119 81.6391 133.273 81.7421C135.582 83.2713 138.344 83.9663 141.101 83.7119L141.43 83.6733H141.378C140.717 83.9059 140.036 84.0783 139.344 84.1883C137.123 84.5668 134.843 84.3808 132.713 83.6475C132.696 83.6412 132.677 83.6384 132.658 83.6394C132.639 83.6403 132.621 83.6449 132.604 83.653C132.587 83.6611 132.571 83.6724 132.559 83.6864C132.546 83.7004 132.536 83.7167 132.53 83.7345C132.524 83.7522 132.521 83.771 132.522 83.7899C132.523 83.8087 132.527 83.8271 132.535 83.8442C132.543 83.8612 132.555 83.8765 132.569 83.8891C132.583 83.9018 132.599 83.9116 132.617 83.9179C135.449 84.8979 138.525 84.9205 141.372 83.9823C141.742 83.8593 142.096 83.693 142.427 83.4866C142.756 83.4158 143.071 83.3385 143.412 83.2355C143.599 83.184 143.548 82.9008 143.367 82.9523Z" fill="#F1F2CE"/>
<path d="M148.524 78.459C146.29 77.3003 138.623 83.6089 139.692 85.6045C140.76 87.6001 148.607 90.6128 149.747 89.8403C150.886 89.0678 151.543 80.0168 148.524 78.459Z" fill="#93A603"/>
<path d="M150.86 87.0594C150.719 87.0143 150.577 86.9628 150.442 86.9049C150.576 86.8804 150.707 86.8438 150.835 86.7954C150.871 86.7826 150.9 86.7561 150.916 86.7217C150.932 86.6873 150.934 86.6478 150.922 86.612C150.909 86.5761 150.882 86.5468 150.848 86.5305C150.813 86.5142 150.774 86.5123 150.738 86.5251C150.457 86.6304 150.156 86.6764 149.856 86.6602C147.73 85.6853 145.938 84.1043 144.706 82.1154C144.308 81.4641 143.971 80.7765 143.702 80.0619C143.689 80.0261 143.663 79.9968 143.628 79.9805C143.594 79.9642 143.554 79.9622 143.519 79.975C143.483 79.9878 143.453 80.0143 143.437 80.0487C143.421 80.0832 143.419 80.1226 143.432 80.1585C144.406 82.7518 146.239 84.9329 148.627 86.3384L148.916 86.4993H148.865C148.2 86.2987 147.553 86.0402 146.934 85.7268C144.916 84.7301 143.179 83.2453 141.88 81.4073C141.771 81.2528 141.533 81.4073 141.642 81.5683C143.372 84.0171 145.861 85.8272 148.723 86.7182C149.092 86.8392 149.475 86.9127 149.863 86.9371C150.172 87.0722 150.506 87.201 150.809 87.3104C150.899 87.3812 151.041 87.1237 150.86 87.0594Z" fill="#F1F2CE"/>
<path d="M152.483 77.4226C150.081 78.1629 149.039 88.025 151.195 88.7073C153.352 89.3897 161.07 86.0229 161.334 84.6711C161.598 83.3192 155.701 76.4377 152.483 77.4226Z" fill="#568203"/>
<path d="M160.188 81.9094L159.776 82.0961C159.855 81.9819 159.924 81.8613 159.982 81.7356C160.059 81.5683 159.796 81.446 159.725 81.6133C159.596 81.8847 159.414 82.1276 159.19 82.3279C156.988 83.1352 154.595 83.2719 152.315 82.7206C151.573 82.54 150.85 82.2856 150.159 81.9609C149.985 81.8837 149.863 82.1412 150.03 82.2184C152.544 83.3848 155.382 83.6529 158.07 82.9781L158.386 82.8944H158.341C157.723 83.2247 157.077 83.4983 156.41 83.7119C155.047 84.1625 153.622 84.395 152.187 84.4007C151.377 84.4016 150.569 84.3284 149.773 84.1818C149.754 84.1785 149.735 84.1788 149.716 84.1828C149.698 84.1868 149.68 84.1944 149.665 84.2051C149.649 84.2159 149.636 84.2296 149.626 84.2455C149.616 84.2614 149.609 84.2791 149.605 84.2977C149.602 84.3163 149.602 84.3354 149.606 84.3539C149.61 84.3724 149.618 84.3899 149.628 84.4054C149.639 84.4209 149.653 84.4342 149.669 84.4445C149.685 84.4547 149.702 84.4617 149.721 84.4651C152.67 84.9978 155.713 84.5454 158.379 83.1776C158.727 83.004 159.051 82.7877 159.345 82.5339C159.667 82.4116 159.989 82.2828 160.285 82.1348C160.452 82.1026 160.356 81.8258 160.188 81.9094Z" fill="#F1F2CE"/>
<path d="M161.913 77.8152C159.409 77.6221 154.832 86.422 156.596 87.8511C158.36 89.2803 166.767 88.9584 167.54 87.7996C168.312 86.6409 165.274 78.0727 161.913 77.8152Z" fill="#93A603"/>
<path d="M167.443 84.8063H166.999C167.111 84.7295 167.217 84.6434 167.314 84.5488C167.45 84.42 167.25 84.2076 167.121 84.3363C166.904 84.5415 166.648 84.7013 166.368 84.8063C164.021 84.7554 161.742 84.0069 159.821 82.6562C159.196 82.2167 158.616 81.7164 158.09 81.1627C157.961 81.0275 157.748 81.2206 157.877 81.3558C159.791 83.3596 162.333 84.6477 165.081 85.0058L165.409 85.038H165.357C164.661 85.1216 163.959 85.141 163.259 85.096C161.827 85.0169 160.417 84.7105 159.081 84.1883C158.326 83.8955 157.6 83.5335 156.912 83.1068C156.88 83.0953 156.845 83.0949 156.813 83.1058C156.781 83.1168 156.754 83.1383 156.736 83.1669C156.718 83.1955 156.71 83.2293 156.714 83.2629C156.718 83.2965 156.733 83.3277 156.757 83.3514C159.304 84.9295 162.298 85.6283 165.28 85.3406C165.669 85.3022 166.051 85.2179 166.42 85.0895C166.754 85.0895 167.096 85.0895 167.437 85.0895C167.636 85.0831 167.636 84.7934 167.443 84.8063Z" fill="#F1F2CE"/>
<path d="M169.999 85.0316H129.759V95.531H169.999V85.0316Z" fill="#9C4803"/>
<path d="M132.552 85.5659H129.199V94.7842H132.552V85.5659Z" fill="#DA9604"/>
<path d="M136.357 85.5659H133.003V94.7842H136.357V85.5659Z" fill="#DA9604"/>
<path d="M140.155 85.5659H136.801V94.7842H140.155V85.5659Z" fill="#DA9604"/>
<path d="M143.953 85.5659H140.599V94.7842H143.953V85.5659Z" fill="#DA9604"/>
<path d="M147.758 85.5659H144.404V94.7842H147.758V85.5659Z" fill="#DA9604"/>
<path d="M151.556 85.5659H148.202V94.7842H151.556V85.5659Z" fill="#DA9604"/>
<path d="M155.354 85.5659H152V94.7842H155.354V85.5659Z" fill="#DA9604"/>
<path d="M159.152 85.5659H155.798V94.7842H159.152V85.5659Z" fill="#DA9604"/>
<path d="M162.956 85.5659H159.602V94.7842H162.956V85.5659Z" fill="#DA9604"/>
<path d="M166.754 85.5659H163.4V94.7842H166.754V85.5659Z" fill="#DA9604"/>
<path d="M170.552 85.5659H167.199V94.7842H170.552V85.5659Z" fill="#DA9604"/>
<path d="M100.159 60.5373C93.8572 63.4599 97.7454 84.9157 98.0866 88.9455C98.3956 92.6856 99.7925 97.6553 104.247 97.6553C108.29 97.6553 132.411 96.3228 132.411 96.3228L132.16 90.3553L107.569 88.8103C107.569 88.8103 107.459 57.4087 100.159 60.5373Z" fill="#FFC9AB"/>
<path d="M130.737 90.645C131.844 90.2587 134.085 83.9501 135.462 84.3042C136.75 84.6325 136.434 87.4907 135.385 88.5335C137.187 88.0507 143.58 84.0853 144.217 85.5144C144.693 86.5766 139.55 89.0163 139.55 89.0163C139.55 89.0163 145.826 86.834 146.193 88.3082C146.56 89.7824 139.917 91.2244 139.917 91.2244C139.917 91.2244 145.62 90.336 145.71 91.5591C145.801 92.7822 139.814 93.1942 139.814 93.1942C139.814 93.1942 144.577 93.5611 144.584 94.2435C144.59 94.9259 141.636 95.3893 139.305 95.0739C137.217 96.3607 134.724 96.82 132.314 96.3614L130.737 90.645Z" fill="#FFC9AB"/>
<path d="M108.193 68.8158L105.58 58.4194L107.221 57.7692L112.41 68.6162L108.193 68.8158Z" fill="#3391A6"/>
<path d="M125.529 68.0047L122.652 58.3936L121.042 57.9301L122.8 68.1334L125.529 68.0047Z" fill="#3391A6"/>
<path d="M106.251 32.0914C108.989 26.8996 108.221 21.1149 104.536 19.1709C100.85 17.227 95.6426 19.8598 92.9041 25.0516C90.1656 30.2434 90.9334 36.0281 94.6189 37.9721C98.3044 39.9161 103.512 37.2832 106.251 32.0914Z" fill="#421F09"/>
<path d="M105.58 32.026C104.234 34.601 101.672 35.8885 99.8633 34.9164C98.0544 33.9444 97.6746 31.1184 99.02 28.5627C100.365 26.0071 102.928 24.7003 104.736 25.6723C106.545 26.6444 106.925 29.4704 105.58 32.026Z" fill="#D9442B"/>
<path d="M104.041 27.0113C102.433 28.4447 101.131 30.1872 100.21 32.1348C99.2903 34.0824 98.7716 36.1953 98.6853 38.3476C98.5887 41.2444 99.4513 44.3987 101.801 46.0725C103.152 46.9481 104.702 47.4684 106.307 47.5852C110.46 48.0694 114.662 47.2735 118.351 45.3039C122.039 43.3343 125.038 40.2851 126.945 36.5644C129.321 31.9488 129.604 25.3633 124.834 22.1511C124.162 21.658 123.388 21.3222 122.569 21.1685C121.75 21.0147 120.907 21.0469 120.102 21.2627C119.504 21.4988 118.919 21.7696 118.352 22.0738C116.536 22.9751 114.85 22.9815 112.918 23.1489C111.37 23.3045 109.852 23.684 108.412 24.2754C106.815 24.941 105.338 25.8654 104.041 27.0113Z" fill="#421F09"/>
<path d="M125.33 41.0835C125.33 41.1414 125.33 41.1993 125.33 41.2508C125.33 41.3023 125.33 41.3796 125.33 41.444C125.098 44.6627 124.042 46.7226 122.471 48.2934C121.745 49.0153 120.978 49.6946 120.173 50.3276L119.53 50.8426L119.079 51.2481C117.56 52.6322 116.729 54.1256 117.096 58.2971C116.815 59.1758 116.28 59.9518 115.56 60.528C114.839 61.1041 113.964 61.4547 113.045 61.5358C112.126 61.617 111.204 61.425 110.393 60.984C109.583 60.5429 108.92 59.8725 108.489 59.0567C108.155 54.9086 107.202 50.8338 105.663 46.9672C105.387 46.2527 105.123 45.6476 104.897 45.1583C104.473 44.2314 104.176 43.7228 104.176 43.7228C104.176 43.7228 103.436 32.599 104.769 29.5155C108.039 22.061 121.905 23.2841 123.437 28.8717C124.969 34.2083 125.491 38.1158 125.33 41.0835Z" fill="#FFC9AB"/>
<path d="M125.439 36.0237C123.629 33.0867 121.043 30.7073 117.965 29.1485C117.212 30.4076 116.184 31.4802 114.957 32.2861C113.731 33.092 112.339 33.6105 110.884 33.8028C110.787 35.9041 109.939 37.9008 108.494 39.4295C107.049 40.9583 105.104 41.9176 103.011 42.1328C102.524 39.4497 102.342 36.7199 102.47 33.9959C102.709 31.3051 103.629 28.582 105.528 26.6573C107.775 24.3849 111.097 23.4965 114.296 23.3356C116.713 23.1143 119.144 23.5596 121.326 24.623C123.272 25.6894 124.761 27.4322 125.51 29.5219C126.269 31.6271 126.244 33.9355 125.439 36.0237Z" fill="#421F09"/>
<path d="M101.209 44.2635C102.496 45.551 104.382 45.7763 105.412 44.7463C106.442 43.7164 106.224 41.8173 104.93 40.5299C103.636 39.2424 101.75 39.0235 100.726 40.0535C99.7024 41.0835 99.9149 42.9696 101.209 44.2635Z" fill="#FFC9AB"/>
<path d="M101.55 40.6779C101.816 40.5204 102.114 40.4252 102.421 40.3996C102.729 40.3739 103.039 40.4185 103.327 40.5299C103.606 40.6202 103.857 40.7823 104.054 40.9998C104.163 41.1227 104.24 41.27 104.279 41.4292C104.318 41.5884 104.318 41.7546 104.279 41.9139C104.193 42.1633 104.042 42.3853 103.842 42.5576C103.722 42.6588 103.621 42.7809 103.546 42.9181C103.501 43.0178 103.489 43.1286 103.51 43.2356C103.53 43.3426 103.583 43.4407 103.661 43.5168C103.743 43.5887 103.845 43.6334 103.954 43.645C104.062 43.6565 104.171 43.6342 104.267 43.5812C104.321 43.5529 104.384 43.5465 104.442 43.5633C104.501 43.5801 104.551 43.6187 104.582 43.6713C104.597 43.697 104.607 43.7255 104.61 43.755C104.614 43.7845 104.612 43.8145 104.605 43.8432C104.597 43.872 104.583 43.8989 104.565 43.9224C104.547 43.9459 104.524 43.9656 104.498 43.9803C104.378 44.0488 104.244 44.0905 104.106 44.1026C103.969 44.1157 103.832 44.1001 103.702 44.0569C103.573 44.0137 103.453 43.9437 103.352 43.8516C103.201 43.7099 103.098 43.5245 103.058 43.3213C103.017 43.118 103.042 42.9073 103.127 42.7186C103.23 42.5346 103.362 42.3692 103.52 42.2293C103.661 42.1207 103.77 41.9761 103.835 41.8109C103.854 41.7245 103.852 41.6347 103.829 41.5494C103.805 41.4641 103.761 41.3859 103.7 41.3217C103.645 41.26 103.582 41.2059 103.513 41.1607C103.271 41.1702 103.041 41.2714 102.87 41.444C102.798 41.542 102.749 41.6542 102.724 41.773C102.7 41.8918 102.701 42.0145 102.728 42.1328C102.744 42.1917 102.736 42.2544 102.706 42.3074C102.676 42.3605 102.626 42.3995 102.567 42.416H102.528C102.474 42.4183 102.421 42.4025 102.376 42.371C102.332 42.3396 102.299 42.2942 102.284 42.2422C102.239 42.0565 102.236 41.8631 102.275 41.6761C102.314 41.489 102.394 41.313 102.509 41.1607C102.596 41.0508 102.706 40.9608 102.831 40.8968C102.478 40.8197 102.108 40.8771 101.795 41.0577C101.612 41.1701 101.476 41.3444 101.411 41.5488C101.346 41.7532 101.356 41.9741 101.44 42.1714C101.459 42.1977 101.472 42.2275 101.479 42.2591C101.485 42.2907 101.485 42.3233 101.478 42.3548C101.471 42.3863 101.458 42.416 101.439 42.4421C101.42 42.4681 101.396 42.49 101.368 42.5061C101.34 42.5223 101.309 42.5325 101.277 42.5361C101.245 42.5396 101.213 42.5364 101.182 42.5267C101.151 42.5171 101.123 42.501 101.099 42.4798C101.074 42.4585 101.055 42.4324 101.041 42.4031C100.9 42.1033 100.873 41.7618 100.967 41.4437C101.061 41.1256 101.268 40.853 101.55 40.6779Z" fill="#C16B5B"/>
<path d="M119.008 40.4462C119.208 40.3441 119.428 40.2849 119.652 40.2724C119.852 40.2549 120.053 40.3023 120.225 40.4075C120.309 40.4702 120.377 40.5506 120.426 40.6429C120.475 40.7353 120.503 40.8374 120.508 40.9418C120.514 41.144 120.472 41.3447 120.386 41.5276C120.341 41.6306 120.251 41.7143 120.135 41.6757C120.109 41.669 120.084 41.6571 120.062 41.6408C120.041 41.6246 120.022 41.6042 120.009 41.5809C119.995 41.5575 119.986 41.5317 119.982 41.5049C119.978 41.4781 119.98 41.4509 119.987 41.4246C120.051 41.2896 120.089 41.143 120.096 40.9933C120.098 40.9175 120.075 40.8432 120.032 40.7809C120.008 40.7515 119.979 40.7272 119.946 40.7095C119.913 40.6918 119.876 40.6811 119.839 40.6779H119.562C119.438 40.7038 119.317 40.7427 119.201 40.7938C119.156 40.8115 119.106 40.8129 119.061 40.7976C119.015 40.7823 118.976 40.7513 118.95 40.7101C118.926 40.6665 118.919 40.6158 118.93 40.5673C118.941 40.5188 118.968 40.4758 119.008 40.4462Z" fill="#C16B5B"/>
<path d="M123.553 35.2769C123.019 34.9834 122.422 34.8241 121.813 34.8129C121.204 34.8017 120.602 34.9388 120.057 35.2126C119.92 35.2804 119.816 35.3997 119.766 35.5444C119.717 35.6891 119.727 35.8475 119.794 35.9851C119.838 36.0575 119.896 36.1206 119.964 36.1705C120.033 36.2205 120.111 36.2564 120.194 36.2761C120.276 36.2959 120.362 36.2991 120.446 36.2856C120.529 36.2721 120.61 36.2421 120.682 36.1975C120.979 36.0642 121.297 35.9836 121.622 35.9593C122.036 35.9405 122.449 36.0222 122.826 36.1975H122.909C123.036 36.269 123.186 36.29 123.327 36.2562C123.469 36.2225 123.593 36.1365 123.674 36.0155C123.756 35.8944 123.788 35.7472 123.766 35.6031C123.743 35.4591 123.667 35.3288 123.553 35.2383V35.2769Z" fill="#421F09"/>
<path d="M116.549 35.3284C115.984 35.1015 115.372 35.0157 114.766 35.0785C114.161 35.1413 113.579 35.3509 113.073 35.6889C112.945 35.7743 112.856 35.9064 112.824 36.057C112.793 36.2075 112.822 36.3644 112.905 36.4936C112.991 36.6213 113.123 36.7108 113.273 36.7432C113.423 36.7756 113.58 36.7484 113.71 36.6674C113.811 36.597 113.917 36.5325 114.026 36.4743H114.09L114.219 36.4228C114.335 36.3795 114.453 36.343 114.573 36.3134C114.573 36.3134 114.798 36.249 114.65 36.3134C114.704 36.3098 114.757 36.3098 114.811 36.3134C114.927 36.307 115.043 36.307 115.159 36.3134H115.397C115.512 36.3259 115.625 36.3452 115.738 36.3713L115.918 36.4228H115.989C116.125 36.4897 116.282 36.5017 116.427 36.4561C116.572 36.4106 116.694 36.3111 116.768 36.1782C116.814 36.1094 116.846 36.0316 116.86 35.9499C116.874 35.8681 116.871 35.7843 116.85 35.704C116.829 35.6237 116.792 35.5487 116.74 35.4839C116.688 35.4192 116.623 35.3662 116.549 35.3284Z" fill="#421F09"/>
<path d="M114.277 39.2424C114.27 39.4923 114.362 39.7348 114.533 39.9169C114.705 40.0991 114.941 40.206 115.191 40.2144C115.44 40.2221 115.682 40.1304 115.864 39.9596C116.046 39.7888 116.152 39.5528 116.16 39.3035C116.167 39.0543 116.076 38.8122 115.905 38.6305C115.734 38.4488 115.498 38.3424 115.249 38.3347C115 38.3277 114.758 38.4191 114.576 38.589C114.394 38.7589 114.287 38.9936 114.277 39.2424Z" fill="black"/>
<path d="M115.287 39.0042C115.286 39.0402 115.291 39.0762 115.304 39.1101C115.316 39.144 115.335 39.1751 115.36 39.2014C115.384 39.2278 115.414 39.2491 115.447 39.2638C115.48 39.2786 115.515 39.2866 115.551 39.2874C115.623 39.2876 115.692 39.2604 115.745 39.2114C115.798 39.1624 115.83 39.0952 115.835 39.0235C115.835 38.9871 115.829 38.951 115.816 38.9171C115.803 38.8832 115.783 38.8522 115.758 38.8259C115.733 38.7996 115.703 38.7785 115.67 38.7638C115.636 38.7491 115.601 38.7411 115.564 38.7403C115.528 38.7385 115.493 38.744 115.459 38.7565C115.426 38.769 115.395 38.7882 115.369 38.8129C115.343 38.8375 115.323 38.8672 115.309 38.9001C115.295 38.933 115.287 38.9684 115.287 39.0042Z" fill="white"/>
<path d="M121.139 39.0814C121.133 39.2672 121.182 39.4506 121.28 39.6085C121.378 39.7664 121.52 39.8918 121.689 39.9687C121.859 40.0456 122.047 40.0706 122.23 40.0406C122.413 40.0105 122.584 39.9268 122.72 39.8C122.856 39.6732 122.951 39.5089 122.993 39.328C123.036 39.1471 123.024 38.9576 122.958 38.7836C122.893 38.6095 122.778 38.4587 122.627 38.3502C122.476 38.2416 122.297 38.1802 122.111 38.1738C121.988 38.1695 121.864 38.1895 121.749 38.2328C121.633 38.2761 121.527 38.3418 121.437 38.4261C121.347 38.5104 121.274 38.6117 121.223 38.7241C121.172 38.8366 121.143 38.958 121.139 39.0814Z" fill="black"/>
<path d="M122.143 38.8111C122.141 38.8471 122.147 38.8831 122.159 38.917C122.172 38.9509 122.191 38.9819 122.215 39.0083C122.24 39.0347 122.27 39.0559 122.303 39.0707C122.336 39.0855 122.371 39.0935 122.407 39.0943C122.443 39.096 122.479 39.0905 122.513 39.0781C122.547 39.0657 122.578 39.0467 122.604 39.0221C122.631 38.9975 122.652 38.9678 122.667 38.9349C122.682 38.902 122.69 38.8664 122.69 38.8304C122.692 38.758 122.665 38.6879 122.616 38.6349C122.567 38.582 122.499 38.5505 122.426 38.5471C122.354 38.5454 122.284 38.572 122.231 38.6213C122.178 38.6707 122.147 38.7388 122.143 38.8111Z" fill="white"/>
<path d="M116.498 43.0662C116.768 42.6349 117.515 43.0662 118.39 43.1113C119.266 43.1563 120.051 42.8087 120.276 43.2722C120.553 43.858 119.716 45.2034 118.281 45.1519C116.845 45.1004 116.137 43.6198 116.498 43.0662Z" fill="#8E4136"/>
<path d="M116.568 44.0189C116.862 43.9994 117.157 43.9994 117.45 44.0189C118.255 44.0191 119.044 44.2419 119.729 44.6627C119.535 44.8419 119.307 44.9796 119.058 45.067C118.809 45.1545 118.544 45.19 118.281 45.1712C117.917 45.1535 117.566 45.0367 117.264 44.8336C116.962 44.6305 116.722 44.3488 116.568 44.0189Z" fill="#C15353"/>
<path d="M118.364 43.6069C117.579 43.5619 116.922 43.343 116.704 42.9053C117.058 42.7829 117.682 43.0726 118.39 43.1112C119.098 43.1499 119.748 42.931 120.09 43.1112C119.819 43.4975 119.143 43.6456 118.364 43.6069Z" fill="white"/>
<path d="M49.4778 190.669H90.4518C91.4352 190.669 92.3784 190.279 93.0737 189.583C93.7691 188.888 94.1598 187.945 94.1598 186.961C94.1598 185.978 93.7691 185.035 93.0737 184.339C92.3784 183.644 91.4352 183.253 90.4518 183.253H52.4712L40.4655 125.381C40.2657 124.418 39.6916 123.574 38.8695 123.034C38.0473 122.495 37.0445 122.304 36.0816 122.504C35.1187 122.703 34.2746 123.278 33.7349 124.1C33.1953 124.922 33.0043 125.925 33.2041 126.888L45.8214 187.715C45.9955 188.554 46.4549 189.307 47.1215 189.845C47.7881 190.384 48.6208 190.675 49.4778 190.669Z" fill="#93A603"/>
<path d="M49.9993 186.961H17.4647L3.57275 122.433H36.1074L49.9993 186.961Z" fill="#93A603"/>
<path d="M16.3574 190.669H67.3416C68.325 190.669 69.2682 190.279 69.9635 189.583C70.6589 188.888 71.0496 187.945 71.0496 186.961C71.0496 185.978 70.6589 185.035 69.9635 184.339C69.2682 183.644 68.325 183.253 67.3416 183.253H19.3444L7.34506 125.381C7.24616 124.904 7.05429 124.452 6.78046 124.049C6.50662 123.646 6.15615 123.302 5.74907 123.035C5.34199 122.767 4.88627 122.583 4.40792 122.492C3.92958 122.401 3.43799 122.405 2.9612 122.504C2.48441 122.603 2.03177 122.794 1.62912 123.068C1.22648 123.342 0.88172 123.693 0.614518 124.1C0.347316 124.507 0.162914 124.962 0.0718341 125.441C-0.0192457 125.919 -0.0152479 126.411 0.0836606 126.888L12.7074 187.715C12.8802 188.553 13.3383 189.306 14.0039 189.845C14.6694 190.384 15.5012 190.675 16.3574 190.669Z" fill="#568203"/>
<path d="M60.6081 190.669L66.5949 253.164H64.3804L55.6577 190.669H60.6081Z" fill="#113F54"/>
<path d="M21.0181 190.669L15.0249 253.164H17.2458L25.9685 190.669H21.0181Z" fill="#113F54"/>
<path d="M85.8813 190.669L91.8681 253.164H89.6536L80.9245 190.669H85.8813Z" fill="#113F54"/>
<path d="M47.4822 190.669L41.4955 253.164H43.7099L52.4326 190.669H47.4822Z" fill="#113F54"/>
<path d="M83.7184 199.534C83.8267 200.019 83.9753 200.495 84.1626 200.956L102.297 196.959C102.242 196.556 102.136 196.162 101.981 195.787C101.842 195.392 101.613 195.035 101.313 194.744C101.012 194.452 100.648 194.234 100.25 194.107C99.0774 193.895 97.8925 193.762 96.7026 193.708C93.8701 193.502 90.5356 193.399 90.5356 193.399C88.489 194.405 86.2299 194.902 83.9501 194.847C83.4652 196.362 83.3854 197.978 83.7184 199.534Z" fill="#D9442B"/>
<path d="M92.7951 192.749C92.6955 192.649 92.5625 192.589 92.4217 192.581C92.2757 192.579 92.1348 192.635 92.029 192.736L90.9154 193.959C90.8155 194.058 90.7559 194.191 90.748 194.332C90.7454 194.403 90.7568 194.474 90.7817 194.541C90.8065 194.607 90.8442 194.668 90.8926 194.72C90.941 194.772 90.9992 194.814 91.0639 194.844C91.1285 194.873 91.1984 194.89 91.2694 194.892C91.4165 194.896 91.5594 194.843 91.6685 194.744L92.7822 193.521C92.8796 193.42 92.9388 193.288 92.9496 193.148C92.9516 193 92.8962 192.857 92.7951 192.749Z" fill="white"/>
<path d="M95.0289 192.755C94.9067 192.683 94.7618 192.66 94.6233 192.691C94.4819 192.724 94.3593 192.812 94.2821 192.935L93.3873 194.384C93.3299 194.475 93.3012 194.582 93.305 194.69C93.3088 194.798 93.345 194.902 93.4087 194.99C93.4725 195.077 93.5609 195.143 93.6627 195.18C93.7644 195.216 93.8748 195.222 93.9796 195.195C94.1186 195.16 94.2386 195.072 94.3143 194.95C94.6104 194.467 94.913 193.985 95.2091 193.495C95.2821 193.371 95.3052 193.224 95.2735 193.083C95.2381 192.946 95.1503 192.828 95.0289 192.755Z" fill="white"/>
<path d="M97.224 192.897C97.1635 192.858 97.0956 192.833 97.0247 192.821C96.9538 192.81 96.8814 192.814 96.812 192.832C96.7432 192.848 96.6783 192.877 96.6208 192.918C96.5634 192.959 96.5146 193.011 96.4773 193.07L95.7627 194.358C95.6908 194.482 95.6679 194.629 95.6983 194.77C95.7151 194.839 95.7453 194.904 95.7873 194.962C95.8293 195.019 95.8822 195.068 95.943 195.105C96.0655 195.182 96.2137 195.207 96.355 195.175C96.4241 195.159 96.4893 195.128 96.5467 195.086C96.6041 195.045 96.6527 194.992 96.6897 194.931L97.3978 193.643C97.4728 193.52 97.4959 193.372 97.4622 193.231C97.4469 193.162 97.4179 193.097 97.377 193.04C97.3361 192.982 97.2841 192.934 97.224 192.897Z" fill="white"/>
<path d="M90.5613 193.392C88.5229 194.447 86.2432 194.949 83.9501 194.847L77.6286 180.221C77.105 180.507 76.5467 180.723 75.9677 180.865C73.8369 181.464 69.4466 182.153 61.6638 181.168C49.613 179.668 50.3984 167.72 50.3984 167.72L64.4512 166.799L65.4168 168.087C65.4168 168.087 75.5622 169.825 77.7895 170.179C78.15 170.237 78.5041 170.301 78.8452 170.379C81.8 171.022 84.1883 172.374 85.3341 176.121C85.9457 178.123 90.5613 193.392 90.5613 193.392Z" fill="#F0A780"/>
<path d="M78.8452 170.366C78.5993 174.023 77.6207 177.593 75.9677 180.865C73.8369 181.464 69.4466 182.153 61.6638 181.168C49.613 179.668 50.3984 167.72 50.3984 167.72L64.4512 166.799L65.4168 168.087C65.4168 168.087 75.5622 169.825 77.7895 170.179C78.1564 170.224 78.5041 170.288 78.8452 170.366Z" fill="#DA9604"/>
<path d="M74.2039 198.761C69.9423 198.973 67.818 196.502 67.818 196.502L69.0153 182.03L67.7278 182.223C64.2967 182.713 54.9046 183.859 49.0594 182.906C41.2701 181.618 39.0943 175.007 40.1114 167.913L56.4624 167.347C56.4624 167.347 66.5369 169.632 70.1354 170.334C70.7188 170.447 71.2949 170.595 71.8606 170.778C75.8003 172.065 77.4161 174.743 77.7509 177.016C78.2208 180.254 74.2039 198.761 74.2039 198.761Z" fill="#F0A780"/>
<path d="M71.8606 170.797C71.2822 174.981 69.8468 179 67.6442 182.603C64.2195 183.086 54.8852 183.859 49.053 182.906C41.2637 181.618 39.0879 175.007 40.105 167.913L56.4624 167.347C56.4624 167.347 66.5369 169.632 70.1354 170.334C70.7192 170.454 71.2953 170.608 71.8606 170.797Z" fill="#DA9604"/>
<path d="M71.719 170.713L63.7495 169.072C63.7292 168.838 63.6531 168.613 63.5276 168.414C63.4022 168.216 63.231 168.051 63.0286 167.932C62.8676 167.836 62.7196 168.087 62.8805 168.177C63.0553 168.279 63.201 168.425 63.3035 168.599C63.4061 168.774 63.4621 168.972 63.4663 169.175C63.4675 169.205 63.478 169.234 63.4965 169.259C63.5149 169.283 63.5403 169.301 63.5693 169.31C63.5871 169.327 63.6095 169.338 63.6337 169.342L71.6418 170.99C71.8542 171.029 71.9315 170.746 71.719 170.713Z" fill="#DE6300"/>
<path d="M65.1787 200.358C65.0142 200.827 64.8872 201.31 64.7988 201.8L82.3086 207.999C82.4722 207.628 82.5889 207.239 82.6562 206.84C82.7482 206.431 82.7438 206.007 82.6432 205.6C82.5427 205.193 82.3488 204.816 82.0768 204.497C81.1929 203.694 80.2551 202.952 79.2701 202.276C76.9784 200.609 74.2039 198.761 74.2039 198.761C71.9232 198.538 69.7312 197.763 67.818 196.502C66.6156 197.534 65.7055 198.863 65.1787 200.358Z" fill="#D9442B"/>
<path d="M76.4569 199.411C76.4294 199.272 76.3485 199.15 76.2317 199.07C76.1719 199.03 76.1045 199.002 76.0336 198.989C75.9628 198.976 75.89 198.977 75.8197 198.993L74.2232 199.443C74.1533 199.458 74.087 199.486 74.0281 199.526C73.9692 199.567 73.9188 199.618 73.8799 199.678C73.841 199.738 73.8143 199.805 73.8014 199.875C73.7885 199.945 73.7897 200.017 73.8047 200.087C73.8188 200.157 73.8466 200.222 73.8864 200.281C73.9262 200.34 73.9772 200.39 74.0365 200.428C74.0962 200.469 74.1634 200.497 74.2342 200.511C74.3049 200.526 74.3777 200.526 74.4485 200.512L76.0385 200.061C76.1761 200.027 76.297 199.945 76.3797 199.83C76.4216 199.769 76.4502 199.701 76.4635 199.629C76.4769 199.557 76.4746 199.482 76.4569 199.411Z" fill="white"/>
<path d="M78.356 200.596C78.2892 200.467 78.1766 200.369 78.0406 200.319C77.9081 200.267 77.761 200.267 77.6286 200.319L76.0965 201.085C75.9684 201.15 75.871 201.263 75.8253 201.399C75.7795 201.535 75.789 201.683 75.8519 201.812C75.919 201.939 76.0317 202.036 76.1673 202.083C76.302 202.134 76.451 202.134 76.5857 202.083L78.1114 201.317C78.2382 201.25 78.3348 201.137 78.3817 201.001C78.4262 200.868 78.417 200.722 78.356 200.596Z" fill="white"/>
<path d="M80.1392 201.87C80.1076 201.806 80.0634 201.749 80.0092 201.703C79.9549 201.656 79.8919 201.621 79.8237 201.6C79.6918 201.546 79.5437 201.546 79.4117 201.6L78.1243 202.315C77.9994 202.381 77.9033 202.491 77.8539 202.623C77.7992 202.758 77.7992 202.908 77.8539 203.042C77.9194 203.17 78.0327 203.267 78.1693 203.312C78.2346 203.34 78.3046 203.354 78.3753 203.354C78.446 203.354 78.516 203.34 78.5813 203.312L79.8688 202.598C79.9972 202.531 80.096 202.418 80.1456 202.282C80.1946 202.149 80.1923 202.002 80.1392 201.87Z" fill="white"/>
<path d="M59.4365 137.735C62.7904 138.668 65.7065 150.79 65.7065 150.79L76.6501 139.453L81.2078 142.859C81.2078 142.859 72.028 154.143 70.4638 155.92C67.6571 159.1 63.4406 159.139 60.5824 155.92C57.7242 152.702 59.4365 137.735 59.4365 137.735Z" fill="#F0A780"/>
<path d="M76.5921 142.337C76.5921 142.337 78.8066 144.017 81.0533 143.045C81.6706 142.804 82.2272 142.43 82.6834 141.95C83.1396 141.469 83.4842 140.894 83.6926 140.264C83.6926 140.264 86.7697 142.318 87.4907 141.925C88.2116 141.533 84.9801 138.861 84.9801 138.861C84.9801 138.861 89.2223 139.775 89.4219 139.099C89.6214 138.423 85.1668 137.11 85.1668 137.11C85.1668 137.11 89.7952 136.035 89.5828 135.089C89.3704 134.142 83.6347 135.462 83.6347 135.462C83.6347 135.462 85.9714 131.999 85.2504 131.49C84.214 130.756 78.9418 136.679 78.8839 136.602C78.8259 136.524 77.7509 132.881 76.3668 133.563C74.9828 134.245 76.6243 135.546 76.3668 137.297C76.2252 138.114 75.2789 141.063 76.5921 142.337Z" fill="#F0A780"/>
<path d="M59.4365 137.735C63.2989 139.17 65.7065 148.305 65.7065 148.305C65.7065 148.305 63.3504 150.236 58.561 150.075L59.4365 137.735Z" fill="#D9442B"/>
<path d="M64.4512 166.78C55.5805 171.286 39.9891 167.842 39.9891 167.842L45.139 137.799L47.3213 137.078L49.8962 136.222H54.6149L55.8058 136.608L59.4172 137.78L64.4512 166.78Z" fill="#D9442B"/>
<path d="M45.1454 137.799C41.695 139.138 39.9955 151.073 39.5771 153.847C39.0814 157.066 40.4848 160.285 43.4396 160.111C46.2463 159.969 61.033 157.388 61.033 157.388L60.254 152.65L45.9501 153.48L47.5788 143.857L45.1454 137.799Z" fill="#F0A780"/>
<path d="M58.8442 152.965C59.1661 152.56 59.8163 152.74 60.4021 152.122C60.9879 151.504 61.3484 150.081 61.9213 149.74C62.4943 149.399 67.1742 147.976 67.406 149.039C67.5476 149.682 64.9276 150.326 64.9018 150.397C64.8761 150.468 68.2429 149.998 68.3458 150.886C68.4488 151.775 64.4834 151.807 64.4834 151.903C64.4834 152 67.5283 152.219 67.4253 153.062C67.3223 153.905 64.3869 153.384 64.3354 153.461C64.2839 153.538 66.5691 154.575 66.3825 155.141C66.1958 155.708 63.3569 154.555 63.2861 154.671C63.2153 154.787 63.0607 156.113 62.3333 156.847C61.6059 157.581 59.3528 157.6 58.8893 156.937C58.4258 156.274 58.4387 153.493 58.8442 152.965Z" fill="#F0A780"/>
<path d="M45.1454 137.799C42.0491 138.829 39.6479 149.624 39.6479 149.624C42.1765 150.304 44.797 150.578 47.4114 150.436L48.5444 143.927L45.1454 137.799Z" fill="#D9442B"/>
<path d="M48.7762 142.524C48.48 144.987 48.0981 147.444 47.6303 149.895C47.5981 150.075 47.8749 150.152 47.9136 149.972C48.3856 147.5 48.7697 145.017 49.0658 142.524C49.0852 142.337 48.7955 142.337 48.7762 142.524Z" fill="#AB2A15"/>
<path d="M61.5544 148.369C61.0609 146.013 60.563 143.653 60.0609 141.288C60.0223 141.108 59.739 141.185 59.7777 141.365C60.2798 143.721 60.7798 146.082 61.2776 148.446C61.3162 148.627 61.593 148.549 61.5544 148.369Z" fill="#AB2A15"/>
<path d="M50.2053 105.013C47.9329 103.938 45.1004 104.82 43.2786 106.552C41.4568 108.283 40.4655 110.704 39.7316 113.105C37.643 119.991 37.2587 127.281 38.6115 134.348C46.4483 136.152 54.5412 136.561 62.52 135.559C64.7284 135.367 66.8857 134.787 68.893 133.846C69.6831 128.927 69.8217 123.925 69.305 118.97C68.9703 115.751 68.3201 112.442 66.5691 109.7C64.9142 107.124 62.4084 105.211 59.488 104.292C56.4002 103.488 53.1318 103.742 50.2053 105.013Z" fill="#362722"/>
<path d="M65.6164 123.424C65.301 126.939 64.1165 129.147 62.3977 130.718C58.9537 133.833 54.5956 133.145 54.8338 138.056C52.9025 140.033 49.9799 139.479 48.9371 137.792C48.6989 131.291 45.6025 129.385 44.5854 126.894C44.27 126.128 44.0254 125.607 43.9417 125.433L43.8966 125.336C43.8966 125.336 43.8645 124.287 43.8966 122.761V122.175C43.8966 118.564 44.1091 112.88 45.1004 110.833C48.7376 103.333 62.8869 105.142 64.2645 110.903C65.5134 116.375 65.9254 120.392 65.6164 123.424Z" fill="#F0A780"/>
<path d="M66.273 116.568C63.482 115.376 61.2653 113.143 60.0931 110.343C59.5882 112.049 58.5156 113.53 57.0532 114.541C55.5907 115.553 53.8264 116.034 52.0528 115.905C51.648 117.059 50.868 118.044 49.8375 118.702C48.8071 119.36 47.5856 119.654 46.3686 119.536C46.2019 120.465 45.8253 121.343 45.2675 122.104C44.7097 122.865 43.9854 123.488 43.1499 123.926C42.0426 120.811 40.9096 117.437 41.5727 114.206C42.1375 111.752 43.554 109.579 45.5703 108.071C47.5834 106.58 49.9303 105.603 52.4068 105.226C54.9068 104.741 57.4907 104.929 59.8935 105.773C61.0883 106.204 62.1815 106.876 63.1052 107.747C64.0288 108.619 64.7631 109.671 65.2623 110.839C65.933 112.675 66.2751 114.614 66.273 116.568Z" fill="#362722"/>
<path d="M40.8195 125.742C42.107 127.119 44.0382 127.415 45.1004 126.385C46.1626 125.355 46.0467 123.437 44.7786 122.066C43.5104 120.695 41.5598 120.392 40.4912 121.422C39.4226 122.452 39.5321 124.364 40.8195 125.742Z" fill="#F0A780"/>
<path d="M41.2959 122.085C41.5754 121.938 41.885 121.857 42.2008 121.848C42.5166 121.839 42.8303 121.902 43.1177 122.034C43.4011 122.136 43.6522 122.311 43.8451 122.542C43.9507 122.672 44.0234 122.825 44.057 122.989C44.0906 123.152 44.0842 123.322 44.0382 123.482C43.9409 123.734 43.7788 123.956 43.5683 124.126C43.4399 124.223 43.3307 124.343 43.2465 124.48C43.1905 124.583 43.1696 124.702 43.187 124.818C43.2044 124.934 43.2592 125.041 43.343 125.124C43.4258 125.207 43.5331 125.261 43.649 125.278C43.7648 125.295 43.8832 125.275 43.9867 125.22C44.0138 125.206 44.0434 125.197 44.0739 125.194C44.1044 125.191 44.1352 125.194 44.1644 125.203C44.1937 125.212 44.221 125.227 44.2446 125.246C44.2682 125.266 44.2878 125.29 44.3022 125.317C44.3165 125.344 44.3254 125.373 44.3284 125.404C44.3313 125.434 44.3282 125.465 44.3192 125.495C44.3102 125.524 44.2956 125.551 44.2761 125.575C44.2566 125.598 44.2327 125.618 44.2056 125.632C44.0809 125.7 43.9419 125.737 43.8001 125.742C43.6597 125.75 43.5192 125.729 43.3874 125.68C43.2555 125.632 43.1352 125.556 43.034 125.458C42.887 125.305 42.7907 125.111 42.7585 124.901C42.7262 124.691 42.7595 124.477 42.8537 124.287C42.9654 124.1 43.1093 123.934 43.2786 123.798C43.4256 123.693 43.5413 123.551 43.6134 123.386C43.6362 123.299 43.6376 123.208 43.6174 123.12C43.5973 123.033 43.5561 122.952 43.4975 122.883C43.4516 122.806 43.3844 122.743 43.304 122.703C43.2235 122.663 43.1332 122.646 43.0437 122.656C42.9542 122.665 42.8693 122.7 42.7991 122.757C42.7289 122.813 42.6764 122.888 42.6478 122.974C42.5693 123.071 42.5136 123.184 42.4846 123.305C42.4557 123.427 42.4542 123.553 42.4804 123.675C42.4918 123.737 42.4786 123.8 42.4437 123.852C42.4088 123.904 42.3549 123.94 42.2937 123.952H42.2551C42.1996 123.955 42.145 123.937 42.1013 123.903C42.0576 123.869 42.0276 123.82 42.0169 123.765C41.975 123.573 41.9776 123.374 42.0244 123.184C42.0713 122.993 42.1612 122.815 42.2873 122.665C42.3837 122.558 42.4994 122.471 42.6285 122.407C42.2687 122.314 41.8873 122.36 41.5599 122.536C41.3681 122.643 41.2214 122.817 41.147 123.023C41.0725 123.23 41.0751 123.457 41.1543 123.662C41.1698 123.689 41.1796 123.719 41.1831 123.75C41.1866 123.78 41.1838 123.812 41.1747 123.841C41.1656 123.871 41.1506 123.898 41.1305 123.922C41.1103 123.945 41.0856 123.964 41.0577 123.978C41.0307 123.992 41.0011 124.001 40.9705 124.005C40.94 124.008 40.9092 124.004 40.8798 123.995C40.8505 123.987 40.8232 123.972 40.7996 123.952C40.776 123.933 40.7565 123.908 40.7423 123.881C40.5885 123.568 40.5601 123.207 40.663 122.873C40.7659 122.54 40.9922 122.258 41.2959 122.085Z" fill="#C16B5B"/>
<path d="M60.312 121.171C60.3376 121.17 60.3623 121.161 60.3821 121.145C60.4019 121.128 60.4157 121.106 60.4214 121.081C60.6081 120.309 60.3377 120.057 60.0738 119.987C59.9113 119.959 59.7447 119.967 59.5856 120.01C59.4266 120.053 59.2789 120.131 59.1532 120.238C59.1398 120.246 59.1282 120.256 59.1192 120.269C59.1101 120.281 59.1038 120.296 59.1008 120.311C59.0978 120.326 59.098 120.342 59.1015 120.357C59.105 120.372 59.1116 120.386 59.121 120.399C59.1391 120.423 59.1656 120.44 59.1953 120.446C59.225 120.452 59.2559 120.446 59.282 120.431C59.3807 120.345 59.4966 120.281 59.6221 120.243C59.7475 120.205 59.8796 120.195 60.0094 120.212C60.2476 120.276 60.3055 120.553 60.1961 121.03C60.1912 121.044 60.1896 121.06 60.1913 121.075C60.193 121.091 60.1979 121.106 60.2059 121.119C60.2138 121.133 60.2245 121.144 60.2372 121.153C60.25 121.162 60.2645 121.168 60.2798 121.171H60.312Z" fill="#C16B5B"/>
<path d="M65.9833 120.772C65.9833 121.339 65.3396 121.834 64.5349 121.873C63.7303 121.911 63.0157 121.487 62.9835 120.914C62.9513 120.341 63.6272 119.851 64.4319 119.813C65.2366 119.774 65.9576 120.206 65.9833 120.772Z" fill="#F07D7D"/>
<path d="M54.7887 121.21C54.7887 121.783 54.145 122.278 53.3403 122.317C52.5356 122.356 51.821 121.924 51.7889 121.358C51.7567 120.791 52.4326 120.296 53.2373 120.257C54.0419 120.218 54.763 120.643 54.7887 121.21Z" fill="#F07D7D"/>
<path d="M56.7972 122.446C56.8233 122.425 56.8532 122.41 56.8852 122.401C56.9172 122.393 56.9507 122.39 56.9836 122.394C57.0165 122.399 57.0483 122.409 57.0771 122.426C57.1058 122.442 57.131 122.464 57.1512 122.491C57.5434 122.892 58.0541 123.157 58.608 123.246C59.162 123.335 59.7299 123.244 60.2283 122.986C60.5244 122.838 60.7111 123.308 60.4214 123.456C59.8216 123.757 59.1412 123.856 58.4805 123.74C57.8198 123.624 57.2139 123.299 56.7521 122.813C56.7305 122.786 56.7144 122.755 56.7049 122.722C56.6955 122.689 56.6928 122.654 56.697 122.62C56.7012 122.585 56.7122 122.552 56.7294 122.523C56.7466 122.493 56.7697 122.467 56.7972 122.446Z" fill="#C16B5B"/>
<path d="M53.6943 118.867C53.6855 119.094 53.7446 119.32 53.864 119.514C53.9835 119.709 54.1579 119.863 54.3653 119.958C54.5726 120.053 54.8035 120.085 55.0287 120.049C55.2539 120.012 55.4633 119.91 55.6304 119.755C55.7974 119.6 55.9146 119.398 55.9671 119.176C56.0196 118.954 56.005 118.722 55.9253 118.508C55.8455 118.294 55.704 118.109 55.5189 117.976C55.3338 117.842 55.1132 117.767 54.8852 117.759C54.5811 117.751 54.2858 117.862 54.0629 118.069C53.8401 118.276 53.7077 118.563 53.6943 118.867Z" fill="black"/>
<path d="M54.9432 118.538C54.9415 118.582 54.9484 118.626 54.9636 118.667C54.9789 118.709 55.0022 118.746 55.032 118.779C55.0619 118.811 55.0979 118.837 55.1379 118.856C55.1779 118.874 55.2211 118.884 55.265 118.886C55.309 118.888 55.3529 118.881 55.3942 118.865C55.4354 118.85 55.4733 118.827 55.5056 118.797C55.5379 118.767 55.5639 118.731 55.5823 118.691C55.6007 118.651 55.611 118.608 55.6126 118.564C55.5927 118.494 55.5505 118.433 55.4924 118.389C55.4343 118.345 55.3635 118.321 55.2908 118.321C55.218 118.321 55.1473 118.345 55.0892 118.389C55.0311 118.433 54.9889 118.494 54.9689 118.564L54.9432 118.538Z" fill="white"/>
<path d="M61.7668 118.725C61.7593 118.953 61.8196 119.178 61.9401 119.372C62.0606 119.565 62.2359 119.719 62.4437 119.813C62.6516 119.907 62.8827 119.937 63.1077 119.9C63.3328 119.862 63.5416 119.759 63.7078 119.603C63.874 119.446 63.9901 119.244 64.0413 119.022C64.0926 118.8 64.0767 118.567 63.9957 118.354C63.9147 118.141 63.7722 117.956 63.5863 117.824C63.4003 117.692 63.1794 117.618 62.9513 117.611C62.8003 117.606 62.6497 117.631 62.5083 117.684C62.3669 117.737 62.2374 117.818 62.1274 117.922C62.0173 118.025 61.9287 118.149 61.8669 118.287C61.805 118.425 61.771 118.574 61.7668 118.725Z" fill="black"/>
<path d="M62.9964 118.422C62.9946 118.466 63.0016 118.51 63.0168 118.551C63.0321 118.593 63.0553 118.631 63.0852 118.663C63.1151 118.695 63.1511 118.721 63.1911 118.74C63.231 118.758 63.2743 118.768 63.3182 118.77C63.3681 118.784 63.4205 118.787 63.4714 118.777C63.5224 118.768 63.5704 118.747 63.6118 118.715C63.6531 118.684 63.6867 118.644 63.7098 118.597C63.7329 118.551 63.7449 118.5 63.7449 118.448C63.7449 118.396 63.7329 118.345 63.7098 118.299C63.6867 118.252 63.6531 118.212 63.6118 118.181C63.5704 118.15 63.5224 118.129 63.4714 118.119C63.4205 118.11 63.3681 118.112 63.3182 118.126C63.2376 118.127 63.1602 118.158 63.1008 118.213C63.0414 118.268 63.0043 118.342 62.9964 118.422Z" fill="white"/>
<path d="M49.4269 147.79L49.3426 147.822H49.3815L49.4269 147.79Z" fill="#F0A086"/>
<path d="M248.529 190.669H207.548C206.565 190.669 205.622 190.279 204.926 189.583C204.231 188.888 203.84 187.945 203.84 186.961C203.84 185.978 204.231 185.035 204.926 184.339C205.622 183.644 206.565 183.253 207.548 183.253H245.529L257.535 125.381C257.633 124.904 257.825 124.452 258.099 124.049C258.373 123.646 258.723 123.302 259.131 123.035C259.538 122.767 259.993 122.583 260.472 122.492C260.95 122.401 261.442 122.405 261.918 122.504C262.395 122.603 262.848 122.794 263.25 123.068C263.653 123.342 263.998 123.693 264.265 124.1C264.532 124.507 264.717 124.962 264.808 125.441C264.899 125.919 264.895 126.411 264.796 126.888L252.172 187.715C252 188.552 251.542 189.304 250.878 189.843C250.214 190.381 249.384 190.673 248.529 190.669Z" fill="#93A603"/>
<path d="M248.007 186.961H280.535L294.427 122.433H261.899L248.007 186.961Z" fill="#93A603"/>
<path d="M281.675 190.669H230.723C230.236 190.669 229.754 190.573 229.304 190.387C228.854 190.201 228.445 189.928 228.101 189.583C227.757 189.239 227.483 188.83 227.297 188.38C227.111 187.93 227.015 187.448 227.015 186.961C227.015 186.474 227.111 185.992 227.297 185.542C227.483 185.092 227.757 184.684 228.101 184.339C228.445 183.995 228.854 183.722 229.304 183.536C229.754 183.349 230.236 183.253 230.723 183.253H278.688L290.7 125.381C290.781 124.888 290.962 124.417 291.23 123.995C291.498 123.574 291.849 123.211 292.261 122.928C292.673 122.645 293.138 122.449 293.628 122.351C294.118 122.252 294.623 122.254 295.112 122.355C295.601 122.457 296.065 122.656 296.475 122.942C296.886 123.227 297.234 123.592 297.499 124.016C297.765 124.439 297.942 124.912 298.02 125.405C298.099 125.899 298.076 126.403 297.955 126.888L285.338 187.715C285.163 188.555 284.703 189.309 284.035 189.847C283.367 190.386 282.533 190.677 281.675 190.669Z" fill="#568203"/>
<path d="M237.392 190.669L231.405 253.164H233.62L242.342 190.669H237.392Z" fill="#113F54"/>
<path d="M276.988 190.669L282.975 253.164H280.754L272.032 190.669H276.988Z" fill="#113F54"/>
<path d="M212.119 190.669L206.132 253.164H208.353L217.075 190.669H212.119Z" fill="#113F54"/>
<path d="M250.518 190.669L256.505 253.164H254.29L245.567 190.669H250.518Z" fill="#113F54"/>
<path d="M259.575 154.697C259.575 178.985 222.882 183.08 222.882 183.08L200.75 184.541L187.09 233.085L184.515 242.297C181.168 243.681 175.052 242.4 175.052 242.4C175.052 242.4 175.483 238.203 176.14 232.036C177.756 216.805 180.691 189.511 181.638 183.453C184.045 168.068 188.075 164.913 201.767 162.435C211.469 160.69 229.268 156.95 229.268 156.95L232.931 154.375L259.575 154.697Z" fill="#EB9C73"/>
<path d="M259.575 154.697C259.575 178.985 222.882 183.08 222.882 183.08L201.111 185.294L190.721 226.983L190.637 227.324L190.128 229.377L190.038 229.719L189.034 233.768C188.5 233.768 187.875 233.71 187.193 233.658L186.852 233.626C182.848 233.311 176.97 232.59 173.977 232.133C174.106 230.845 174.267 229.558 174.441 228.122C174.441 228.013 174.441 227.897 174.486 227.787C174.589 226.944 174.705 226.088 174.82 225.212C174.82 225.103 174.82 224.987 174.865 224.871C176.964 209.421 180.781 188.641 181.593 183.459C184 168.074 188.03 164.913 201.722 162.441C211.423 160.697 229.223 156.957 229.223 156.957L232.886 154.382L259.575 154.697Z" fill="#195B78"/>
<path d="M190.167 229.377L190.077 229.719C189.35 229.719 188.616 229.667 187.882 229.628H187.534H187.116C182.871 229.381 178.643 228.891 174.453 228.161C174.453 228.051 174.453 227.935 174.499 227.826L176.295 228.122C180.038 228.707 183.809 229.102 187.592 229.307H187.94C188.661 229.326 189.401 229.358 190.167 229.377Z" fill="#113F54"/>
<path d="M190.74 226.983L190.656 227.324L188.281 227.131L187.94 227.098H187.65C183.359 226.669 179.08 226.047 174.814 225.232C174.814 225.122 174.814 225.006 174.859 224.89C175.606 225.036 176.352 225.178 177.099 225.315C180.708 225.955 184.341 226.444 187.998 226.783H188.339C189.137 226.86 189.942 226.925 190.74 226.983Z" fill="#113F54"/>
<path d="M197.39 183.833L197.081 185.056C196.257 188.373 195.463 191.693 194.699 195.015C193.935 198.336 193.199 201.671 192.491 205.018C191.783 208.357 191.107 211.705 190.463 215.061C189.82 218.417 189.206 221.775 188.622 225.135C188.526 225.689 188.429 226.236 188.339 226.789L188.281 227.131C188.159 227.852 188.036 228.566 187.921 229.287L187.863 229.628C187.637 230.974 187.425 232.313 187.219 233.658L186.878 233.626C187.084 232.287 187.303 230.948 187.521 229.609L187.579 229.268C187.695 228.547 187.818 227.819 187.946 227.098C187.946 226.983 187.946 226.873 188.004 226.757C188.172 225.772 188.339 224.787 188.513 223.803C189.105 220.438 189.727 217.08 190.38 213.728C191.032 210.376 191.714 207.031 192.427 203.692C193.135 200.349 193.877 197.017 194.654 193.695C195.431 190.373 196.233 187.056 197.062 183.743C197.107 183.524 197.441 183.614 197.39 183.833Z" fill="#113F54"/>
<path d="M230.504 250.904V251.104C230.504 251.406 230.439 251.696 230.388 252.005C230.336 252.314 230.285 252.546 230.234 252.829L199.418 253.164C199.38 252.893 199.361 252.619 199.36 252.346C199.37 252.042 199.396 251.739 199.437 251.438C199.437 251.38 199.437 251.31 199.476 251.239C199.797 249.501 201.033 247.093 205.237 246.275C205.449 246.227 205.664 246.19 205.881 246.166C206.209 246.115 206.525 246.082 206.891 246.044H207.239C215.659 245.291 219.361 242.426 219.361 242.426C222.498 242.956 225.705 242.921 228.83 242.323C229.266 243.094 229.615 243.91 229.873 244.756C229.944 245.02 230.028 245.297 230.105 245.593C230.105 245.651 230.105 245.709 230.156 245.78C230.208 245.851 230.214 246.031 230.24 246.16C230.243 246.2 230.243 246.241 230.24 246.282C230.24 246.314 230.24 246.327 230.24 246.353C230.382 247.038 230.473 247.733 230.51 248.432C230.574 249.255 230.572 250.081 230.504 250.904Z" fill="#3391A6"/>
<path d="M216.303 242.664C216.353 242.612 216.413 242.571 216.479 242.542C216.546 242.513 216.617 242.498 216.689 242.497C216.835 242.504 216.973 242.561 217.082 242.658L217.339 242.851C217.745 243.16 218.163 243.462 218.588 243.752C218.707 243.828 218.798 243.941 218.846 244.074C218.881 244.217 218.863 244.368 218.794 244.499C218.721 244.626 218.601 244.719 218.46 244.757C218.319 244.796 218.168 244.777 218.041 244.705C217.449 244.306 216.876 243.881 216.309 243.417C216.258 243.366 216.217 243.306 216.189 243.239C216.161 243.172 216.147 243.1 216.147 243.028C216.147 242.955 216.161 242.884 216.189 242.817C216.217 242.75 216.258 242.689 216.309 242.638L216.303 242.664Z" fill="white"/>
<path d="M214.127 243.688C214.231 243.585 214.371 243.528 214.517 243.528C214.662 243.528 214.802 243.585 214.906 243.688C215.316 244.15 215.771 244.571 216.264 244.943C216.339 245.007 216.419 245.065 216.503 245.117C216.625 245.192 216.716 245.308 216.76 245.445C216.798 245.588 216.78 245.74 216.709 245.87C216.633 245.994 216.513 246.085 216.373 246.123C216.233 246.162 216.083 246.145 215.955 246.076C215.286 245.619 214.676 245.08 214.14 244.473C214.037 244.369 213.98 244.229 213.98 244.084C213.98 243.938 214.037 243.798 214.14 243.694L214.127 243.688Z" fill="white"/>
<path d="M212.132 244.422C212.234 244.318 212.372 244.258 212.518 244.254C212.59 244.253 212.662 244.266 212.73 244.292C212.797 244.319 212.858 244.358 212.91 244.409L214.198 246.005C214.298 246.11 214.358 246.247 214.365 246.391C214.365 246.538 214.307 246.679 214.204 246.784C214.102 246.887 213.963 246.947 213.818 246.951C213.745 246.952 213.673 246.938 213.606 246.91C213.538 246.882 213.477 246.842 213.425 246.791L212.138 245.2C212.043 245.093 211.986 244.957 211.977 244.814C211.977 244.669 212.033 244.528 212.132 244.422Z" fill="white"/>
<path d="M209.917 244.962C210.043 244.891 210.192 244.871 210.333 244.907C210.473 244.943 210.594 245.032 210.67 245.155L211.501 246.546C211.578 246.669 211.604 246.818 211.572 246.959C211.54 247.101 211.453 247.225 211.33 247.302C211.207 247.38 211.058 247.406 210.917 247.374C210.775 247.342 210.651 247.255 210.574 247.132L209.743 245.748C209.701 245.685 209.672 245.615 209.658 245.541C209.644 245.467 209.645 245.391 209.661 245.318C209.677 245.244 209.708 245.175 209.753 245.114C209.797 245.052 209.853 245.001 209.917 244.962Z" fill="white"/>
<path d="M186.144 250.904V251.104C186.144 251.406 186.079 251.696 186.028 252.005C185.976 252.314 185.925 252.546 185.873 252.829L155.058 253.164C155.02 252.893 155.001 252.619 155 252.346C155.01 252.042 155.036 251.739 155.077 251.438C155.087 251.371 155.102 251.304 155.122 251.239C155.437 249.501 156.673 247.093 160.877 246.275C161.089 246.227 161.304 246.19 161.521 246.166C161.849 246.115 162.164 246.082 162.531 246.044H162.879C171.306 245.291 175.007 242.426 175.007 242.426C178.142 242.956 181.347 242.921 184.47 242.323C184.906 243.094 185.255 243.91 185.513 244.756C185.59 245.02 185.667 245.297 185.745 245.593C185.745 245.651 185.777 245.709 185.796 245.78C185.815 245.851 185.854 246.031 185.88 246.16C185.882 246.2 185.882 246.241 185.88 246.282C185.88 246.314 185.88 246.327 185.88 246.353C186.021 247.038 186.114 247.733 186.157 248.432C186.218 249.255 186.213 250.082 186.144 250.904Z" fill="#3391A6"/>
<path d="M171.943 242.664C171.993 242.612 172.053 242.571 172.119 242.542C172.186 242.513 172.257 242.498 172.329 242.497C172.474 242.504 172.613 242.561 172.722 242.658L172.979 242.851C173.385 243.16 173.803 243.462 174.228 243.752C174.351 243.824 174.442 243.939 174.486 244.074C174.524 244.217 174.506 244.369 174.434 244.499C174.361 244.626 174.241 244.719 174.1 244.757C173.959 244.796 173.808 244.777 173.681 244.705C173.089 244.306 172.516 243.881 171.949 243.417C171.848 243.314 171.788 243.176 171.782 243.031C171.788 242.893 171.845 242.762 171.943 242.664Z" fill="white"/>
<path d="M169.773 243.688C169.877 243.585 170.017 243.528 170.163 243.528C170.309 243.528 170.449 243.585 170.552 243.688C170.96 244.15 171.413 244.571 171.904 244.943C171.979 245.007 172.059 245.065 172.142 245.117C172.265 245.192 172.356 245.308 172.4 245.445C172.438 245.588 172.42 245.74 172.348 245.87C172.274 245.996 172.154 246.087 172.014 246.126C171.873 246.164 171.723 246.146 171.595 246.076C170.927 245.617 170.318 245.079 169.78 244.473C169.678 244.369 169.619 244.232 169.613 244.087C169.612 243.938 169.669 243.794 169.773 243.688Z" fill="white"/>
<path d="M167.771 244.422C167.874 244.318 168.012 244.258 168.158 244.254C168.23 244.252 168.303 244.264 168.37 244.29C168.438 244.317 168.499 244.357 168.55 244.409L169.838 246.005C169.938 246.11 169.997 246.247 170.005 246.391C170.005 246.538 169.947 246.679 169.844 246.784C169.741 246.887 169.603 246.947 169.458 246.951C169.385 246.952 169.313 246.938 169.246 246.91C169.178 246.882 169.117 246.842 169.065 246.79L167.778 245.2C167.677 245.096 167.618 244.959 167.61 244.814C167.613 244.668 167.67 244.527 167.771 244.422Z" fill="white"/>
<path d="M165.557 244.962C165.683 244.891 165.832 244.871 165.973 244.907C166.113 244.943 166.234 245.032 166.31 245.155C166.593 245.619 166.864 246.082 167.141 246.546C167.218 246.669 167.244 246.818 167.212 246.959C167.18 247.101 167.093 247.225 166.97 247.302C166.847 247.38 166.698 247.406 166.556 247.374C166.415 247.342 166.291 247.255 166.214 247.132L165.383 245.748C165.342 245.685 165.313 245.615 165.3 245.541C165.286 245.467 165.288 245.391 165.304 245.318C165.32 245.245 165.351 245.176 165.394 245.115C165.438 245.053 165.493 245.002 165.557 244.962Z" fill="white"/>
<path d="M257.296 183.26C243.894 183.26 218.569 183.054 218.569 183.054L226.764 230.362L228.824 242.297C228.824 242.297 224.021 244.016 219.354 242.4C219.354 242.4 217.648 237.707 215.234 231.103C209.949 216.625 201.317 192.961 199.939 189.259C195.433 177.028 196.296 162.937 215.511 160.079C232.757 157.504 252.674 155.038 252.674 155.038H276.647C278.81 167.92 270.705 183.26 257.296 183.26Z" fill="#EB9C73"/>
<path d="M257.296 183.26C243.894 183.26 219.316 183.311 219.316 183.311L227.62 224.981L227.691 225.322L227.961 226.667L228.026 227.008L228.714 230.465L227.607 230.684L227.272 230.749C223.674 231.469 219.097 232.474 213.174 232.036C212.775 230.948 212.363 229.802 211.945 228.611C211.9 228.489 211.855 228.367 211.816 228.244C211.597 227.633 211.378 227.015 211.172 226.384C211.127 226.262 211.089 226.146 211.05 226.03C206.055 211.662 200.106 192.826 198.935 189.601C194.429 177.37 196.321 162.963 215.543 160.105C232.783 157.53 252.237 154.523 252.237 154.523L276.699 155.064C278.36 169.922 270.705 183.26 257.296 183.26Z" fill="#195B78"/>
<path d="M264.049 158.083C263.47 161.225 261.391 163.941 258.899 165.808C255.925 168.016 252.243 169.027 248.651 169.709C244.589 170.449 240.469 170.906 236.381 171.473L223.506 173.256C221.524 173.533 219.528 173.745 217.565 174.099C216.097 174.363 214.5 174.782 213.393 175.844C211.938 177.247 212.106 179.282 212.679 181.058C213.322 182.938 214.14 184.76 214.861 186.607C217.865 194.276 220.489 202.081 222.734 210.02C224.15 215.046 225.405 220.112 226.5 225.219C226.873 225.142 227.253 225.058 227.626 224.968L227.697 225.309L226.571 225.554L226.88 227.015L227.968 226.654L228.032 226.996C227.671 227.118 227.311 227.24 226.95 227.35C227.176 228.457 227.401 229.564 227.594 230.671L227.259 230.736C227.049 229.641 226.835 228.549 226.616 227.459C226.262 227.568 225.908 227.665 225.553 227.762C221.119 228.948 216.49 229.226 211.945 228.579C211.9 228.457 211.855 228.334 211.816 228.212C212.807 228.36 213.812 228.47 214.816 228.521C218.778 228.744 222.748 228.267 226.545 227.111C226.435 226.616 226.332 226.12 226.223 225.624C225.766 225.714 225.302 225.805 224.839 225.882C220.321 226.656 215.72 226.814 211.159 226.352C211.114 226.229 211.076 226.114 211.037 225.998C211.752 226.069 212.473 226.133 213.194 226.172C217.533 226.437 221.889 226.138 226.152 225.283C224.865 219.202 223.33 213.172 221.549 207.194C219.205 199.269 216.466 191.465 213.342 183.813C212.647 182.101 211.745 180.273 211.861 178.374C211.913 177.642 212.15 176.936 212.55 176.321C212.949 175.706 213.499 175.203 214.146 174.859C215.496 174.178 216.961 173.756 218.466 173.617L224.775 172.741L237.804 170.939C241.827 170.379 245.902 169.967 249.874 169.123C253.46 168.364 257.052 167.102 259.8 164.617C262.266 162.37 264.03 159.216 263.83 155.804C263.83 155.585 264.165 155.585 264.178 155.804C264.227 156.566 264.184 157.332 264.049 158.083Z" fill="#113F54"/>
<path d="M241.023 154.858C240.617 155.138 240.306 155.533 240.129 155.992C239.952 156.452 239.918 156.954 240.031 157.433L225.785 159.184L218.665 160.053C216.374 160.336 214.082 160.6 211.816 161.038C207.838 161.81 203.827 163.207 200.821 166.033C197.937 168.743 196.508 172.58 196.263 176.475C195.98 180.865 197.203 185.197 198.838 189.234C199.038 189.723 199.237 190.212 199.443 190.701C199.514 190.869 199.765 190.701 199.694 190.553C197.995 186.543 196.572 182.281 196.54 177.878C196.54 174.016 197.622 169.973 200.267 167.044C202.913 164.115 206.84 162.448 210.702 161.572C212.921 161.103 215.162 160.746 217.417 160.504L224.427 159.641L238.499 157.916L240.237 157.703C240.262 157.7 240.285 157.69 240.305 157.676C240.326 157.661 240.342 157.642 240.353 157.62C240.362 157.602 240.366 157.582 240.366 157.562C240.366 157.542 240.362 157.522 240.353 157.504C240.22 157.069 240.229 156.603 240.377 156.173C240.525 155.743 240.805 155.37 241.177 155.109C241.325 155.006 241.183 154.755 241.023 154.858Z" fill="#113F54"/>
<path d="M194.841 112.88C194.841 112.88 192.452 114.463 190.206 113.311C189.585 113.024 189.036 112.602 188.599 112.076C188.161 111.551 187.846 110.935 187.676 110.273C187.676 110.273 184.367 112.204 183.652 111.734C182.938 111.264 186.433 108.747 186.433 108.747C186.433 108.747 182.011 109.391 181.85 108.695C181.689 108 186.356 106.925 186.356 106.925C186.356 106.925 181.657 105.509 181.947 104.556C182.236 103.603 188.043 105.335 188.043 105.335C188.043 105.335 185.867 101.614 186.639 101.138C187.76 100.449 192.794 106.893 192.858 106.822C192.922 106.751 194.274 103.063 195.652 103.861C197.029 104.659 195.253 105.882 195.414 107.723C195.497 108.554 196.283 111.657 194.841 112.88Z" fill="#EB9C73"/>
<path d="M243.99 96.4322C235.802 99.3612 221.801 126.044 221.801 126.044C221.801 126.044 200.351 108.798 196.598 108.084C195.053 107.788 190.579 113.234 190.605 114.399C190.676 117.502 212.074 134.149 215.711 137.02C219.348 139.891 226.262 141.681 230.601 136.209C235.358 130.216 240.9 119.922 240.9 119.922L243.99 96.4322Z" fill="#D9442B"/>
<path d="M232.454 154.504C254.985 158.836 276.647 155.695 276.647 155.695L270.808 95.7241L261.622 93.4195L252.861 93.4968L244.022 96.4322L232.454 154.504Z" fill="#D9442B"/>
<path d="M243.005 101.106C242.293 105.492 241.574 109.874 240.849 114.251C240.649 115.48 240.443 116.716 240.244 117.946C240.244 118.126 240.488 118.203 240.52 118.023C241.241 113.637 241.96 109.256 242.677 104.878C242.883 103.642 243.083 102.413 243.321 101.183C243.314 101.003 243.037 100.919 243.005 101.106Z" fill="#AB2A15"/>
<path d="M236.993 124.152C235.641 123.823 231.392 121.229 229.59 121.577C227.787 121.924 221.466 124.049 221.71 125.143C221.865 125.838 226.101 124.898 226.101 124.898C226.101 124.898 221.466 127.126 221.936 127.995C222.406 128.864 227.041 126.527 227.041 126.527C227.041 126.527 222.367 129.411 223.017 130.389C223.667 131.368 228.167 128.046 228.167 128.046C228.167 128.046 226.616 129.231 227.041 130.84C227.375 132.089 228.65 133.209 229.184 132.816C229.719 132.424 228.74 130.821 228.785 130.55C228.83 130.28 229.609 129.508 229.609 129.508C231.431 131.728 235.261 131.04 235.261 131.04L236.993 124.152Z" fill="#EB9C73"/>
<path d="M270.808 95.7241C277.066 96.8957 278.05 122.62 278.295 126.566C278.475 129.379 277.188 136.499 272.501 137.02C267.815 137.541 235.531 132.681 234.971 132.14C234.411 131.6 235.737 123.167 236.619 122.967C237.501 122.768 267.467 125.053 267.467 125.053L266.296 104.144L270.808 95.7241Z" fill="#D9442B"/>
<path d="M269.154 125.162L257.47 124.216L245.883 123.295L239.323 122.78C239.136 122.78 239.136 123.051 239.323 123.07L251.007 123.991L262.594 124.911L269.16 125.433C269.347 125.465 269.347 125.175 269.154 125.162Z" fill="#AB2A15"/>
<path d="M275.025 135.488C274.766 135.92 274.403 136.28 273.969 136.535C273.534 136.79 273.043 136.933 272.54 136.949C271.929 136.991 271.315 136.978 270.705 136.911L268.851 136.73C266.354 136.492 263.85 136.228 261.358 135.945C258.867 135.662 256.369 135.353 253.878 135.024C251.387 134.696 248.876 134.342 246.378 133.969C243.881 133.595 241.441 133.209 238.975 132.797L238.029 132.636C237.849 132.636 237.772 132.887 237.952 132.919C240.482 133.344 243.005 133.75 245.542 134.136C248.078 134.522 250.589 134.876 253.112 135.211C255.635 135.546 258.165 135.855 260.702 136.157C263.238 136.46 265.787 136.724 268.336 136.975L270.268 137.155C270.89 137.227 271.515 137.263 272.141 137.265C272.65 137.279 273.156 137.192 273.631 137.01C274.106 136.827 274.54 136.553 274.909 136.202C275.066 136.033 275.198 135.842 275.302 135.636C275.36 135.469 275.141 135.321 275.025 135.488Z" fill="#AB2A15"/>
<path d="M266.174 117.682C265.937 115.27 265.723 112.85 265.53 110.421C265.427 109.052 265.335 107.678 265.253 106.301C265.253 106.121 264.957 106.114 264.963 106.301C265.113 108.743 265.289 111.178 265.491 113.607C265.693 116.036 265.927 118.455 266.193 120.862C266.341 122.227 266.502 123.598 266.669 124.963C266.669 125.143 266.978 125.149 266.959 124.963C266.676 122.542 266.414 120.115 266.174 117.682Z" fill="#AB2A15"/>
<path d="M263.367 82.5918C266.766 79.274 268.753 74.7729 268.916 70.026C269.049 68.1224 268.671 66.2179 267.822 64.5092C267.402 63.6777 266.777 62.9667 266.007 62.4431C265.237 61.9194 264.346 61.6003 263.418 61.5158C261.513 59.3125 259.04 57.6745 256.268 56.78C253.496 55.8855 250.532 55.769 247.698 56.4431C245.546 56.9504 243.586 58.068 242.053 59.6618C240.363 61.6607 239.335 64.1349 239.111 66.7429C238.72 69.4463 239.127 72.2051 240.282 74.6802C241.547 77.0364 243.486 78.9617 245.851 80.21C248.181 81.4181 250.665 82.3038 253.234 82.8429C256.691 83.6218 260.766 85.0895 263.367 82.5918Z" fill="#421F09"/>
<path d="M264.094 79.3538C262.409 84.4394 261.753 89.8094 262.163 95.1512C261.861 96.0224 261.309 96.7852 260.575 97.3439C259.841 97.9027 258.959 98.2326 258.039 98.2924C257.119 98.3522 256.202 98.1392 255.402 97.68C254.602 97.2209 253.956 96.536 253.543 95.7112C253.324 92.338 252.597 90.8059 251.425 89.7438L251.129 89.4863L250.917 89.3189C250.775 89.2159 250.621 89.1193 250.479 89.0099L250.157 88.8103L249.823 88.5979C248.934 88.0507 247.891 87.4907 246.72 86.6152C244.859 85.2183 243.551 83.2101 243.025 80.9438C242.98 80.8151 242.947 80.6863 242.915 80.5576C242.918 80.519 242.918 80.4803 242.915 80.4417C242.915 80.4031 242.915 80.358 242.883 80.313C242.851 80.2679 242.883 80.1649 242.838 80.0877C242.836 80.0534 242.836 80.019 242.838 79.9847C242.194 77.0685 242.143 73.1031 242.838 67.5605C243.54 61.8183 257.077 58.4902 261.442 65.3846C263.148 68.2107 264.094 79.3538 264.094 79.3538Z" fill="#EB9C73"/>
<path d="M241.866 70.9594C242.422 70.5913 242.893 70.1095 243.25 69.5458C243.606 68.9821 243.838 68.3494 243.932 67.6892C245.912 68.5752 248.078 68.9605 250.242 68.8112C252.405 68.6618 254.498 67.9825 256.337 66.8331C256.122 67.3299 256.046 67.8755 256.116 68.4122C256.186 68.9489 256.4 69.4567 256.735 69.8816C257.07 70.3066 257.514 70.633 258.02 70.8261C258.526 71.0192 259.074 71.072 259.607 70.9787C259.317 71.6334 259.218 72.3568 259.321 73.0655C259.425 73.7741 259.727 74.4388 260.193 74.9828C261.197 76.1158 262.768 76.5213 264.255 76.869C264.422 73.7018 264.525 70.3801 263.393 67.4124C262.26 64.4448 260.039 61.7926 257.052 60.7175C254.811 59.9193 252.346 60.0738 249.971 60.4214C247.872 60.7497 245.728 61.2905 244.087 62.6359C242.92 63.6374 242.084 64.9683 241.688 66.4538C241.291 67.9393 241.353 69.5099 241.866 70.9594Z" fill="#421F09"/>
<path d="M249.198 78.4461C248.994 78.3631 248.775 78.3237 248.554 78.3303C248.349 78.3272 248.149 78.3954 247.988 78.5234C247.909 78.5939 247.846 78.6816 247.806 78.7797C247.766 78.8779 247.749 78.984 247.756 79.0899C247.768 79.2949 247.83 79.4939 247.936 79.6692C247.957 79.7194 247.995 79.7599 248.044 79.7826C248.093 79.8054 248.149 79.8086 248.2 79.7915C248.253 79.7726 248.296 79.7336 248.32 79.6829C248.345 79.6322 248.348 79.5741 248.329 79.5212C248.247 79.395 248.194 79.252 248.175 79.1027C248.163 79.0247 248.179 78.9451 248.22 78.8774C248.24 78.8443 248.267 78.8162 248.299 78.795C248.331 78.7738 248.368 78.7602 248.406 78.7551H248.451H248.664C248.79 78.7724 248.915 78.8004 249.037 78.8388C249.084 78.8542 249.135 78.8515 249.181 78.8313C249.226 78.811 249.262 78.7747 249.282 78.7294C249.295 78.7054 249.304 78.6789 249.307 78.6515C249.31 78.6242 249.308 78.5965 249.3 78.5701C249.292 78.5437 249.279 78.5191 249.261 78.4978C249.244 78.4765 249.222 78.4589 249.198 78.4461Z" fill="#C16B5B"/>
<path d="M244.125 73.676C244.634 73.3294 245.219 73.1118 245.83 73.0423C246.442 72.9727 247.061 73.0533 247.634 73.2769C247.779 73.3319 247.897 73.4416 247.962 73.5824C248.027 73.7233 248.034 73.884 247.981 74.0301C247.945 74.1085 247.893 74.1787 247.829 74.2366C247.765 74.2946 247.69 74.339 247.608 74.3672C247.526 74.3954 247.44 74.4069 247.353 74.401C247.267 74.395 247.183 74.3718 247.106 74.3326C246.794 74.2235 246.465 74.1711 246.134 74.1781C245.712 74.1977 245.301 74.3192 244.937 74.5322L244.859 74.5772C244.739 74.6763 244.584 74.7234 244.429 74.7083C244.274 74.6932 244.131 74.6171 244.032 74.4968C243.933 74.3764 243.886 74.2216 243.901 74.0665C243.916 73.9114 243.992 73.7686 244.113 73.6696L244.125 73.676Z" fill="#421F09"/>
<path d="M251.187 73.058C251.734 72.7744 252.342 72.629 252.958 72.6346C253.574 72.6402 254.18 72.7967 254.721 73.0902C254.79 73.1261 254.851 73.1752 254.9 73.2346C254.95 73.294 254.987 73.3626 255.01 73.4364C255.033 73.5102 255.041 73.5878 255.034 73.6649C255.027 73.7419 255.005 73.8168 254.969 73.8852C254.933 73.9537 254.884 74.0144 254.825 74.0639C254.765 74.1135 254.697 74.1508 254.623 74.1738C254.549 74.1968 254.472 74.2051 254.395 74.1981C254.318 74.1911 254.243 74.169 254.174 74.1331C254.058 74.0687 253.949 74.0172 253.833 73.9657H253.775C253.731 73.9499 253.686 73.937 253.64 73.9271C253.518 73.8915 253.393 73.8656 253.267 73.8498C253.267 73.8498 253.035 73.8048 253.189 73.8498C253.136 73.8431 253.082 73.8431 253.028 73.8498C252.911 73.8402 252.792 73.8402 252.674 73.8498H252.488H252.449C252.333 73.8752 252.219 73.9074 252.108 73.9464L251.934 74.0108L251.863 74.0429C251.731 74.1227 251.574 74.1492 251.423 74.1169C251.272 74.0846 251.14 73.996 251.052 73.8691C250.967 73.7422 250.933 73.5875 250.958 73.4367C250.983 73.2859 251.065 73.1504 251.187 73.058Z" fill="#421F09"/>
<path d="M253.846 76.8046C253.877 77.0553 253.808 77.3082 253.654 77.5083C253.499 77.7084 253.272 77.8395 253.022 77.8732C252.835 77.897 252.645 77.865 252.477 77.7811C252.308 77.6973 252.168 77.5653 252.075 77.4019C251.981 77.2385 251.938 77.0511 251.951 76.8632C251.964 76.6753 252.032 76.4955 252.147 76.3464C252.262 76.1972 252.418 76.0855 252.597 76.0253C252.775 75.9652 252.967 75.9592 253.149 76.0083C253.331 76.0573 253.494 76.1591 253.618 76.3008C253.742 76.4426 253.822 76.6179 253.846 76.8046Z" fill="black"/>
<path d="M252.809 76.6372C252.815 76.6912 252.805 76.7457 252.78 76.7939C252.755 76.842 252.716 76.8818 252.669 76.9083C252.622 76.9347 252.567 76.9466 252.513 76.9425C252.459 76.9384 252.407 76.9185 252.365 76.8852C252.322 76.8519 252.289 76.8068 252.272 76.7554C252.255 76.704 252.253 76.6486 252.266 76.5961C252.28 76.5436 252.309 76.4963 252.35 76.4602C252.39 76.424 252.44 76.4005 252.494 76.3926C252.531 76.3872 252.568 76.3893 252.605 76.3988C252.641 76.4082 252.674 76.4249 252.704 76.4477C252.733 76.4706 252.758 76.4991 252.776 76.5317C252.794 76.5643 252.806 76.6001 252.809 76.6372Z" fill="white"/>
<path d="M246.926 77.2745C246.95 77.4613 246.917 77.651 246.834 77.8196C246.75 77.9882 246.618 78.1281 246.454 78.2218C246.291 78.3154 246.104 78.3586 245.916 78.3457C245.728 78.3329 245.548 78.2647 245.399 78.1497C245.25 78.0347 245.138 77.8781 245.078 77.6997C245.018 77.5212 245.012 77.329 245.061 77.1472C245.11 76.9653 245.212 76.8021 245.353 76.6781C245.495 76.5542 245.67 76.475 245.857 76.4505C246.108 76.4195 246.361 76.4886 246.561 76.6428C246.761 76.7971 246.892 77.0241 246.926 77.2745Z" fill="black"/>
<path d="M245.883 77.1007C245.888 77.1367 245.886 77.1735 245.877 77.2088C245.868 77.2441 245.852 77.2771 245.83 77.306C245.807 77.3348 245.779 77.3589 245.748 77.3767C245.716 77.3945 245.681 77.4058 245.645 77.4097C245.575 77.4129 245.507 77.3899 245.454 77.3453C245.401 77.3006 245.366 77.2376 245.357 77.1687C245.348 77.0998 245.366 77.0301 245.406 76.9734C245.446 76.9166 245.506 76.8771 245.574 76.8625C245.61 76.8571 245.647 76.859 245.682 76.8682C245.717 76.8773 245.75 76.8935 245.779 76.9158C245.808 76.938 245.832 76.9659 245.85 76.9976C245.868 77.0294 245.879 77.0645 245.883 77.1007Z" fill="white"/>
<path d="M251.927 80.8344C251.638 80.4482 250.975 80.9245 250.157 81.0468C249.34 81.1691 248.567 80.9116 248.4 81.3623C248.194 81.9416 249.102 83.1519 250.44 82.9523C251.779 82.7527 252.294 81.3236 251.927 80.8344Z" fill="#8E4136"/>
<path d="M251.966 81.7292C251.688 81.7347 251.411 81.7583 251.136 81.8C250.382 81.8678 249.662 82.1442 249.056 82.5982C249.255 82.7477 249.481 82.856 249.722 82.9168C249.963 82.9776 250.214 82.9897 250.46 82.9523C250.798 82.9034 251.116 82.7638 251.382 82.5485C251.647 82.3331 251.849 82.05 251.966 81.7292Z" fill="#C15353"/>
<path d="M250.222 81.5039C250.956 81.3944 251.554 81.1305 251.722 80.6992C251.374 80.6155 250.82 80.9438 250.157 81.0468C249.494 81.1498 248.87 80.9953 248.561 81.1756C248.79 81.3611 249.061 81.488 249.351 81.5452C249.64 81.6024 249.939 81.5882 250.222 81.5039Z" fill="white"/>
<path d="M267.107 79.4117C266.025 80.8859 264.197 81.388 263.026 80.5254C261.854 79.6628 261.783 77.7702 262.865 76.296C263.946 74.8219 265.781 74.3197 266.952 75.1824C268.124 76.045 268.195 77.9376 267.107 79.4117Z" fill="#EB9C73"/>
<path d="M266.231 75.9355C265.942 75.8241 265.632 75.7795 265.323 75.8051C265.014 75.8308 264.715 75.926 264.448 76.0836C264.187 76.2149 263.965 76.4124 263.805 76.6565C263.715 76.7943 263.66 76.9521 263.645 77.116C263.631 77.2799 263.657 77.4449 263.721 77.5964C263.844 77.821 264.024 78.0096 264.242 78.1436C264.377 78.2259 264.497 78.3304 264.596 78.4526C264.662 78.5463 264.694 78.6589 264.689 78.773C264.684 78.8871 264.642 78.9964 264.569 79.0841C264.496 79.1719 264.396 79.2332 264.285 79.2586C264.173 79.2841 264.057 79.2723 263.953 79.225C263.925 79.2136 263.895 79.2079 263.865 79.2082C263.835 79.2086 263.805 79.2149 263.777 79.2269C263.75 79.2389 263.725 79.2563 263.704 79.2781C263.683 79.2999 263.667 79.3256 263.657 79.3538C263.635 79.4102 263.637 79.4727 263.661 79.528C263.685 79.5833 263.729 79.627 263.785 79.6499C263.914 79.6998 264.053 79.7218 264.191 79.7143C264.364 79.7066 264.532 79.6528 264.677 79.5585C264.822 79.4642 264.94 79.3328 265.017 79.1779C265.095 79.023 265.129 78.8502 265.118 78.6774C265.106 78.5046 265.048 78.3381 264.95 78.1951C264.821 78.0268 264.664 77.881 264.487 77.7638C264.333 77.6781 264.205 77.5539 264.114 77.4033C264.08 77.3214 264.068 77.2325 264.078 77.1448C264.089 77.0571 264.121 76.9733 264.171 76.9011C264.214 76.8302 264.269 76.7671 264.332 76.7145C264.562 76.6918 264.792 76.7561 264.976 76.8947C265.061 76.9778 265.127 77.0784 265.17 77.1896C265.212 77.3008 265.229 77.4198 265.221 77.5385C265.215 77.5989 265.234 77.6591 265.272 77.7061C265.311 77.753 265.366 77.783 265.427 77.7895H265.465C265.52 77.7866 265.571 77.7641 265.61 77.7263C265.649 77.6884 265.673 77.6377 265.678 77.5835C265.695 77.3934 265.67 77.2018 265.605 77.0225C265.539 76.8433 265.434 76.6809 265.298 76.5471C265.195 76.4501 265.072 76.3775 264.938 76.3346C265.275 76.2022 265.65 76.2022 265.987 76.3346C266.185 76.4177 266.347 76.5697 266.441 76.7627C266.536 76.9556 266.557 77.1763 266.502 77.3839C266.481 77.4421 266.483 77.5061 266.508 77.5626C266.533 77.6191 266.58 77.6635 266.637 77.6865C266.665 77.6978 266.696 77.7032 266.726 77.7024C266.756 77.7017 266.786 77.6948 266.814 77.6821C266.842 77.6695 266.866 77.6514 266.887 77.6289C266.907 77.6064 266.923 77.58 266.933 77.5513C267.03 77.2426 267.012 76.9094 266.883 76.6126C266.755 76.3159 266.523 76.0755 266.231 75.9355Z" fill="#C16B5B"/>
<path d="M226.493 147.365H73.8498V153.294H226.493V147.365Z" fill="#DA9604"/>
<path d="M223.307 153.294H77.0363V155.064H223.307V153.294Z" fill="#9C4803"/>
<path d="M79.8881 155.064L72.337 253.164H75.5235L88.1022 155.064H79.8881Z" fill="#DE6300"/>
<path d="M95.6533 155.064L88.1022 253.164H91.2887L103.874 155.064H95.6533Z" fill="#9C4803"/>
<path d="M220.449 155.064L228 253.164H224.813L212.228 155.064H220.449Z" fill="#DE6300"/>
<path d="M204.683 155.064L212.228 253.164H209.042L196.463 155.064H204.683Z" fill="#9C4803"/>
<path d="M174.363 143.953H162.943V147.365H174.363V143.953Z" fill="#AB2A15"/>
<path d="M156.229 134.748C156.247 134.537 156.316 134.333 156.431 134.156C156.547 133.978 156.704 133.831 156.889 133.729C157.074 133.626 157.282 133.571 157.493 133.568C157.705 133.565 157.914 133.614 158.102 133.711C158.138 133.625 158.191 133.548 158.259 133.484C158.326 133.421 158.407 133.373 158.495 133.344C158.583 133.314 158.676 133.304 158.769 133.314C158.861 133.325 158.95 133.354 159.029 133.402C158.94 132.836 159.042 132.256 159.319 131.754C159.46 131.505 159.665 131.299 159.913 131.157C160.161 131.016 160.443 130.944 160.729 130.95C161.013 130.97 161.279 131.094 161.478 131.298C161.676 131.502 161.792 131.772 161.804 132.057C162.19 131.829 162.649 131.756 163.086 131.854C163.524 131.952 163.908 132.214 164.16 132.585C165.815 133.152 167.562 133.405 169.31 133.331C169.441 132.984 169.669 132.683 169.967 132.462C170.265 132.241 170.62 132.111 170.99 132.086C171.36 132.062 171.729 132.144 172.053 132.324C172.377 132.504 172.643 132.773 172.818 133.1C172.918 132.867 173.099 132.678 173.328 132.569C173.557 132.46 173.817 132.438 174.061 132.507C174.092 132.202 174.186 131.907 174.335 131.639C174.485 131.372 174.687 131.137 174.931 130.951C175.174 130.764 175.453 130.629 175.75 130.554C176.048 130.479 176.357 130.465 176.66 130.514C176.963 130.563 177.252 130.673 177.511 130.837C177.77 131.002 177.992 131.217 178.165 131.471C178.337 131.724 178.456 132.01 178.514 132.312C178.572 132.613 178.568 132.922 178.503 133.222C178.738 133.162 178.985 133.163 179.22 133.224C179.455 133.285 179.671 133.403 179.848 133.57C180.02 133.742 180.145 133.956 180.211 134.19C180.277 134.424 180.283 134.671 180.228 134.909C179.294 135.611 178.175 136.027 177.009 136.106C170.754 136.907 164.422 136.907 158.167 136.106C157.739 136.071 157.32 135.969 156.924 135.803C156.719 135.714 156.544 135.566 156.42 135.379C156.297 135.191 156.23 134.972 156.229 134.748Z" fill="white"/>
<path d="M155.47 134.245C155.47 140.683 161.373 145.891 168.653 145.891C175.934 145.891 181.844 140.676 181.844 134.245H155.47Z" fill="#D9442B"/>
<path d="M147.468 145.26H108.18V147.365H147.468V145.26Z" fill="#9C4803"/>
<path d="M106.481 135.565C106.563 135.101 106.823 134.688 107.205 134.412C107.587 134.137 108.062 134.022 108.528 134.091C108.514 133.972 108.526 133.851 108.563 133.737C108.6 133.623 108.661 133.518 108.743 133.43C108.824 133.342 108.924 133.273 109.034 133.227C109.145 133.181 109.264 133.159 109.384 133.164C109.309 132.642 109.404 132.11 109.654 131.646C109.905 131.182 110.298 130.81 110.775 130.587C111.253 130.363 111.79 130.299 112.307 130.404C112.823 130.508 113.293 130.776 113.646 131.168C113.927 131.025 114.25 130.986 114.558 131.058C114.865 131.13 115.137 131.308 115.326 131.561C115.524 130.969 115.889 130.447 116.378 130.059C116.867 129.671 117.458 129.434 118.08 129.376C118.701 129.318 119.326 129.442 119.879 129.733C120.431 130.024 120.887 130.469 121.19 131.014C121.49 130.914 121.807 130.88 122.121 130.914C122.435 130.949 122.738 131.051 123.008 131.214C123.279 131.376 123.511 131.596 123.688 131.857C123.865 132.118 123.984 132.415 124.036 132.726C124.272 132.577 124.539 132.482 124.817 132.449C125.095 132.416 125.377 132.445 125.641 132.536C125.906 132.626 126.148 132.774 126.348 132.97C126.548 133.165 126.701 133.403 126.797 133.666C127.262 133.496 127.76 133.443 128.25 133.512C128.739 133.58 129.204 133.768 129.604 134.059C130.105 133.746 130.698 133.615 131.284 133.688C131.87 133.761 132.413 134.032 132.823 134.458C132.996 134.306 133.208 134.205 133.436 134.167C133.663 134.128 133.896 134.153 134.11 134.239C134.24 134.075 134.408 133.946 134.599 133.862C134.791 133.777 135 133.741 135.208 133.755C135.417 133.77 135.619 133.835 135.796 133.945C135.974 134.055 136.122 134.207 136.228 134.387C136.792 133.855 137.531 133.548 138.306 133.524C139.08 133.501 139.837 133.762 140.432 134.258C140.906 134.073 141.43 134.063 141.911 134.23C142.392 134.398 142.796 134.732 143.052 135.172C141.906 136.193 140.492 136.863 138.977 137.104C137.47 137.335 135.942 137.413 134.419 137.335C125.014 137.155 115.777 136.808 106.481 135.565Z" fill="#AB2A15"/>
<path d="M150.551 134.87H105.091V146.309H150.551V134.87Z" fill="#DA9604"/>
<path d="M150.551 138.745H105.091V142.434H150.551V138.745Z" fill="#9C4803"/>
<path d="M188.152 136.782C190.611 136.582 195.929 144.153 194.667 146.065C193.405 147.976 185.873 147.616 184.444 146.065C183.015 144.513 186.601 136.904 188.152 136.782Z" fill="#568203"/>
<path d="M193.92 141.938C193.515 142.17 193.054 142.286 192.588 142.273C192.977 142.112 193.352 141.918 193.708 141.694C193.869 141.591 193.708 141.339 193.566 141.442C193.003 141.79 192.4 142.069 191.77 142.273C191.352 142.273 190.933 142.234 190.521 142.183C189.335 142.034 188.175 141.727 187.071 141.269C186.447 141.011 185.845 140.705 185.268 140.355C185.236 140.342 185.2 140.342 185.167 140.354C185.135 140.365 185.107 140.388 185.089 140.418C185.072 140.448 185.065 140.483 185.071 140.518C185.076 140.552 185.094 140.583 185.12 140.606C186.874 141.663 188.843 142.312 190.882 142.505C189.448 142.795 187.97 142.795 186.536 142.505C185.834 142.361 185.141 142.172 184.464 141.938C184.283 141.874 184.213 142.157 184.386 142.215C186.763 143.131 189.371 143.262 191.828 142.588H192.163C192.831 142.65 193.503 142.514 194.094 142.196C194.223 142.086 194.075 141.835 193.92 141.938Z" fill="#F1F2CE"/>
<path d="M197.66 135.874C199.92 136.853 201.085 146.032 199.076 147.133C197.068 148.234 190.573 144.384 190.064 142.35C189.556 140.316 196.231 135.263 197.66 135.874Z" fill="#93A603"/>
<path d="M200.345 143.129C199.877 143.151 199.413 143.039 199.006 142.807C199.434 142.84 199.865 142.84 200.293 142.807C200.48 142.807 200.467 142.505 200.293 142.524C199.632 142.568 198.969 142.532 198.317 142.415C197.956 142.209 197.596 141.99 197.255 141.771C196.276 141.087 195.394 140.272 194.635 139.35C194.204 138.83 193.814 138.277 193.47 137.696C193.373 137.535 193.128 137.696 193.225 137.85C194.276 139.608 195.711 141.104 197.422 142.228C196.023 141.803 194.723 141.102 193.598 140.168C193.045 139.714 192.522 139.224 192.034 138.7C191.905 138.565 191.706 138.771 191.834 138.906C193.503 140.83 195.747 142.166 198.233 142.717C198.33 142.775 198.426 142.833 198.529 142.884C199.082 143.247 199.729 143.437 200.39 143.432C200.43 143.426 200.466 143.404 200.49 143.371C200.514 143.339 200.524 143.298 200.518 143.258C200.513 143.218 200.491 143.182 200.458 143.157C200.426 143.133 200.385 143.123 200.345 143.129Z" fill="#F1F2CE"/>
<path d="M184.225 213.548C183.411 212.087 182.286 210.823 180.93 209.845C179.575 208.866 178.021 208.196 176.378 207.883C175.149 207.658 173.887 207.638 172.664 207.387C171.408 207.209 170.262 206.574 169.445 205.604C168.216 203.93 168.724 201.581 169.445 199.637C170.166 197.692 171.087 195.607 170.494 193.611C169.793 191.261 167.276 190.006 165.068 188.983C162.86 187.959 160.362 186.62 159.789 184.232C159.384 182.558 160.059 180.807 160.98 179.352C161.901 177.897 163.066 176.597 163.825 175.052C164.585 173.507 164.875 171.576 163.973 170.108C164.9 171.924 166.857 172.754 168.834 173.237C170.81 173.72 172.889 173.803 174.84 174.383C176.79 174.962 178.702 176.198 179.346 178.136C179.887 179.739 179.449 181.483 179.088 183.144C178.728 184.805 178.483 186.633 179.333 188.101C180.183 189.568 181.959 190.283 183.627 190.676C185.294 191.068 187.071 191.364 188.448 192.394C190.547 193.952 191.184 196.901 190.708 199.476C190.231 202.051 188.847 204.349 187.554 206.621C186.26 208.894 184.412 210.934 184.225 213.548Z" fill="#93A603"/>
<path d="M182.835 203.241C181.01 196.752 178.346 190.528 174.911 184.728C172.966 181.455 170.78 178.333 168.37 175.387C168.106 175.065 167.656 175.522 167.913 175.837C172.153 181.035 175.685 186.771 178.419 192.897C181.14 199.003 183.057 205.436 184.122 212.035C184.721 215.761 185.037 219.527 185.069 223.3C185.069 223.386 185.103 223.468 185.163 223.528C185.223 223.588 185.305 223.622 185.391 223.622C185.476 223.622 185.558 223.588 185.618 223.528C185.679 223.468 185.712 223.386 185.712 223.3C185.649 216.516 184.681 209.77 182.835 203.241Z" fill="#F1F2CE"/>
<path d="M192.234 215.337C193.682 213.754 195.896 213.136 198.027 212.84C200.158 212.544 202.347 212.492 204.355 211.739C206.364 210.986 208.218 209.331 208.424 207.194C208.662 204.619 206.428 202.186 206.866 199.617C207.162 197.879 208.636 196.559 210.213 195.755C211.79 194.95 213.535 194.564 215.131 193.824C216.728 193.083 218.234 191.822 218.627 190.103C218.851 188.707 218.58 187.277 217.861 186.06C217.217 184.811 216.387 183.665 215.84 182.378C215.339 181.192 215.086 179.915 215.097 178.628C215.108 177.34 215.383 176.069 215.904 174.891C214.616 176.455 212.305 177.402 210.342 177.91C208.379 178.419 206.325 178.721 204.49 179.597C202.656 180.472 201.001 182.069 200.757 184.103C200.467 186.453 202.102 188.938 201.124 191.088C200.49 192.23 199.43 193.074 198.175 193.437C196.965 193.875 195.671 194.081 194.493 194.609C193.252 195.178 192.181 196.06 191.384 197.168C190.587 198.276 190.092 199.573 189.948 200.93C189.723 203.383 190.669 205.771 191.422 208.121C192.176 210.471 193.212 213.052 192.234 215.337Z" fill="#93A603"/>
<path d="M212.273 179.526C204.713 188.767 198.565 199.078 194.03 210.123C192.742 213.252 191.588 216.427 190.566 219.65C190.444 220.05 191.062 220.217 191.21 219.824C194.786 208.516 200.016 197.8 206.731 188.023C208.627 185.255 210.64 182.573 212.769 179.977C212.988 179.661 212.537 179.204 212.273 179.526Z" fill="#F1F2CE"/>
<path d="M187.953 209.615C188.136 207.878 187.968 206.122 187.458 204.452C186.948 202.782 186.107 201.232 184.985 199.894C184.142 198.903 183.15 198.04 182.346 197.017C181.48 196.026 180.996 194.759 180.981 193.444C181.09 191.242 183.047 189.646 184.843 188.403C186.639 187.161 188.706 185.719 189.034 183.543C189.601 180.022 185.449 177.144 185.738 173.591C185.88 171.859 187.077 170.372 188.468 169.342C189.858 168.312 191.448 167.578 192.884 166.606C194.319 165.634 195.632 164.295 196.012 162.602C195.562 164.392 196.74 166.317 198.04 167.63C199.34 168.943 200.956 169.889 202.315 171.145C203.673 172.4 204.78 174.144 204.568 175.979C204.355 177.814 202.965 179.198 201.748 180.524C200.531 181.85 199.366 183.588 199.759 185.358C200.3 187.811 203.37 188.732 204.748 190.83C206.035 192.761 205.572 195.497 204.194 197.383C202.817 199.27 200.699 200.467 198.568 201.42C196.437 202.372 194.203 203.145 192.266 204.452C190.328 205.759 188.236 207.297 187.953 209.615Z" fill="#568203"/>
<path d="M195.143 168.254C195.143 167.842 194.5 167.842 194.5 168.254C194.751 175.586 194.22 182.923 192.916 190.141C192.272 193.682 191.429 197.171 190.457 200.634C189.485 204.098 188.487 207.445 187.734 210.934C186.819 214.781 186.48 218.743 186.73 222.689C186.73 223.094 187.373 223.101 187.373 222.689C186.775 215.53 188.893 208.578 190.811 201.774C191.783 198.317 192.678 194.847 193.386 191.319C194.836 183.739 195.436 176.02 195.175 168.306L195.143 168.254Z" fill="#F1F2CE"/>
<path d="M200.37 232.879C200.371 234.667 200.261 236.454 200.042 238.229C200.042 238.448 199.991 238.66 199.958 238.872C199.083 245.078 196.894 250.234 193.997 253.164H182.964C179.842 250.003 177.531 244.248 176.822 237.379C176.822 237.167 176.777 236.954 176.765 236.735C176.655 235.531 176.604 234.295 176.597 233.04V232.396C176.612 230.022 176.827 227.653 177.241 225.315C177.28 225.096 177.318 224.884 177.363 224.672C177.907 221.752 178.885 218.931 180.266 216.303H196.656C198.131 219.13 199.152 222.171 199.682 225.315C199.72 225.528 199.759 225.74 199.791 225.959C200.097 227.809 200.278 229.678 200.332 231.553C200.332 231.766 200.332 231.978 200.332 232.197C200.332 232.416 200.37 232.648 200.37 232.879Z" fill="#D9442B"/>
<path d="M199.823 225.927L197.654 225.863L177.292 225.283C177.331 225.064 177.37 224.852 177.415 224.639L179.346 224.697L199.759 225.277C199.74 225.515 199.778 225.727 199.823 225.927Z" fill="#AB2A15"/>
<path d="M200.364 232.178L196.534 232.319L176.578 233.047V232.403L200.332 231.534C200.358 231.753 200.358 231.965 200.364 232.178Z" fill="#AB2A15"/>
<path d="M200.042 238.229C200.042 238.448 199.991 238.66 199.958 238.872C198.671 238.827 197.383 238.769 196.096 238.712C189.659 238.407 183.243 237.963 176.848 237.379C176.848 237.167 176.803 236.954 176.79 236.735C184.515 237.439 192.266 237.937 200.042 238.229Z" fill="#AB2A15"/>
</g>
<defs>
<clipPath id="clip0_127_3315">
<rect width="298" height="253.164" fill="white"/>
</clipPath>
</defs>
</svg>
