<svg width="307" height="284" viewBox="0 0 307 284" fill="none" xmlns="http://www.w3.org/2000/svg">
<g clip-path="url(#clip0_127_4800)">
<path d="M166.412 139.374C166.228 139.593 166.084 139.948 165.864 140.005C160.299 141.381 154.712 142.635 149.168 144.094C143.91 145.466 138.55 146.495 133.393 148.288C131.741 148.862 129.887 148.77 128.134 149.309C123.883 150.623 119.479 151.364 115.211 152.674C112.03 153.656 108.717 154.208 105.478 155.014C102.538 155.75 99.6282 156.596 96.6922 157.35C94.6063 157.889 92.4371 157.928 90.338 158.559C87.1435 159.523 83.8656 160.203 80.6141 160.97C78.5895 161.447 76.5124 161.43 74.4791 162.021C69.9129 163.336 65.224 164.243 60.5789 165.286C56.7489 166.162 52.9233 167.039 49.0757 167.779C46.1309 168.367 43.3089 169.563 40.2457 169.589C37.3316 169.616 36.1265 168.275 35.5042 164.331C35.2369 162.635 36.4902 160.825 38.598 160.26C43.0897 159.05 47.6033 157.924 52.1301 156.85C56.9504 155.711 61.7314 154.502 66.5912 153.629C71.9111 152.67 77.0646 151.053 82.3976 150.124C88.2171 149.103 93.9095 147.385 99.6896 146.11C100.184 146.016 100.639 145.778 100.997 145.426C101.355 145.073 101.6 144.621 101.701 144.129C101.892 143.11 101.854 142.062 101.591 141.06C101.328 140.057 100.847 139.125 100.18 138.331C99.0367 136.912 97.4372 137.718 95.8552 138.16C93.3267 138.87 90.7544 139.475 88.1908 140.075C82.5422 141.39 76.8366 142.525 71.1705 143.792C67.4325 144.624 63.7208 145.593 59.996 146.421C58.471 146.767 57.0425 146.263 56.2931 144.931C53.7821 140.479 53.9399 136.96 60.1407 135.934C65.6359 135.023 70.969 133.489 76.3546 132.201C77.8358 131.846 79.3608 131.907 80.8376 131.346C83.3704 130.387 84.3783 128.905 83.9051 126.197C83.2784 122.718 81.6351 121.013 78.8831 121.337C77.0908 121.548 75.3774 122.288 73.5763 122.551C69.8339 123.103 66.3152 124.742 62.4764 124.812C63.0329 119.738 65.1977 115.321 68.3967 111.478C73.0374 105.917 78.9357 102.599 86.3021 101.924C87.5729 101.811 89.3083 101.719 90.246 100.29C92.2005 100.811 93.9095 99.7071 95.7369 99.4135C98.5081 99.0053 101.192 98.1374 103.677 96.8456C105.667 96.8017 107.464 95.899 109.374 95.5309C110.815 95.4732 112.249 95.3047 113.664 95.027C116.272 94.4792 118.726 93.4844 121.294 92.8622C124.361 92.5554 127.223 91.3109 130.308 90.8552C134.48 90.2373 138.502 88.6641 142.626 87.6255C148.161 86.2408 153.73 84.9962 159.278 83.6816C162.46 82.4327 165.9 82.1128 169.116 81.0172C170.374 80.579 171.82 80.4958 172.845 79.4659C174.598 79.7289 175.978 78.4361 177.666 78.4449C181.788 78.1935 185.826 77.1615 189.563 75.4037C190.12 75.2766 190.589 75.6885 191.241 75.4607C195.816 73.8568 200.624 73.1337 205.295 71.8804C208.976 70.8945 212.71 70.0881 216.373 69.0277C220.037 67.9672 223.726 66.8366 227.583 66.578C228.459 66.578 228.985 65.763 229.94 65.6753C232.688 65.4255 235.23 64.1328 238.008 63.8918C238.674 63.8348 238.564 63.1512 238.661 62.6779C241.201 62.4474 243.696 61.8572 246.071 60.9251C250.392 61.2362 254.314 59.7024 258.262 58.2958C258.912 58.2777 259.559 58.1985 260.195 58.0591C262.57 57.3186 264.901 56.3983 267.452 56.4903C268.534 56.6612 268.328 57.1257 267.811 57.805C265.909 60.1845 264.305 62.897 262.114 64.9303C256.855 69.7507 252.912 75.8025 247.46 80.4958C244.042 83.4449 241.036 86.9025 237.679 89.9656C232.171 94.9875 226.632 99.9613 220.852 104.672C212.67 111.342 203.902 117.166 194.997 122.792C191.802 124.812 188.45 126.6 185.106 128.38C180.14 131.026 175.141 133.612 170.111 136.136C168.108 137.139 165.983 137.889 163.914 138.765C163.914 138.914 163.949 139.059 163.971 139.203L166.412 139.374Z" fill="#D8A859"/>
<path d="M120.974 283.49C105.636 283.49 92.0515 284.042 78.5062 283.293C69.5053 282.793 60.4825 283.074 51.5079 282.158C47.0381 281.72 43.0416 280.006 39.3825 277.46C37.6296 276.238 37.6296 273.692 39.5665 272.272C42.8443 269.879 46.6174 268.648 50.5526 267.622C54.2511 266.663 58.1205 266.597 61.7139 265.208C62.2924 264.98 63.0285 265.107 63.6683 265.09C72.4326 264.848 81.175 264.327 89.9218 263.95C94.4135 263.757 99.0893 264.178 103.463 263.196C108.686 262.026 113.954 263.328 118.997 262.32C124.37 261.246 129.777 262.443 134.97 261.444C141.719 260.129 148.454 261.391 155.128 260.642C163.117 259.739 171.171 260.466 179.094 259.664C188.376 258.727 197.666 258.928 206.934 258.266C210.979 257.977 215.054 258.267 219.108 258.056C238.867 257.118 258.635 257.85 278.398 257.675C283.253 257.702 288.083 258.361 292.767 259.634C295.957 260.449 299.205 260.887 302.22 262.408C304.143 263.376 305.156 264.971 305.953 266.676C306.751 268.381 304.371 271.277 301.799 271.597C299.192 271.985 296.616 272.558 294.091 273.31C292.338 273.788 290.401 273.841 288.622 274.038C285.852 274.345 283.197 275.423 280.339 275.195C276.523 274.892 272.763 275.948 268.99 276.299C266.308 276.553 263.473 276.299 260.905 277.013C256.672 278.179 252.302 277.013 248.231 277.956C244.086 278.911 239.905 277.89 235.961 278.797C231.478 279.822 226.921 278.762 222.627 279.713C218.612 280.589 214.66 279.901 210.751 280.471C201.316 281.847 191.811 281.759 182.333 282.285C178.989 282.469 175.641 282.373 172.311 282.631C154.637 283.994 136.947 283.341 120.974 283.49Z" fill="#ECEFF1"/>
<path d="M191.25 197.157C191.215 197.275 191.202 197.398 191.211 197.521C190.492 197.718 190.334 198.262 190.374 198.91C190.323 199.016 190.303 199.135 190.317 199.252C189.611 199.458 189.44 199.98 189.48 200.641C188.327 201.158 188.095 202.263 187.78 203.314C187.714 203.538 187.653 203.753 187.591 203.98C186.122 205.126 185.138 206.783 184.835 208.621C184.782 208.88 184.725 209.143 184.673 209.401C183.752 209.467 183.796 210.124 183.836 210.768C183.082 210.917 182.872 211.399 182.999 212.083V212.114C181.014 212.372 179.585 211.193 178.113 210.177C176.728 209.213 175.523 207.946 173.73 207.727H173.7C173.595 207.267 173.424 206.877 172.823 206.925C171.969 206.732 171.408 206.049 170.632 205.663C168.056 204.419 170.032 202.46 170.536 201.307C173.205 195.22 175.672 189.037 178.235 182.902C180.523 177.429 183.183 172.008 184.567 166.206C186.631 157.569 188.314 148.844 188.744 139.935C188.84 137.981 189.094 136.031 189.278 134.081C194.353 132.302 199.703 131.587 204.866 130.137C208.582 129.089 212.403 128.384 216.093 127.284C220.317 126.039 224.673 125.395 228.871 124.041C232.815 122.766 236.895 121.85 240.94 120.904C244.984 119.957 248.893 118.713 253.017 118.305C253.512 124.817 252.18 130.974 249.765 137.021C248.451 140.343 247.815 143.941 246.755 147.376C245.164 152.534 243.586 157.687 241.658 162.749C240.138 166.732 238.819 170.79 237 174.659C234.426 180.123 231.686 185.501 228.779 190.795C225.712 196.377 222.478 201.873 219.454 207.486C217.127 211.803 214.633 216.018 212.215 220.291C211.863 220.996 211.364 221.618 210.751 222.114H210.243C210.008 222.163 209.763 222.129 209.55 222.018C209.338 221.907 209.17 221.726 209.077 221.505L208.389 221.25C208.216 221.296 208.034 221.293 207.863 221.243C207.692 221.192 207.537 221.097 207.416 220.966C206.494 220.249 205.433 219.733 204.3 219.449C202.486 218.661 201.022 217.28 199.151 216.54C198.157 216.15 198.174 215.05 198.713 214.077C202.429 207.136 205.501 199.892 208.748 192.74C211.995 185.589 214.971 178.441 216.08 170.588C216.623 166.754 217.127 162.898 217.797 159.098C218.827 153.218 218.135 147.332 218.674 141.473C218.906 138.844 219.743 136.215 218.889 133.41C212.253 154.432 203.596 174.761 193.038 194.112C192.497 194.416 192.047 194.858 191.733 195.393C191.419 195.928 191.252 196.537 191.25 197.157Z" fill="#5C6983"/>
<path d="M253.026 118.314C248.902 118.726 244.954 119.953 240.948 120.912C236.943 121.872 232.828 122.775 228.88 124.05C224.682 125.404 220.326 126.048 216.101 127.293C212.412 128.375 208.591 129.098 204.874 130.146C199.712 131.6 194.357 132.315 189.287 134.089C186.32 134.791 183.358 135.509 180.387 136.189C178.034 136.728 175.781 137.792 173.279 137.565C171.837 137.911 169.993 136.688 168.976 138.686C168.178 139.125 167.149 138.686 166.412 139.37L163.941 139.177C163.941 139.028 163.901 138.884 163.884 138.739C165.952 137.863 168.078 137.118 170.08 136.11C175.111 133.591 180.109 131.006 185.076 128.353C188.42 126.574 191.772 124.786 194.966 122.766C203.871 117.139 212.64 111.315 220.821 104.646C226.601 99.935 232.14 94.9612 237.649 89.9393C241.005 86.8718 244.012 83.4186 247.43 80.4695C252.877 75.7762 256.812 69.7376 262.083 64.9041C264.301 62.8707 265.887 60.1582 267.78 57.7787C268.319 57.1082 268.503 56.6437 267.421 56.464C267.53 56.1047 267.688 55.7191 268.1 55.6972C272.653 55.4386 277.303 55.1844 281.61 56.762C285.958 58.3424 289.808 61.0512 292.763 64.6104C293.39 65.351 293.968 66.2713 295.033 66.5561C296.029 68.8933 297.025 71.2304 298.022 73.5676C298.788 75.3555 299.099 77.2661 299.485 79.1504C299.717 80.281 299.358 80.9997 298.026 80.934C295.226 80.7894 292.859 82.2048 290.471 83.3091C288.788 84.0847 286.882 84.3915 285.418 85.7193C283.955 87.0471 283.481 88.5721 284.139 90.3687C284.748 92.0383 286.255 91.9989 287.737 92.0997C289.428 92.2136 291.172 91.5651 292.811 92.7132C294.45 93.8613 294.739 95.2373 293.385 96.7842C291.492 98.949 288.696 99.247 286.233 100.215C283.771 101.184 281.163 102.021 278.609 102.845C277.848 103.095 277.191 103.587 276.738 104.247C276.284 104.906 276.059 105.696 276.098 106.495C276.163 107.981 277.386 109.343 279.235 109.584C279.733 109.683 280.224 109.816 280.703 109.983C280.988 110.062 281.347 110.141 281.255 110.5C281.21 110.629 281.137 110.747 281.041 110.844C280.944 110.941 280.828 111.015 280.699 111.061C277.978 111.727 275.239 112.341 272.513 112.998C268.368 113.994 264.223 115.002 260.081 116.022C258.258 116.46 256.452 116.999 254.621 117.407C253.976 117.604 253.306 117.551 253.026 118.314Z" fill="#CC9F56"/>
<path d="M174.725 19.3297C177.302 16.6609 180.759 16.604 184.05 16.4637C191.259 16.157 198.468 16.249 205.615 17.5505C211.333 18.5146 216.73 20.8547 221.343 24.3691C222.578 25.3245 224.169 25.8109 225.089 27.1869C224.739 28.2824 223.674 28.1071 222.898 28.3043C218.989 29.3122 215.037 30.1404 211.154 31.2185C207.587 32.2001 203.985 32.9713 200.391 33.8477C198.866 34.2071 196.811 34.1676 195.979 35.697C193.739 39.8162 191.684 44.045 190.334 48.5674C188.63 50.2896 187.977 52.5113 187.403 54.7725C185.65 55.9645 185.514 58.0285 184.813 59.755C183.739 62.3843 182.534 64.7989 179.554 65.7498C178.431 66.1671 177.337 66.6605 176.281 67.2266C172.105 69.2424 167.924 71.245 163.779 73.3222C162.81 73.8042 161.325 73.4931 160.978 75.0181C158.205 75.4826 155.93 77.0163 153.616 78.4712C151.741 78.8787 150.111 79.8472 148.358 80.6141C147.21 81.1224 146.241 82.1434 144.826 81.9287C144.554 79.3914 142.42 77.7876 141.631 75.5089C141.557 73.5544 143.358 73.1513 144.418 72.1346C146.679 71.3108 148.187 69.3563 150.26 68.2564C153.307 66.4183 156.172 64.2951 158.818 61.9154C162.317 59.905 165.589 57.5234 168.577 54.812C169.589 54.5271 169.944 53.7646 170.264 52.8225C171.307 49.755 172.455 46.7181 173.56 43.6638C173.822 42.9276 174.344 42.0774 173.91 41.4113C173.476 40.7452 172.56 41.1703 171.855 41.1747C171.29 41.2458 170.737 41.3932 170.212 41.6129C168.384 42.1519 166.662 43.1861 164.646 42.9626C164.616 42.3798 164.581 41.8013 164.55 41.2098C164.686 40.9927 164.775 40.7495 164.811 40.4959C164.847 40.2422 164.83 39.9838 164.76 39.7374C165.031 39.5884 165.25 39.3597 165.388 39.0823C165.525 38.8049 165.573 38.4921 165.527 38.1861C165.852 37.6893 166.006 37.1 165.965 36.5077C166.566 36.3675 166.688 36.0125 166.403 35.4823C166.495 35.1843 166.583 34.8907 166.675 34.6059C167.289 34.4788 167.354 33.9222 167.552 33.4753C168.726 30.9161 169.87 30.3727 172.398 31.3718C173.115 31.6905 173.871 31.9116 174.646 32.0292C175.865 32.165 176.399 31.7443 176.342 30.4735C176.285 28.3701 176.246 26.2535 176.373 24.1544C176.5 22.2526 176.211 20.6093 174.725 19.3297Z" fill="#526562"/>
<path d="M164.642 42.9319C166.653 43.1554 168.375 42.1212 170.203 41.5822C170.728 41.3625 171.281 41.2151 171.846 41.144C172.551 41.144 173.481 40.7321 173.901 41.3807C174.322 42.0292 173.814 42.8969 173.551 43.6331C172.46 46.7006 171.298 49.7155 170.255 52.7918C169.935 53.7339 169.58 54.4964 168.564 54.7813C165.496 55.0617 162.6 56.0959 159.655 56.8015C156.71 57.507 153.682 58.0679 150.79 59.1021C146.955 60.4737 142.784 60.5876 138.927 62.0513C138.927 62.8138 140.172 62.6297 140.014 63.4755C136.425 63.1512 133.174 64.3519 129.935 65.6666C129.089 64.1722 127.897 64.7901 126.771 65.1801C125.422 65.6183 124.081 66.4948 122.731 66.4948C119.308 66.5255 116.079 67.5859 112.941 68.5237C107.902 70.0312 102.783 71.302 97.7 72.5115C93.1557 73.5895 88.6552 74.9041 84.1153 75.9427C79.3607 77.0251 74.7112 78.6027 69.8558 79.3082C69.6388 79.33 69.4378 79.4319 69.2919 79.5939C69.1461 79.756 69.066 79.9666 69.0671 80.1846C68.2388 81.8498 66.7226 80.693 65.5613 81.0348C64.8339 81.0348 64.0187 80.8157 63.4052 81.0742C61.6524 81.8279 59.1195 81.2013 58.1467 83.296C57.2395 85.2416 56.3456 87.0734 54.584 88.3617L52.7741 88.5589C51.2185 89.2031 49.3167 88.8087 47.9976 90.1672C45.6313 89.7509 43.5673 91.2758 41.2009 91.1444C38.2298 90.9779 37.0422 89.9919 36.6653 86.53C36.2885 83.0681 37.4454 81.9944 40.1711 81.1838C43.5146 80.1846 47.0161 79.8034 50.4473 79.1548C53.0108 78.6684 55.5437 77.9147 58.1204 77.402C58.9092 77.253 59.2203 76.4949 59.641 75.912C62.3799 72.1039 65.8024 69.0233 70.0618 67.1039C72.4632 66.0215 75.1231 65.5088 77.6823 64.8033C82.0645 63.5938 86.4467 62.3098 90.8595 61.2975C94.1023 60.557 97.3889 60.018 100.592 59.1065C104.536 57.9759 108.48 56.7226 112.49 55.8681C115.066 55.3203 117.665 54.8426 120.237 54.2467C124.335 52.6034 128.664 51.7927 132.946 50.833C138.642 49.549 144.151 47.2133 150.137 47.2571C150.246 47.263 150.356 47.2473 150.459 47.2108C150.562 47.1744 150.657 47.1179 150.739 47.0446C150.82 46.9713 150.886 46.8827 150.933 46.7838C150.98 46.6849 151.008 46.5777 151.013 46.4683C155.124 45.6927 158.989 43.8785 163.209 43.5454C163.388 43.5454 163.537 43.1072 163.704 42.9013L164.642 42.9319Z" fill="#D8A85B"/>
<path d="M52.7698 88.5852L54.5797 88.388C57.4763 87.6211 60.316 86.5606 63.3747 86.5826C64.3739 88.1382 65.7542 88.6203 67.6166 88.5589C70.0356 88.4756 72.4369 88.09 74.9041 88.9971C79.7858 90.8026 83.2302 94.5975 87.2661 97.5511C88.3354 98.3311 89.6851 98.9227 90.2241 100.312C89.2863 101.74 87.551 101.832 86.2801 101.946C78.9137 102.621 73.0154 105.939 68.3747 111.499C65.1758 115.343 63.011 119.76 62.4544 124.834C61.8979 125.124 61.5123 125.684 60.7367 125.614C55.4781 125.128 50.7234 127.31 45.8636 128.682C41.0037 130.054 36.1878 131.101 31.2885 132.074C27.8796 132.788 24.4232 133.252 20.9467 133.463C19.9563 133.511 18.7556 133.616 18.3174 132.468C17.8792 131.32 18.8827 130.715 19.632 130.229C22.8461 128.144 26.2536 126.374 29.8074 124.944C31.2579 124.374 32.7128 123.826 34.1895 123.283C35.2719 122.88 36.2623 122.28 36.1308 121C35.9906 119.62 34.8162 118.857 33.6681 118.515C32.0861 118.046 30.5173 117.38 28.7907 117.477C27.6251 117.542 26.5383 117.166 26.249 115.921C25.9817 114.76 27.1255 114.453 27.8354 113.905C29.9082 112.328 32.4016 111.591 34.7242 110.549C39.1063 108.585 41.2974 104.751 42.5463 100.684C43.6766 96.9322 45.8846 93.5949 48.8961 91.0874C50.4474 90.6667 51.889 90.0576 52.7698 88.5852Z" fill="#B93E3E"/>
<path d="M150.991 46.5122C150.986 46.6216 150.959 46.7288 150.912 46.8276C150.864 46.9265 150.798 47.0152 150.717 47.0884C150.636 47.1617 150.54 47.2182 150.437 47.2547C150.334 47.2911 150.224 47.3069 150.115 47.3009C144.129 47.2571 138.629 49.5928 132.924 50.8768C128.647 51.8365 124.317 52.6296 120.216 54.2905C120.654 52.7786 119.843 51.5341 119.12 50.4298C116.482 46.5119 114.465 42.2107 113.138 37.6777C112.477 35.3026 112.766 32.6383 112.757 30.1054C112.757 27.4498 113.02 24.9038 114.396 22.4322C115.737 20.0312 117.687 18.0255 120.049 16.6171C121.329 15.8283 122.209 15.4208 121.241 13.5803C119.563 10.3857 121.473 7.73012 123.353 5.35499C125.325 2.86593 128.007 1.52937 131.171 0.744968C133.555 0.140336 136.016 -0.0975699 138.472 0.0394411C146.973 0.534624 155.974 5.44702 159.186 14.5356C158.349 15.2718 158.941 17.6031 156.903 16.8888C154.865 16.1745 152.766 16.0124 150.821 15.2718C144.326 12.774 137.92 13.3524 131.508 15.4909C130.965 15.675 130.312 15.8283 130.141 16.4637C129.935 17.2087 130.689 17.3928 131.088 17.7784C132.678 19.2552 134.462 20.6443 135.496 22.5286C137.687 26.5558 139.681 30.7101 141.631 34.8644C142.179 36.0257 142.828 36.4639 144.107 36.4376C148.489 36.3499 152.871 36.3543 157.218 36.3719C157.99 36.3719 159.077 35.8898 159.3 37.2483C158.256 37.5462 157.294 38.0816 156.491 38.8127C154.059 40.9556 151.232 42.485 148.292 43.7908C147.341 44.2291 147.512 44.8864 147.556 45.5788C147.613 46.5209 148.384 46.4245 149.015 46.4552C149.646 46.4859 150.339 46.499 150.991 46.5122Z" fill="#DED385"/>
<path d="M295.042 66.5693C293.977 66.2844 293.398 65.3642 292.772 64.6236C289.816 61.0644 285.967 58.3556 281.619 56.7752C277.289 55.1976 272.662 55.4605 268.109 55.7103C267.697 55.7322 267.539 56.1178 267.43 56.4772C264.879 56.3851 262.548 57.3054 260.173 58.046C259.539 58.1851 258.893 58.2643 258.245 58.2826C258.683 56.8672 258.424 55.2852 259.371 53.9925C261.027 51.7269 261.856 49.0275 262.951 46.5034C264.831 42.1694 267.268 38.6155 272.075 37.2439C273.753 36.7619 274.998 35.7189 275.028 33.7382C275.861 32.2263 277.176 31.7136 278.867 31.9415C279.085 31.9539 279.303 31.9133 279.502 31.8232C282.118 30.8102 284.889 30.2543 287.693 30.1799C296.492 30.697 302.846 35.6006 305.353 45.2632C307.482 53.4535 303.337 61.5473 297.754 65.0574C297.225 65.416 296.629 65.6649 296.001 65.7892C295.414 65.6885 295.125 65.9558 295.125 66.5342L295.042 66.5693Z" fill="#B83D3C"/>
<path d="M190.334 48.5455C191.684 44.0231 193.739 39.7812 195.979 35.6751C196.811 34.1457 198.867 34.1852 200.391 33.8258C203.985 32.9801 207.587 32.2001 211.154 31.2185C215.037 30.1404 218.989 29.3122 222.898 28.3043C223.674 28.1071 224.739 28.3043 225.089 27.1869C228.595 27.0466 231.864 25.8416 235.238 25.1185C238.437 24.4349 241.61 23.6154 244.778 22.7872C247.657 22.0335 250.475 20.9993 253.385 20.4121C258.727 19.3341 264.086 17.3884 269.599 18.5584C273.17 19.3165 277.123 19.6627 279.818 22.7653C276.137 22.1211 272.912 20.0308 269.156 19.5137C267.491 19.2859 265.887 19.0448 265.212 20.675C263.871 23.8477 261.47 26.0081 259.187 28.4358C254.432 33.4928 248.056 34.5971 241.908 36.3237C238.84 37.2001 235.62 37.5594 232.526 38.3701C228.293 39.4832 224.138 40.9162 219.888 41.9723C218.7 42.2659 217.631 42.8925 216.351 42.9626C213.1 43.1467 210.08 44.4394 206.711 44.9696C207.587 46.1572 209.34 44.7724 209.721 46.4158C206.452 46.0301 203.31 46.9548 200.111 47.3272C197.596 47.2265 195.291 48.0985 192.959 48.8479C192.022 49.1371 191.106 49.3781 190.334 48.5455Z" fill="#D8A85B"/>
<path d="M159.322 37.2527C159.098 35.8767 158.007 36.3762 157.24 36.3762C152.858 36.3762 148.498 36.3543 144.129 36.442C142.849 36.4683 142.201 36.0301 141.653 34.8688C139.685 30.7145 137.709 26.5427 135.518 22.533C134.484 20.6487 132.7 19.2596 131.11 17.7828C130.711 17.4103 129.957 17.2262 130.163 16.4681C130.334 15.8327 130.987 15.6793 131.53 15.4953C137.941 13.3568 144.348 12.7784 150.842 15.2762C152.788 16.0255 154.922 16.1789 156.925 16.8932C158.928 17.6075 158.371 15.2762 159.208 14.54C161.837 15.1272 163.827 16.8932 165.588 18.6943C166.058 19.2188 166.644 19.6257 167.299 19.8823C167.954 20.1388 168.661 20.2377 169.361 20.171C171.193 20.1053 173.073 20.4252 174.743 19.3341C176.228 20.6136 176.517 22.257 176.404 24.1544C176.276 26.2535 176.316 28.3701 176.373 30.4735C176.412 31.7443 175.895 32.165 174.677 32.0292C173.902 31.9116 173.145 31.6905 172.429 31.3718C169.9 30.3727 168.757 30.9336 167.582 33.4753C167.372 33.9135 167.306 34.4788 166.706 34.6059C165.878 33.3307 167.946 32.5682 167.144 30.9993C165.019 33.8302 161.758 34.9915 159.322 37.2527Z" fill="#F4E4DB"/>
<path d="M209.69 46.4158C209.327 44.7724 207.556 46.1572 206.68 44.9696C210.058 44.4394 213.078 43.1467 216.321 42.9626C217.6 42.8925 218.669 42.2659 219.857 41.9723C224.108 40.9162 228.262 39.4832 232.495 38.3701C235.589 37.5594 238.801 37.1869 241.877 36.3237C248.012 34.5971 254.401 33.4928 259.156 28.4358C261.439 26.0081 263.841 23.8477 265.182 20.675C265.874 19.0448 267.478 19.2859 269.125 19.5137C272.881 20.0308 276.106 22.1211 279.787 22.7653C281.777 25.3288 284.231 27.3928 286.799 29.3604C287.015 29.3825 287.218 29.4752 287.376 29.624C287.535 29.7729 287.64 29.9698 287.675 30.1843C284.878 30.2612 282.116 30.817 279.507 31.8276C279.308 31.9177 279.09 31.9583 278.871 31.9459C277.193 31.7093 275.883 32.2307 275.033 33.7513C274.892 31.2535 273.775 29.4919 271.965 29.5313C270.672 29.5576 269.375 30.1886 268.109 30.6269C264.27 31.9415 261.505 34.6804 258.981 37.7128C258.139 37.0073 257.18 37.2045 256.268 37.4411C250.317 38.9749 244.349 40.4692 238.424 42.1125C235.576 42.9057 232.631 43.2475 229.818 44.045C226.75 44.9214 223.564 45.3597 220.615 46.5297C219.02 47.1651 217.048 46.6831 215.795 48.1993C213.801 47.4017 211.881 46.3719 209.69 46.4158Z" fill="#CC9F56"/>
<path d="M23.5234 174.773C20.2456 175.212 17.4542 171.706 17.4411 168.8C17.4192 165.295 19.7548 162.981 23.4314 162.972C27.4499 162.972 29.9258 165.203 29.9214 168.831C29.9171 171.942 26.8977 174.765 23.5234 174.773Z" fill="#D8A85B"/>
<path d="M204.309 219.471C205.442 219.754 206.503 220.271 207.425 220.988C206.193 221.562 205.983 222.412 206.548 223.617C207.114 224.822 207.363 226.246 206.654 227.591C205.475 229.84 204.278 230.102 201.969 228.985C199.157 227.609 196.274 226.383 193.332 225.313C192.043 224.848 190.909 224.638 191.325 222.938C191.462 222.191 191.878 221.524 192.488 221.071C193.098 220.619 193.857 220.415 194.611 220.501C197.214 220.633 199.844 220.668 202.403 221.272C204.024 221.662 204.568 221.023 204.309 219.471Z" fill="#526562"/>
<path d="M173.051 210.453H173.603C173.688 210.651 173.815 210.829 173.974 210.974C174.134 211.119 174.323 211.228 174.528 211.294C177.556 212.815 179.528 214.923 178.538 218.643C178.244 219.633 177.688 219.765 176.618 219.721C173.082 219.577 169.865 217.938 166.364 217.745C165.567 216.277 164.033 217.245 162.955 216.702C162.955 216.101 162.955 215.501 162.955 214.901C163.915 213.52 165.304 212.99 166.899 212.613C169.011 212.105 171.241 211.846 173.051 210.453Z" fill="#526562"/>
<path d="M8.95718 173.827C8.95718 176.211 6.85375 178.494 4.57503 178.546C2.19114 178.603 0.0350789 176.482 -0.0131247 174.028C-0.0215138 173.421 0.094351 172.818 0.327359 172.257C0.560366 171.696 0.905608 171.189 1.34185 170.766C1.7781 170.344 2.29617 170.014 2.86421 169.799C3.43226 169.584 4.03828 169.487 4.64511 169.515C7.31822 169.62 8.94404 171.18 8.95718 173.827Z" fill="#D8A85B"/>
<path d="M286.786 29.356C284.231 27.3885 281.777 25.3245 279.774 22.7828C282.973 24.0493 285.169 26.3937 286.786 29.356Z" fill="#D8A85B"/>
<path d="M52.7698 88.5852C51.8934 90.0576 50.4474 90.6667 48.8917 91.0918C48.8917 90.5046 48.4973 90.2855 48.0153 90.1934C49.3036 88.835 51.2142 89.2294 52.7698 88.5852Z" fill="#D1D2D7"/>
<path d="M168.976 138.691C169.992 136.71 171.837 137.915 173.279 137.569C172.07 138.813 170.514 138.713 168.976 138.691Z" fill="#D8A85B"/>
<path d="M208.398 221.272L209.086 221.527C208.612 222.101 208.608 221.408 208.398 221.272Z" fill="#526562"/>
<path d="M210.251 222.136H210.76L210.628 222.517L210.251 222.136Z" fill="#526562"/>
<path d="M295.081 66.5342C295.081 65.9558 295.383 65.6885 295.957 65.7892C296.019 66.4553 295.624 66.5824 295.081 66.5342Z" fill="#CC9F56"/>
<path d="M215.777 48.1949C217.039 46.6787 219.011 47.1607 220.597 46.5253C223.542 45.3553 226.732 44.9083 229.8 44.0406C232.613 43.2431 235.558 42.9013 238.407 42.1081C244.331 40.4648 250.3 38.9705 256.251 37.4367C257.162 37.2001 258.122 36.9985 258.959 37.7084C256.733 42.3929 254.195 46.9109 252.618 51.9066C251.439 55.6183 248.832 58.3484 246.045 60.9163C243.67 61.8485 241.175 62.4386 238.634 62.6692C234.537 62.3317 231.395 59.9829 228.38 57.5464C224.314 54.2423 220.479 50.6358 215.777 48.1949Z" fill="#B83E3A"/>
<path d="M109.339 95.5309C107.428 95.9122 105.632 96.8149 103.642 96.8456C102.266 96.7798 100.706 97.1085 99.5449 96.5739C95.0813 94.444 90.9901 91.609 87.4283 88.1777C85.519 86.3071 83.2936 84.7893 80.8551 83.6947C80.0532 83.3529 79.2951 82.9454 79.1417 81.9419C82.3056 81.7666 85.2022 80.4475 88.2215 79.6894C89.5931 79.3432 90.9866 79.6412 92.2531 79.1198C95.9166 77.6035 99.8429 77.0295 103.616 75.8901C109.554 74.1022 115.663 72.8708 121.684 71.3546C122.328 71.1924 122.801 70.9558 122.998 71.8235C121.21 74.27 119.746 76.9375 118.642 79.7595C116.464 85.6141 114.427 91.4424 109.339 95.5309Z" fill="#B83E3A"/>
<path d="M215.777 48.1949C220.479 50.6358 224.314 54.2423 228.385 57.5377C231.4 59.9741 234.542 62.323 238.639 62.6604C238.543 63.1337 238.639 63.8173 237.986 63.8742C235.208 64.1153 232.666 65.408 229.918 65.6578C228.963 65.7454 228.45 66.5649 227.561 66.5605C227.083 64.8076 225.291 64.4658 224.099 63.5281C219.905 60.2414 216.272 56.2887 210.904 54.4526C206.724 53.024 199.66 55.0004 197.412 58.5762C195.793 61.0941 194.434 63.7691 193.354 66.5605C192.223 69.5535 190.821 72.4457 189.541 75.3862C185.804 77.144 181.766 78.176 177.644 78.4274C180.08 75.8331 182.6 73.3791 183.976 69.9041C185.667 65.6271 187.184 61.2581 189.524 57.2441C190.15 56.1704 191.557 55.4605 191.25 53.9005C193.104 52.6209 194.493 50.833 196.285 49.4482C197.482 48.5323 199.204 48.6989 200.067 47.3272C203.266 46.9548 206.408 46.0126 209.677 46.4158C211.881 46.3719 213.801 47.4017 215.777 48.1949Z" fill="#EEC830"/>
<path d="M189.532 75.3862C190.812 72.4457 192.214 69.5535 193.345 66.5605C194.431 63.7684 195.796 61.0934 197.42 58.5762C199.668 55.0004 206.732 53.024 210.913 54.4526C216.281 56.2887 219.914 60.2414 224.108 63.5281C225.3 64.4658 227.092 64.7945 227.57 66.5605C223.713 66.8366 220.05 67.9409 216.36 69.0101C212.67 70.0794 208.963 70.8769 205.282 71.8629C200.611 73.1162 195.803 73.8393 191.228 75.4431C190.567 75.671 190.098 75.2591 189.532 75.3862Z" fill="#B83E3A"/>
<path d="M109.339 95.5309C114.414 91.4424 116.451 85.6053 118.612 79.7552C119.715 76.934 121.179 74.2679 122.968 71.8235C124.94 69.3782 126.815 66.8278 129.926 65.6885C133.16 64.3738 136.412 63.1643 140.005 63.4974C142.709 63.0942 144.87 64.9347 147.394 65.2897C148.064 66.543 150.352 66.2406 150.242 68.2433C148.169 69.3476 146.662 71.3108 144.401 72.1258C143.905 72.0247 143.414 71.8959 142.933 71.7402C140.521 70.8573 137.89 70.7707 135.425 71.4931C132.96 72.2156 130.792 73.709 129.238 75.7543C126.851 78.9755 125.039 82.5856 123.883 86.4248C123.2 88.6728 121.754 90.5703 121.254 92.8666C118.686 93.4888 116.232 94.4836 113.625 95.0314C112.211 95.3074 110.778 95.4744 109.339 95.5309Z" fill="#EEC830"/>
<path d="M121.272 92.8622C121.763 90.5659 123.209 88.6685 123.901 86.4204C125.057 82.5813 126.869 78.9711 129.256 75.7499C130.81 73.7046 132.978 72.2112 135.442 71.4887C137.907 70.7663 140.538 70.8529 142.95 71.7358C143.432 71.8916 143.922 72.0203 144.418 72.1215C143.358 73.1381 141.557 73.5413 141.631 75.4957C140.755 75.5615 139.878 75.6228 139.002 75.6973C138.217 75.7674 137.284 75.3993 136.679 75.9953C135.895 76.7709 137.262 77.4282 137.118 78.2346C133.581 78.6728 133.664 78.6728 133.87 82.2092C133.976 84.019 135.444 84.0847 136.5 84.7158C138.721 86.0655 140.672 85.7237 142.438 83.7867C143.108 83.0505 144.019 82.5335 144.821 81.9156C146.237 82.1215 147.205 81.1005 148.353 80.6009C150.084 79.834 151.732 78.8481 153.612 78.4581C153.721 78.7901 153.922 79.0847 154.191 79.3082C155.764 80.9121 158.029 81.6965 159.274 83.6903C153.717 85.005 148.147 86.267 142.622 87.6343C138.498 88.6685 134.475 90.2636 130.303 90.8639C127.201 91.3109 124.348 92.5554 121.272 92.8622Z" fill="#B93E3E"/>
<path d="M79.1417 81.955C79.2951 82.9454 80.0532 83.3529 80.8551 83.7079C83.2936 84.8025 85.519 86.3202 87.4283 88.1908C90.9953 91.6171 95.0911 94.4462 99.5581 96.5695C100.719 97.1041 102.279 96.7754 103.655 96.8412C101.17 98.133 98.4862 99.0009 95.715 99.4091C93.8876 99.7071 92.1785 100.811 90.2241 100.286C89.6851 98.8964 88.3354 98.3048 87.2662 97.5248C83.2258 94.5712 79.7858 90.7763 74.9041 88.9708C72.4545 88.0681 70.0356 88.4537 67.6167 88.5326C65.7542 88.594 64.3739 88.0944 63.3748 86.5563C62.5465 84.4309 62.8094 82.7219 65.1582 81.7359C65.3554 81.6526 65.4256 81.2582 65.5571 81.0128C66.7052 80.671 68.2214 81.8279 69.0628 80.1627H72.5422C72.8752 81.508 73.962 80.8507 74.7333 80.9909C76.2802 80.9646 77.5028 82.4502 79.1417 81.955Z" fill="#EEC830"/>
<path d="M246.062 60.9163C248.849 58.3484 251.457 55.6183 252.635 51.9066C254.213 46.9285 256.75 42.3929 258.976 37.7084C261.505 34.676 264.27 31.9459 268.109 30.6225C269.375 30.1843 270.672 29.5532 271.965 29.5269C273.784 29.4875 274.901 31.2491 275.033 33.747C275.002 35.7189 273.758 36.7619 272.079 37.2527C267.259 38.6418 264.835 42.1782 262.955 46.5122C261.86 49.0363 261.032 51.7357 259.375 54.0013C258.429 55.294 258.683 56.876 258.249 58.2914C254.292 59.6937 250.37 61.2274 246.062 60.9163Z" fill="#EEC830"/>
<path d="M191.25 53.9005C191.557 55.4605 190.15 56.1704 189.524 57.2441C187.184 61.2581 185.668 65.6271 183.976 69.9041C182.6 73.3791 180.08 75.8331 177.644 78.4274C175.965 78.4274 174.576 79.7113 172.823 79.4484C171.745 79.4134 170.659 79.409 169.581 79.3476C167.92 79.2608 166.295 78.8291 164.81 78.0799C163.326 77.3307 162.013 76.2805 160.957 74.9961C161.303 73.4712 162.788 73.7823 163.757 73.3003C167.902 71.2231 172.083 69.2205 176.259 67.2047C177.315 66.6386 178.409 66.1452 179.532 65.7279C182.525 64.777 183.731 62.3843 184.791 59.7331C185.492 58.0065 185.628 55.9426 187.381 54.7506C188.731 54.9373 190.103 54.6358 191.25 53.9005Z" fill="#B83E3A"/>
<path d="M160.965 74.9962C162.022 76.2805 163.334 77.3307 164.819 78.0799C166.304 78.8291 167.929 79.2609 169.589 79.3476C170.667 79.409 171.754 79.4134 172.832 79.4484C171.807 80.4782 170.361 80.5703 169.103 80.9997C165.886 82.0952 162.446 82.4151 159.265 83.6641C158.02 81.6877 155.759 80.9033 154.182 79.2819C153.913 79.0584 153.712 78.7638 153.603 78.4318C155.917 76.9944 158.191 75.4607 160.965 74.9962Z" fill="#EEC830"/>
<path d="M147.402 65.2853C144.878 64.9303 142.718 63.0942 140.014 63.493C140.172 62.6472 138.945 62.8313 138.927 62.0688C142.784 60.6052 146.956 60.4912 150.79 59.1196C153.682 58.0854 156.715 57.5157 159.655 56.819C162.595 56.1222 165.514 55.0661 168.564 54.7988C165.578 57.5112 162.307 59.8928 158.809 61.9023C157.398 61.7182 156.18 62.4983 154.865 62.8138C152.345 63.4273 149.602 63.6069 147.402 65.2853Z" fill="#CC9F56"/>
<path d="M144.835 81.9156C144.033 82.5334 143.121 83.0505 142.451 83.7867C140.698 85.7237 138.735 86.0655 136.513 84.7158C135.47 84.0847 134.002 84.019 133.884 82.2092C133.678 78.6552 133.594 78.6596 137.131 78.2346C137.275 77.4282 135.908 76.7709 136.693 75.9953C137.297 75.3993 138.231 75.7674 139.015 75.6973C139.892 75.6228 140.768 75.5614 141.644 75.4957C142.411 77.7744 144.545 79.3783 144.835 81.9156Z" fill="#DED385"/>
<path d="M191.25 53.9005C190.109 54.6307 188.745 54.932 187.403 54.7506C187.977 52.4894 188.63 50.2677 190.334 48.5455C191.106 49.3781 192.022 49.1371 192.915 48.8479C195.247 48.0985 197.552 47.2265 200.067 47.3272C199.191 48.6989 197.482 48.5323 196.285 49.4482C194.493 50.8198 193.104 52.6209 191.25 53.9005Z" fill="#CC9F56"/>
<path d="M147.403 65.2853C149.594 63.6069 152.346 63.4273 154.883 62.8138C156.167 62.4982 157.398 61.7182 158.827 61.9023C156.181 64.2819 153.315 66.4051 150.268 68.2433C150.36 66.2362 148.073 66.5386 147.403 65.2853Z" fill="#B93E3E"/>
<path d="M163.678 42.9451C163.765 42.2659 163.323 41.3237 164.554 41.1922C164.585 41.7707 164.62 42.3491 164.651 42.9451H163.678Z" fill="#F4E4DB"/>
<path d="M165.943 36.4902C165.843 36.052 165.891 35.6444 166.382 35.4648C166.666 35.995 166.544 36.35 165.943 36.4902Z" fill="#F4E4DB"/>
<path d="M79.1417 81.955C77.5028 82.4502 76.2801 80.9646 74.7376 81.0304C74.4177 79.65 73.309 80.3643 72.5466 80.2021H69.0671C69.0661 79.9841 69.1462 79.7735 69.292 79.6115C69.4379 79.4494 69.6389 79.3475 69.8559 79.3257C74.7113 78.6202 79.3608 77.0426 84.1154 75.9602C88.6772 74.9217 93.1777 73.607 97.7001 72.529C102.783 71.3195 107.902 70.0487 112.941 68.5412C116.079 67.6035 119.309 66.543 122.731 66.5123C124.081 66.5123 125.422 65.6359 126.771 65.1977C127.898 64.8296 129.089 64.1898 129.935 65.6841C126.824 66.8366 124.948 69.387 122.976 71.8191C122.797 70.9427 122.323 71.1837 121.662 71.3458C115.641 72.862 109.532 74.0934 103.594 75.8813C99.821 77.0207 95.8946 77.5948 92.2311 79.111C90.9647 79.6325 89.5712 79.3345 88.1996 79.6807C85.2022 80.4607 82.3056 81.7797 79.1417 81.955Z" fill="#CC9F56"/>
<path d="M65.557 81.061C65.4256 81.3064 65.3554 81.7008 65.1582 81.7841C62.8093 82.7482 62.529 84.4572 63.3747 86.6045C60.3072 86.5826 57.4763 87.643 54.5797 88.4099C56.3326 87.1216 57.2352 85.2898 58.1424 83.3441C59.1152 81.2495 61.6481 81.8761 63.4009 81.1224C64.0144 80.8419 64.8296 81.061 65.557 81.061Z" fill="#CC9F56"/>
<path d="M72.5291 80.2021C73.3091 80.3643 74.4178 79.65 74.7201 81.0304C73.9489 80.8901 72.8621 81.5475 72.5291 80.2021Z" fill="#D8A85B"/>
</g>
<defs>
<clipPath id="clip0_127_4800">
<rect width="306.115" height="283.687" fill="white"/>
</clipPath>
</defs>
</svg>
