<svg width="303" height="294" viewBox="0 0 303 294" fill="none" xmlns="http://www.w3.org/2000/svg">
<g clip-path="url(#clip0_79_4550)">
<path d="M291.523 116.63C290.883 115.42 290.271 114.538 289.929 113.56C289.324 111.82 289.001 109.981 288.353 108.259C287.41 105.751 286.286 103.31 285.233 100.845C284.817 99.8663 284.354 98.9057 283.952 97.9238C283.024 95.6576 282.142 93.3665 281.188 91.111C280.865 90.4675 280.494 89.8492 280.078 89.261C278.872 87.315 277.851 85.2231 276.417 83.4585C273.69 80.0348 270.788 76.7539 267.723 73.6287C266.396 72.2982 264.393 71.6507 262.703 70.6866C260.867 69.6193 259.06 68.5235 257.185 67.5345C256.593 67.2819 255.946 67.1864 255.306 67.257C255.129 67.257 254.748 68.086 254.851 68.2176C256.512 70.281 258.234 72.2982 259.946 74.3189C261.454 76.0977 263.03 77.8374 264.467 79.6767C265.954 81.5765 267.349 83.5545 268.715 85.5433C269.318 86.4924 269.866 87.4747 270.359 88.4854C271.533 90.7054 272.789 92.8898 273.824 95.1773C274.478 96.6288 274.788 98.2333 275.247 99.7702C275.916 101.965 276.599 104.16 277.253 106.363C277.411 106.926 277.53 107.501 277.609 108.081C277.965 110.255 278.214 112.45 278.648 114.606C279.082 116.761 278.559 117.53 276.41 117.53C244.987 117.53 213.561 117.542 182.133 117.566C180.596 117.566 180.134 116.939 180.201 115.573C180.322 113.207 180.223 110.802 180.607 108.479C181.048 105.783 181.902 103.143 182.592 100.503C183.083 98.6105 183.467 96.6751 184.132 94.8429C184.901 92.7403 185.911 90.7196 186.847 88.6882C187.462 87.3754 188.152 86.0911 188.871 84.8317C189.131 84.3728 189.647 84.0597 189.938 83.6079C192.45 79.5718 195.659 76.0145 199.416 73.1022C201.252 71.6472 202.892 69.9288 204.813 68.6018C206.807 67.2332 208.918 66.0427 211.121 65.0442C213.447 63.9769 215.902 63.18 218.318 62.319C221.488 61.1913 224.679 60.1169 227.863 59.0247C228.031 58.9695 228.204 58.9267 228.379 58.8966L235.494 57.5269C236.205 55.4279 235.081 53.9693 233.829 52.6992C232.32 51.1587 231.41 49.4546 231.993 47.3236C232.253 46.3702 232.808 45.2424 233.58 44.7443C234.866 43.9436 236.292 43.391 237.782 43.1149C240.862 42.5279 242.659 44.1324 242.965 47.2204C243.257 50.1555 242.061 52.5996 240.83 55.0899C240.496 55.773 240.453 56.5984 240.254 57.4522C243.136 57.9432 245.79 58.2598 248.373 58.8753C250.365 59.352 252.286 60.2165 254.214 60.8889C255.666 61.3905 257.188 61.7391 258.572 62.376C261.486 63.7207 264.684 64.5105 267.136 66.8052C267.829 67.4527 268.829 67.7587 269.626 68.303C271.551 69.5944 273.539 70.8111 275.318 72.284C277.575 74.0756 279.684 76.0458 281.626 78.1754C283.707 80.559 285.5 83.2095 287.275 85.8421C288.51 87.6672 289.499 89.6559 290.587 91.5806C290.683 91.792 290.748 92.0161 290.78 92.2458C291.256 94.4196 291.406 96.7285 292.267 98.735C293.807 102.293 293.266 105.964 293.138 109.568C293.056 111.863 292.131 114.111 291.523 116.63Z" fill="#E94335"/>
<path d="M92.9325 168.287V217.275H181.34C183.983 217.275 184.125 217.275 183.965 214.607C183.609 208.659 183.439 202.668 182.499 196.819C182.115 194.414 181.987 191.97 181.485 189.604C181.023 187.448 180.062 185.399 179.401 183.286C178.949 181.88 178.597 180.44 178.198 179.017C177.697 177.238 177.344 175.402 176.658 173.698C175.804 171.563 174.69 169.56 173.659 167.515C172.794 165.8 171.958 164.06 170.969 162.417C169.621 160.175 168.219 157.959 166.7 155.842C165.053 153.562 163.217 151.416 161.492 149.193C161.27 148.804 161.097 148.389 160.976 147.958C161.442 147.884 161.854 147.681 162.043 147.809C163.822 148.914 165.576 150.061 167.305 151.249C167.917 151.707 168.491 152.215 169.02 152.768C170.443 154.163 171.773 155.686 173.317 156.945C174.175 157.656 175.37 157.955 176.434 158.389C177.497 158.823 178.55 159.385 179.657 159.531C184.04 160.118 188.355 161.463 192.87 160.72C195.517 160.286 198.206 160.069 200.846 159.652C203.041 159.297 205.297 159.04 207.374 158.311C209.153 157.685 210.711 156.404 212.412 155.497C214.433 154.43 216.503 153.451 218.549 152.427C219.367 152.018 220.463 151.786 220.932 151.121C222.338 149.132 224.134 150.356 225.7 150.41C226.842 150.438 227.952 151.16 229.104 151.26C231.851 151.491 232.427 151.815 232 154.462C231.545 157.279 230.627 160.026 229.866 162.787C229.541 164.114 229.086 165.406 228.507 166.643C227.141 169.315 225.661 171.926 224.141 174.523C223.188 176.17 222.131 177.754 221.096 179.351C220.16 180.795 219.019 182.161 217.236 182.346C212.238 182.873 207.221 183.289 202.205 183.624C199.896 183.775 197.578 183.76 195.271 183.577C192.735 183.375 190.219 182.866 187.69 182.539C186.793 182.49 185.894 182.49 184.997 182.539C185.381 183.556 185.644 184.264 185.915 184.965C186.026 185.165 186.117 185.376 186.185 185.595C186.69 188.796 186.897 192.034 187.736 195.129C189.056 200.11 188.537 205.176 189.085 210.178C189.326 212.391 189.661 214.607 189.668 216.823C189.668 218.898 189.312 220.975 189.067 223.252H107.761C101.357 223.252 94.9532 223.22 88.5494 223.284C87.1264 223.284 86.6924 222.779 86.703 221.438C86.8382 207.865 86.9129 194.289 87.0837 180.717C87.105 179.002 87.7205 177.423 87.0197 175.573C86.1409 173.26 84.4297 172.46 82.4268 171.791C80.1392 171.026 77.8517 170.258 75.5428 169.553C73.7639 169.012 71.9851 168.639 70.2063 168.07C68.3457 167.461 66.5384 166.696 64.6991 166.024C63.3436 165.53 61.9668 165.095 60.6113 164.601C57.8577 163.594 57.3277 161.399 58.7827 159.524C58.9397 159.273 59.0427 158.992 59.0851 158.699C59.537 156.607 59.8785 154.487 60.4548 152.43C61.0063 150.452 61.8032 148.542 62.4933 146.603C62.5503 146.439 62.6534 146.286 62.6926 146.123C63.1408 144.173 63.5535 142.209 64.0338 140.274C64.418 138.701 64.82 137.129 65.3572 135.606C65.5031 135.19 66.1755 134.656 66.5669 134.688C67.8156 134.781 69.0358 135.179 70.2846 135.343C71.5333 135.507 72.871 135.581 74.1695 135.628C76.8875 135.724 76.8768 135.706 76.8875 138.474C76.8875 140.726 76.8875 142.981 76.9836 145.233C77.0689 147.724 77.9548 148.296 80.3099 148.969C82.8914 149.734 85.557 150.181 88.247 150.299C89.0119 150.328 89.8516 151.292 90.4919 151.139C92.3003 150.697 93.9574 149.78 95.2912 148.481C96.6644 147.183 98.3934 146.233 100.048 145.279C101.286 144.568 102.659 144.07 103.961 143.476C104.068 143.426 104.157 143.319 104.267 143.298C109.073 142.394 113.83 140.896 118.871 141.985C118.871 147.642 118.96 153.266 118.825 158.884C118.816 160.978 118.466 163.057 117.79 165.039C116.68 168.045 115.378 171.368 112.204 172.552C110.169 173.31 107.775 175.132 105.288 173.139C104.982 172.894 104.367 173.001 103.894 172.993C101.805 172.969 100.112 171.947 98.4041 170.905C97.4295 170.361 96.4245 169.873 95.3943 169.443C94.7219 169.069 94.0069 168.763 92.9325 168.287Z" fill="black"/>
<path d="M170.122 123.617C174.324 123.617 178.55 123.937 182.713 123.553C194.688 122.45 206.738 123.066 218.67 122.087C233.857 120.842 249.006 121.664 264.168 121.447C269.818 123.105 275.645 122.023 281.362 122.575C284.92 122.93 288.57 123.016 291.975 123.966C294.529 124.677 297.055 124.642 299.574 125.033C300.62 125.2 301.559 126.043 303 126.812C301.427 126.919 300.296 127.039 299.161 127.064C293 127.207 286.742 126.709 280.694 127.598C271.739 128.932 262.792 127.922 253.873 128.601C251.82 128.758 249.81 129.484 247.782 129.946V130.505C249.08 130.618 250.397 130.921 251.674 130.803C254.061 130.579 255.474 132.106 256.939 133.493C257.267 133.803 257.057 134.674 257.114 135.528C256.021 135.528 255.146 135.556 254.268 135.528C250.269 135.382 246.797 136.755 243.392 138.79C240.486 140.522 237.788 142.581 235.352 144.927C232.719 147.45 228.592 146.777 225.991 143.792C223.462 140.904 221.011 137.951 218.485 135.048C217.62 134.052 216.685 133.12 215.77 132.17C215.614 132.006 215.251 131.899 215.24 131.753C215.07 129.039 212.999 129.722 211.327 129.388C205.097 128.149 198.715 129.089 192.546 128.139C188.818 127.562 185.075 127.562 181.393 127.004C178.97 126.648 176.526 126.346 174.139 125.812C172.716 125.499 171.414 124.773 170.055 124.236L170.122 123.617ZM219.435 129.854V130.352C222.281 130.914 225.17 131.419 228.012 132.052C231.388 132.81 234.252 130.871 237.394 130.416C237.433 130.416 237.447 130.22 237.54 129.854H219.435Z" fill="#0E60D1"/>
<path d="M28.0555 115.228V112.674C31.1685 111.88 34.4201 111.044 37.6611 110.226C38.9348 109.906 40.2084 109.401 41.4962 109.358C44.4633 109.266 47.2169 110.18 49.8745 111.493C51.9095 112.507 54.0725 113.271 56.1466 114.204C57.4309 114.791 58.5907 115.748 59.9212 116.118C61.4105 116.514 62.9566 116.654 64.4928 116.53C66.4032 116.384 68.3528 116.861 70.2277 115.488C71.1456 114.819 72.9564 115.37 74.3652 115.37C74.4684 115.591 74.5751 115.808 74.6783 116.025C73.1805 118.16 71.6223 120.255 70.2064 122.429C69.1517 124.029 68.2181 125.706 67.4136 127.445C66.3925 129.711 63.4789 131.529 61.17 130.707C59.5548 130.131 58.1317 128.961 56.7016 127.95C54.7093 126.527 52.8166 125.001 50.8279 123.589C49.3268 122.512 47.7726 121.511 46.171 120.59C44.8859 119.892 43.5574 119.278 42.1936 118.75C40.5748 118.088 38.9205 117.516 37.284 116.904C36.9634 116.755 36.63 116.636 36.2879 116.548C33.6196 116.128 30.9372 115.705 28.0555 115.228Z" fill="black"/>
<path d="M147.926 161.84H143.348C137.478 161.84 131.607 161.815 125.737 161.865C124.574 161.865 124.065 161.552 123.905 160.335C123.571 157.795 123.425 155.141 122.532 152.79C121.575 150.267 121.781 147.731 121.39 145.212C121.162 143.725 120.579 142.295 120.042 140.455C122.749 140.758 124.855 140.277 127.072 141.32C128.559 142.031 130.604 141.434 132.326 141.786C133.888 142.103 135.588 142.622 136.777 143.597C137.965 144.572 138.556 146.247 139.481 147.571C140.961 149.705 142.537 151.769 143.999 153.91C145.353 155.9 146.657 157.929 147.912 159.997C148.118 160.382 147.926 161.026 147.926 161.84Z" fill="black"/>
<path d="M141.978 122.347C142.572 120.212 140.854 119.832 139.883 119.017C138.292 117.679 136.585 116.48 134.955 115.185C134.869 115.077 134.812 114.948 134.79 114.811C134.768 114.674 134.78 114.533 134.827 114.403C134.923 114.211 135.379 113.994 135.539 114.072C136.14 114.385 136.656 114.855 137.246 115.185C139.381 116.377 141.491 117.558 143.65 118.693C144.043 118.826 144.461 118.872 144.874 118.829C146.592 118.864 148.311 118.871 150.029 118.91C152.818 118.971 155.269 117.843 157.247 116.132C158.567 115.024 159.618 113.631 160.322 112.057C161.025 110.484 161.362 108.772 161.307 107.049C161.271 104.893 160.239 103.285 159.279 101.478C157.71 98.5464 154.885 97.3653 152.277 96.234C149.737 95.1347 146.72 95.1347 143.913 94.6579C143.363 94.6 142.825 94.4609 142.316 94.2452C145.279 92.2921 148.364 92.0822 151.609 93.2242C152.217 93.4363 152.86 93.5352 153.505 93.5159C156.127 93.4234 158.236 94.6259 160.556 95.6719C162.776 96.6716 163.946 98.5429 165.65 99.9197C166.487 100.592 166.892 102.133 166.988 103.324C167.191 105.793 167.55 108.419 166.945 110.746C165.985 114.442 163.783 117.605 160.727 120.045C158.98 121.44 157.126 122.511 154.761 122.585C153.53 122.628 152.316 123.297 151.082 123.336C150.015 123.372 148.947 122.849 147.88 122.699C146.621 122.521 145.418 122.02 144.155 123.233C143.234 124.115 141.733 124.425 140.462 124.908C139.192 125.392 137.904 125.72 136.659 126.207C136.389 126.314 136.037 126.961 136.129 127.104C136.432 127.584 136.887 128.263 137.342 128.31C139.121 128.48 140.9 128.427 142.679 128.477C143.234 128.477 143.789 128.559 144.344 128.601L144.465 129.106C144.053 129.33 143.617 129.508 143.166 129.637C141.313 129.953 139.452 130.252 137.584 130.469C136.76 130.55 135.93 130.526 135.112 130.398C133.778 130.213 132.465 129.814 131.127 129.686C127.345 129.37 124.204 127.765 121.28 125.417C119.878 124.289 118.458 123.418 117.722 121.611C117.462 120.992 115.872 120.927 114.648 120.543C114.759 118.053 116.395 116.573 118.839 115.385C118.875 115.965 119.124 116.651 118.896 116.897C117.27 118.676 118.978 119.565 119.892 120.437C121.842 122.301 124.193 123.283 126.908 123.93C129.163 124.464 131.351 124.976 133.621 124.763C135.09 124.624 136.535 124.126 137.969 123.695C139.402 123.265 140.719 122.774 141.978 122.347Z" fill="black"/>
<path d="M144.28 41.9836C144.141 42.4212 144.123 42.9726 143.839 43.2786C141.772 45.5341 138.94 46.5907 136.392 48.117C134.752 49.0953 133.191 48.9886 131.568 49.0704C128.608 49.2781 125.639 49.3149 122.674 49.1807C119.25 49.0048 115.824 49.4878 112.581 50.6038C109.532 51.5963 106.704 53.3004 103.837 54.8018C101.421 56.0683 98.8879 57.2459 96.7676 58.9179C94.6472 60.59 91.9434 60.8213 89.7021 62.1198C89.3464 62.3404 88.7772 62.2941 88.3076 62.3048C86.1161 62.3511 83.9139 62.5112 81.733 62.3831C76.3966 62.0664 72.2697 59.6081 68.5698 55.6841C63.9093 50.7354 64.3469 44.8404 65.5138 39.3438C66.0293 36.8539 67.0595 34.4993 68.5385 32.4309C70.0175 30.3626 71.9125 28.6262 74.1019 27.3333C76.4425 25.9819 78.8571 24.7633 81.3346 23.6832C83.1134 22.8756 85.0168 23.3772 86.4789 22.5732C88.2186 21.6162 89.8907 21.8616 91.6233 21.8047C91.9867 21.8409 92.3448 21.9185 92.6905 22.036C92.5162 22.3241 92.4557 22.5589 92.3348 22.5803C89.912 23.0712 87.4431 23.4057 85.063 24.0638C83.5048 24.4943 82.0674 25.3766 80.5839 26.0739C79.6129 26.4701 78.6764 26.946 77.7841 27.4969C75.9341 28.7812 73.892 29.9375 72.4476 31.5953C70.5463 33.7272 68.9514 36.1136 67.7089 38.6857C66.5597 41.1191 65.681 43.9368 66.5064 46.6477C67.5132 49.9634 68.9647 52.998 71.914 55.3568C76.9516 59.384 82.6936 59.4089 88.4071 58.5586C90.7587 58.2029 93.427 57.3775 95.5224 55.5062C96.8885 54.2788 98.8168 53.6704 100.503 52.7846C102.581 51.6888 104.598 50.4472 106.754 49.5436C108.476 48.8321 110.368 48.5048 112.19 48.0209C118.868 46.2421 125.709 47.3094 132.468 46.9109C136.304 46.6939 139.523 45.2317 142.352 42.6845C142.832 42.254 143.675 42.2255 144.351 42.0121L144.28 41.9836Z" fill="#E94335"/>
<path d="M144.319 42.0228C144.796 40.9555 145.03 39.664 145.792 38.8849C149.456 35.1423 149.791 30.5103 149.086 25.8391C148.631 22.8187 146.788 20.1825 144.394 18.151C141.932 16.0592 139.079 14.9492 135.937 13.9495C132.643 12.8822 130.078 14.4298 127.217 14.661C126.04 14.7606 124.916 16.3793 123.927 17.4537C123.112 18.336 122.148 18.4214 121.504 17.4039C119.568 14.3586 114.179 12.1386 110.831 13.366C107.739 14.5045 104.655 15.8564 102.261 18.2649C100.603 19.9263 99.1085 21.7514 97.5147 23.4804C97.2726 23.6739 97.0028 23.8298 96.7142 23.9429C96.5862 23.644 96.2802 23.2847 96.3585 23.057C96.8067 21.7691 97.1412 20.3674 97.9025 19.2788C99.2577 17.3012 100.795 15.455 102.495 13.7645C103.705 12.5833 105.306 11.7936 106.765 10.9006C109.504 9.23206 112.556 9.56291 115.57 9.55224C117.594 9.55224 119.177 10.2638 120.718 11.5587C121.699 12.3912 122.938 12.7577 124.3 11.4805C127.819 8.18611 132.255 7.95486 136.684 8.66283C138.79 9.0131 140.798 9.80612 142.576 10.9895C144.593 12.3557 146.322 14.2199 147.969 16.0556C151.95 20.492 152.238 25.9743 151.295 31.3534C150.783 34.3098 149.755 37.4761 147.129 39.6178C146.55 40.091 146.233 40.8808 145.671 41.3966C145.315 41.7204 144.735 41.7879 144.248 41.9694L144.319 42.0228Z" fill="#E94335"/>
<path d="M215.685 48.302C215.066 46.0393 214.618 44.0897 213.984 42.2006C213.522 40.8167 212.81 39.5217 212.231 38.1805C211.651 36.8393 211 35.6048 210.608 34.2671C210.064 32.3816 209.701 30.4427 209.317 28.5144C208.687 25.3588 210.028 22.8542 212.216 20.8086C213.675 19.4425 215.4 18.3609 217.329 16.8952C217.421 17.8985 217.524 18.5602 217.535 19.2219C217.592 23.0143 217.499 26.8174 217.716 30.6063C217.862 33.2105 218.513 35.7791 218.784 38.3797C218.948 39.9746 218.922 41.5833 218.705 43.1719C218.57 44.1852 218.233 45.1612 217.714 46.0422C217.195 46.9233 216.505 47.6916 215.685 48.302Z" fill="#FABB05"/>
<path d="M240.656 0.369991C240.354 1.08152 240.026 1.79305 239.724 2.54015C239.506 2.93266 239.363 3.36203 239.301 3.80667C239.279 7.4141 238.717 11.1567 239.5 14.5863C240.19 17.6032 240.329 20.556 240.503 23.5551C240.618 25.2065 240.57 26.8652 240.361 28.5073C240.229 29.4465 239.557 30.311 239.13 31.2075L238.326 31.1471C236.97 28.2725 235.665 25.3695 234.242 22.5269C232.356 18.7629 231.819 14.7891 232.064 10.6373C232.296 6.65633 234.224 3.63234 237.194 1.15622C238.105 0.394891 238.973 -0.53009 240.656 0.369991Z" fill="#FABB05"/>
<path d="M134.518 50.7745C135.229 57.3917 133.201 64.3896 137.421 70.8502C134.692 71.2558 132.294 71.5618 129.907 71.9709C127.267 72.4085 124.61 72.7963 122.013 73.4224C119.413 74.0677 116.849 74.8442 114.328 75.7491C111.653 76.6883 109.052 77.8339 106.402 78.8407C104.865 79.4241 103.278 79.908 101.734 80.463C101.271 80.6843 100.829 80.9449 100.411 81.2421C99.0445 82.0319 97.657 81.3915 97.81 79.8617C98.0804 77.1579 96.7819 74.8561 96.1771 72.3907C95.9031 71.2736 94.8892 70.3522 94.3626 69.2706C94.0994 68.7299 94.1776 68.0219 94.0994 67.3922L94.6437 67.1859C95.6327 68.5485 96.6502 69.8897 97.5965 71.2772C98.8524 73.1165 99.9268 75.0056 100.151 77.3251C100.297 78.83 101.115 78.9296 102.545 78.2074C104.498 77.2148 106.551 76.4286 108.561 75.5499C110.151 74.8384 111.699 74.0379 113.332 73.4651C115.075 72.8568 116.89 72.4796 118.668 71.9887C121.123 71.3127 123.549 70.5052 126.036 69.9857C127.641 69.6513 129.331 69.7011 130.985 69.63C133.799 69.5126 133.977 69.2137 132.764 66.7412C132.556 66.2485 132.456 65.7174 132.468 65.1829C132.433 62.0451 132.259 58.893 132.5 55.773C132.636 54.0725 133.504 52.4288 134.037 50.7603L134.518 50.7745Z" fill="#E94335"/>
<path d="M260.23 17.4146C260.034 17.8842 259.704 18.3076 259.704 18.7274C259.704 22.5696 259.241 26.5186 259.988 30.2185C260.645 33.3818 260.904 36.6145 260.76 39.8419C260.668 41.7488 259.917 43.6272 259.355 45.9753C258.586 45.1108 257.907 44.6341 257.64 43.9866C257 42.4532 256.573 40.8274 256.029 39.2585C255.538 37.8674 254.933 36.5191 254.467 35.1209C253.755 32.9686 253.097 30.7984 252.475 28.6176C252.332 28.1231 252.474 27.5503 252.396 27.0273C251.727 22.4878 254.328 19.937 257.868 17.9269C258.59 17.5142 259.056 16.2904 260.23 17.4146Z" fill="#FABB05"/>
<path d="M96.5933 121.888C96.1521 122.194 95.7715 122.685 95.3659 122.706C90.894 122.941 86.5643 122.685 83.4016 118.818C82.2596 117.416 82.1173 114.3 82.7826 112.414C84.0811 108.707 88.2364 107.547 91.3814 108.227C92.2566 108.419 93.025 109.12 94.3911 109.899C92.47 110.582 91.047 111.283 89.5421 111.578C86.9557 112.083 85.6642 115.136 87.3043 117.213C88.4356 118.658 89.6417 119.914 91.6375 120.273C93.2278 120.547 94.7469 121.262 96.5933 121.888Z" fill="black"/>
<path d="M156.109 86.4078C153.316 83.7111 150.21 82.1386 146.884 81.7508C143.472 81.3453 139.947 81.8753 136.542 81.9963C137.905 79.6305 140.135 78.1363 143.212 77.8908C143.59 77.8623 143.945 77.5991 144.319 77.4639C144.789 77.2931 145.408 76.8662 145.717 77.0263C148.079 78.2537 151.032 77.7912 153.152 79.8724C153.989 80.7013 154.999 81.2278 155.739 82.3414C156.653 83.7324 156.251 84.8353 156.109 86.4078Z" fill="black"/>
<path d="M108.828 101.763C108.273 101.083 107.999 97.3653 108.586 96.5364C109.628 94.9917 110.758 93.5081 111.969 92.0929C112.673 91.256 113.585 90.6191 114.613 90.2465C116.957 89.5349 119.255 88.2328 121.828 88.9764C122.596 89.197 123.517 89.6559 123.898 90.2856C124.471 91.2319 123.848 91.8972 122.777 92.1676C121.173 92.5696 119.576 93.057 118.003 93.5124C115.545 94.2239 113.787 96.0027 112.041 97.6784C110.834 98.8453 109.934 100.329 108.828 101.763Z" fill="black"/>
<path d="M151.584 144.689C147.763 146.112 140.534 139.132 140.971 134.069C144.668 137.762 148.09 141.195 151.584 144.689Z" fill="black"/>
<path d="M121.522 99.0196C121.522 100.727 120.454 101.958 118.953 102.004C117.046 102.058 115.509 100.471 115.516 98.4468C115.523 96.4225 115.936 96.0525 118.074 96.0383C120.511 96.0276 121.504 96.885 121.522 99.0196Z" fill="black"/>
<path d="M143.177 86.5643C143.177 84.1416 143.383 83.9423 145.923 83.9245C147.738 83.9245 149.125 85.0487 149.125 86.5216C149.125 87.7561 146.937 89.9547 145.749 89.9405C144.187 89.9263 143.18 88.5993 143.177 86.5643Z" fill="black"/>
<path d="M121.497 130.896C121.258 133.08 122.407 135.546 120.344 137.342C119.632 137.958 118.284 137.823 117.228 138.029C117.167 137.69 117.167 137.343 117.228 137.004C117.451 136.511 117.712 136.036 118.007 135.581L120.771 130.643L121.497 130.896Z" fill="black"/>
<path d="M200.33 266.193C199.93 266.933 199.44 267.621 198.872 268.242C198.779 268.366 198.683 268.462 198.594 268.598C197.119 268.615 195.689 269.115 194.524 270.021C194.45 269.888 194.355 269.768 194.243 269.665C193.176 268.516 192.169 267.399 191.515 266.004C190.477 263.765 190.049 261.293 190.273 258.835C190.343 256.892 190.887 254.996 191.856 253.311C192.288 252.596 192.82 251.947 193.436 251.382C194.994 249.988 196.993 250.02 198.594 251.382C199.741 252.412 200.569 253.747 200.981 255.232C202.159 258.96 202.07 262.649 200.33 266.218" fill="#0E60D1"/>
<path d="M159.855 264.77C159.756 265.362 159.546 265.931 159.236 266.445C158.798 267.153 158.323 267.837 157.813 268.495C157.145 269.35 156.824 270.426 156.913 271.508V271.693C156.973 272.845 157.034 274.023 157.066 275.201C156.756 275.229 156.415 275.229 156.073 275.229C155.732 275.229 155.39 275.229 155.049 275.201C155.081 274.023 155.145 272.87 155.173 271.693V271.529C155.202 270.969 155.118 270.408 154.926 269.881C154.734 269.353 154.438 268.87 154.056 268.459C153.092 267.342 152.224 266.193 151.975 264.702C151.972 264.68 151.962 264.658 151.947 264.642V263.574C151.948 263.488 151.969 263.403 152.007 263.325C152.071 262.023 152.16 260.75 152.224 259.479C152.409 256.437 152.595 253.395 152.783 250.354C152.811 250.205 152.852 250.058 152.907 249.917H153.217C153.29 250.043 153.342 250.18 153.373 250.322C153.437 252.058 153.466 253.798 153.526 255.506C153.587 257.028 153.651 258.547 153.711 260.038C153.711 260.316 153.775 260.533 154.117 260.533C154.458 260.533 154.615 260.472 154.615 260.006V250.632C154.627 250.39 154.669 250.151 154.739 249.92H155.095C155.185 250.193 155.247 250.474 155.28 250.76C155.373 253.303 155.465 255.883 155.557 258.426C155.589 259.013 155.622 259.608 155.622 260.205C155.65 260.426 155.714 260.561 155.935 260.561C156.155 260.561 156.244 260.408 156.244 260.205V259.96C156.305 256.886 156.397 253.812 156.458 250.738C156.481 250.464 156.533 250.194 156.614 249.931H156.924C157.001 250.112 157.062 250.298 157.109 250.489C157.141 251.557 157.173 252.571 157.205 253.627C157.265 255.801 157.297 257.971 157.358 260.141C157.39 260.497 157.546 260.639 157.824 260.518C157.891 260.467 157.945 260.401 157.983 260.325C158.021 260.249 158.04 260.165 158.041 260.081C158.133 256.879 158.197 253.677 158.29 250.475C158.316 250.295 158.358 250.118 158.414 249.945H158.66C158.724 250.134 158.848 250.301 158.88 250.443C159.19 254.445 159.499 258.416 159.784 262.422C159.879 263.204 159.899 263.994 159.844 264.78" fill="#19D194"/>
<path d="M115.072 232.168H137.104V236.472H119.465V250.251H137.104V254.556H119.465V276.14H115.072V232.168Z" fill="black"/>
<path d="M168.376 248.23C165.095 244.594 160.926 242.791 155.924 242.791C150.922 242.791 146.745 244.594 143.472 248.262C140.523 251.502 138.909 255.737 138.954 260.118C139 264.499 140.702 268.7 143.718 271.878C146.649 274.984 150.321 276.677 154.768 276.923C155.155 276.958 155.543 276.958 155.935 276.958C156.326 276.958 156.707 276.958 157.062 276.923C161.549 276.677 165.245 275.019 168.144 271.878C171.16 268.694 172.861 264.488 172.907 260.103C172.954 255.718 171.341 251.477 168.393 248.23M166.945 266.62C165.869 268.592 164.268 270.228 162.321 271.348C160.662 272.302 158.799 272.847 156.888 272.938C156.574 272.997 156.254 273.021 155.935 273.009C155.591 273.022 155.248 272.998 154.91 272.938C153.022 272.826 151.186 272.282 149.542 271.348C147.593 270.229 145.993 268.592 144.917 266.62C143.788 264.617 143.202 262.354 143.22 260.056C143.187 258.331 143.501 256.616 144.144 255.015C144.787 253.414 145.745 251.958 146.962 250.735C148.118 249.52 149.509 248.552 151.051 247.891C152.592 247.23 154.252 246.889 155.929 246.889C157.606 246.889 159.266 247.23 160.808 247.891C162.349 248.552 163.74 249.52 164.896 250.735C166.113 251.958 167.071 253.414 167.714 255.015C168.357 256.616 168.672 258.331 168.639 260.056C168.656 262.354 168.071 264.617 166.942 266.62" fill="black"/>
<path d="M208.474 248.227C205.194 244.594 201.028 242.791 196.022 242.791C191.016 242.791 186.811 244.594 183.524 248.262C180.572 251.443 178.965 255.642 179.041 259.981C179.009 264.412 180.707 268.68 183.773 271.878C186.009 274.271 188.933 275.912 192.141 276.574C192.118 276.02 192.129 275.465 192.176 274.912C192.239 274.096 192.505 273.309 192.948 272.621C191.782 272.377 190.663 271.947 189.632 271.348C187.685 270.226 186.084 268.589 185.008 266.616C183.856 264.622 183.261 262.355 183.286 260.052C183.261 258.329 183.578 256.618 184.219 255.019C184.861 253.42 185.813 251.963 187.021 250.735C188.177 249.519 189.568 248.55 191.109 247.889C192.651 247.227 194.311 246.886 195.988 246.886C197.666 246.886 199.326 247.227 200.867 247.889C202.409 248.55 203.8 249.519 204.955 250.735C206.968 252.805 208.255 255.471 208.624 258.335C208.993 261.198 208.423 264.104 207.001 266.616C206.132 268.231 204.899 269.622 203.401 270.679C204.576 271.423 205.595 272.39 206.4 273.525C207.053 273.02 207.667 272.466 208.235 271.867C211.303 268.67 213 264.401 212.963 259.97C212.963 255.417 211.483 251.5 208.484 248.23" fill="black"/>
<path d="M249.639 231.061V276.154H245.516V270.561C243.913 272.569 241.9 274.21 239.61 275.375C236.493 276.863 232.988 277.336 229.587 276.728C226.187 276.12 223.063 274.461 220.655 271.985C217.403 268.643 215.774 264.581 215.767 259.8C215.733 257.567 216.153 255.351 217.002 253.285C217.851 251.22 219.111 249.349 220.705 247.786C222.233 246.183 224.075 244.913 226.117 244.056C228.159 243.199 230.355 242.773 232.57 242.805C235.089 242.767 237.578 243.353 239.816 244.509C242.087 245.743 244.037 247.493 245.509 249.618V231.086L249.639 231.061ZM232.918 246.814C230.642 246.798 228.403 247.396 226.439 248.548C224.476 249.699 222.859 251.359 221.761 253.353C220.615 255.353 220.013 257.618 220.017 259.923C220.021 262.229 220.63 264.492 221.783 266.488C222.89 268.512 224.524 270.2 226.511 271.373C228.44 272.522 230.645 273.125 232.89 273.119C235.172 273.119 237.415 272.523 239.397 271.39C241.38 270.298 243.018 268.674 244.128 266.701C245.251 264.663 245.823 262.368 245.79 260.042C245.79 256.278 244.549 253.133 242.068 250.607C240.889 249.375 239.467 248.402 237.892 247.75C236.317 247.097 234.623 246.778 232.918 246.814Z" fill="black"/>
<path d="M260.131 243.616H255.947V276.14H260.131V243.616Z" fill="black"/>
<path d="M293.259 265.346L296.788 267.196C295.79 269.255 294.431 271.119 292.775 272.7C291.291 274.083 289.556 275.17 287.663 275.902C285.603 276.654 283.423 277.023 281.231 276.99C275.928 276.99 271.777 275.252 268.779 271.775C265.781 268.298 264.285 264.368 264.289 259.985C264.247 255.98 265.589 252.085 268.089 248.956C271.3 244.848 275.598 242.795 280.982 242.798C286.532 242.798 290.96 244.9 294.266 249.105C296.624 252.072 297.821 255.778 297.859 260.223H268.591C268.671 264.001 269.88 267.098 272.216 269.512C273.323 270.688 274.665 271.619 276.155 272.243C277.645 272.868 279.249 273.172 280.864 273.137C282.513 273.138 284.149 272.846 285.696 272.273C287.156 271.756 288.51 270.98 289.694 269.982C290.79 269.033 291.976 267.491 293.252 265.357M293.252 256.598C292.692 254.368 291.879 252.59 290.812 251.261C289.675 249.867 288.224 248.761 286.578 248.035C284.846 247.222 282.955 246.804 281.042 246.811C278.007 246.753 275.064 247.852 272.81 249.885C271.138 251.384 269.873 253.626 269.014 256.612L293.252 256.598Z" fill="black"/>
<path d="M213.252 278.257C213.252 278.257 209.744 282.33 202.881 286.404C201.04 287.503 199.129 288.481 197.16 289.332C194.963 290.312 192.695 291.127 190.376 291.769C189.17 292.099 187.943 292.459 186.669 292.679C185.393 292.972 184.101 293.186 182.798 293.32C180.144 293.651 177.468 293.791 174.794 293.739C172.278 293.679 169.543 293.498 166.942 293.174C164.39 292.868 161.862 292.383 159.378 291.722C157.04 291.127 154.751 290.35 152.533 289.399C150.544 288.551 148.621 287.554 146.781 286.418C143.348 284.351 140.875 282.149 139.135 280.726C137.396 279.303 136.478 278.37 136.478 278.37C136.389 278.29 136.316 278.194 136.264 278.085C136.213 277.977 136.183 277.86 136.177 277.74C136.171 277.62 136.189 277.5 136.23 277.388C136.27 277.275 136.333 277.171 136.414 277.083C136.557 276.926 136.75 276.824 136.96 276.794C137.17 276.763 137.385 276.806 137.567 276.915C137.567 276.915 138.68 277.595 140.559 278.822C143.096 280.506 145.735 282.032 148.46 283.39C152.253 285.254 156.264 286.635 160.399 287.503C162.741 288.004 165.11 288.373 167.493 288.606C169.916 288.876 172.332 289.015 174.964 289.054C179.79 289.187 184.612 288.697 189.312 287.595C191.488 287.082 193.633 286.447 195.737 285.692C197.744 284.981 199.619 284.187 201.316 283.394C204.073 282.118 206.734 280.644 209.278 278.982C211.131 277.755 212.092 276.997 212.092 276.997C212.261 276.865 212.474 276.8 212.688 276.816C212.903 276.831 213.104 276.927 213.252 277.083C213.4 277.239 213.485 277.445 213.489 277.66C213.494 277.875 213.418 278.084 213.276 278.246" fill="black"/>
<path d="M210.121 274.375C210.704 274.394 211.273 274.553 211.782 274.838C212.319 275.12 212.794 275.505 213.18 275.973C213.636 276.514 213.985 277.137 214.209 277.808C214.406 278.475 214.495 279.17 214.472 279.865C214.445 280.454 214.325 281.035 214.116 281.587C213.98 281.975 213.802 282.347 213.586 282.697C213.51 282.832 213.425 282.961 213.33 283.084C213.296 282.931 213.271 282.775 213.255 282.618C213.22 282.337 213.191 281.928 213.116 281.469C213.042 281.01 212.999 280.484 212.917 279.947C212.823 279.405 212.693 278.87 212.529 278.346C212.018 276.863 211.193 275.509 210.11 274.375" fill="black"/>
<path d="M139.278 274.375C138.907 274.757 138.569 275.168 138.267 275.606C137.65 276.435 137.175 277.361 136.862 278.346C136.701 278.871 136.573 279.405 136.478 279.947C136.393 280.484 136.321 281.014 136.275 281.469C136.229 281.925 136.172 282.337 136.14 282.618C136.122 282.775 136.096 282.931 136.062 283.084C135.967 282.961 135.881 282.832 135.806 282.697C135.589 282.347 135.412 281.975 135.275 281.587C135.067 281.035 134.947 280.454 134.92 279.865C134.895 279.17 134.981 278.476 135.176 277.808C135.404 277.138 135.754 276.516 136.208 275.973C136.594 275.504 137.071 275.119 137.609 274.838C138.116 274.553 138.683 274.395 139.264 274.375" fill="black"/>
<path d="M264.297 228.557C264.295 229.009 264.225 229.459 264.09 229.891C263.96 230.333 263.803 230.766 263.621 231.189C263.457 231.57 263.265 231.94 263.09 232.31C262.82 232.829 262.539 233.331 262.244 233.825C262.009 234.231 261.76 234.629 261.504 235.021C261.187 235.526 260.849 236.02 260.511 236.511C260.173 237.002 259.8 237.536 259.423 238.038C258.996 238.618 258.562 239.187 258.113 239.752C258.042 239.841 258.039 239.841 257.967 239.752C257.555 239.219 257.139 238.685 256.733 238.134C256.409 237.689 256.085 237.244 255.769 236.789C255.452 236.334 255.189 235.956 254.911 235.533C254.634 235.11 254.332 234.644 254.058 234.192C253.784 233.74 253.474 233.203 253.197 232.694C252.919 232.185 252.695 231.723 252.485 231.221C252.275 230.747 252.099 230.258 251.959 229.759C251.802 229.19 251.755 228.596 251.82 228.009C251.938 226.707 252.462 225.475 253.318 224.487C253.488 224.288 253.67 224.099 253.862 223.921C254.456 223.383 255.148 222.964 255.9 222.686C256.924 222.311 258.028 222.21 259.102 222.391C259.56 222.465 260.007 222.594 260.433 222.775C260.898 222.967 261.338 223.215 261.742 223.515C262.135 223.804 262.493 224.137 262.809 224.508C263.558 225.39 264.05 226.461 264.232 227.603C264.28 227.919 264.305 228.237 264.307 228.557M258.053 232.826C258.885 232.833 259.701 232.593 260.396 232.136C261.092 231.679 261.637 231.026 261.961 230.259C262.285 229.493 262.375 228.647 262.219 227.83C262.062 227.013 261.666 226.26 261.082 225.667C260.497 225.075 259.75 224.669 258.935 224.502C258.12 224.334 257.273 224.412 256.502 224.726C255.731 225.04 255.071 225.576 254.605 226.265C254.139 226.955 253.888 227.767 253.883 228.599C253.878 229.151 253.982 229.698 254.189 230.21C254.396 230.721 254.702 231.186 255.09 231.579C255.477 231.972 255.938 232.284 256.447 232.498C256.955 232.712 257.501 232.823 258.053 232.826Z" fill="#FABB05"/>
<path d="M255.609 228.297C255.609 229.955 256.719 231.118 258.128 231.072C258.45 231.067 258.768 230.999 259.064 230.871C259.36 230.744 259.628 230.559 259.853 230.328C260.078 230.096 260.254 229.823 260.374 229.524C260.493 229.224 260.551 228.904 260.547 228.581C260.542 228.259 260.474 227.941 260.346 227.645C260.219 227.349 260.034 227.081 259.803 226.856C259.571 226.631 259.298 226.455 258.999 226.335C258.699 226.216 258.379 226.158 258.056 226.162C257.461 226.166 256.886 226.384 256.437 226.776C255.988 227.167 255.694 227.707 255.609 228.297Z" fill="#FABB05"/>
<path d="M255.609 228.297C255.694 227.707 255.988 227.167 256.437 226.776C256.886 226.384 257.461 226.166 258.056 226.162C258.379 226.158 258.699 226.216 258.999 226.335C259.298 226.455 259.571 226.631 259.803 226.856C260.034 227.081 260.219 227.349 260.346 227.645C260.474 227.941 260.542 228.259 260.547 228.581C260.552 228.904 260.493 229.224 260.374 229.524C260.255 229.823 260.078 230.096 259.853 230.328C259.628 230.559 259.36 230.744 259.064 230.871C258.768 230.999 258.45 231.067 258.128 231.072C256.705 231.118 255.591 229.955 255.609 228.297Z" fill="black"/>
<path d="M42.8837 240.912L39.4221 243.566C37.6139 241.162 35.2573 239.225 32.5488 237.917C29.7954 236.615 26.7819 235.957 23.7366 235.992C20.3323 235.968 16.9811 236.836 14.0171 238.511C11.134 240.091 8.73664 242.428 7.08326 245.27C5.42294 248.178 4.57277 251.478 4.62136 254.826C4.62136 260.177 6.45594 264.639 10.125 268.213C13.7942 271.788 18.4191 273.578 23.9998 273.585C30.1403 273.585 35.2787 271.179 39.415 266.367L42.8766 268.993C40.7022 271.765 37.8968 273.978 34.694 275.446C31.253 277.005 27.5102 277.785 23.733 277.73C16.0627 277.73 10.0148 275.175 5.58907 270.063C1.87016 265.752 0.0106812 260.543 0.0106812 254.438C0.0106812 248.016 2.26385 242.614 6.77018 238.233C11.2765 233.853 16.9178 231.66 23.6939 231.655C27.5293 231.599 31.3259 232.43 34.7865 234.085C38.0141 235.649 40.8017 237.991 42.898 240.902" fill="black"/>
<path d="M83.3198 244.192V276.634H79.2001V271.06C77.6052 273.064 75.597 274.701 73.3122 275.859C70.2038 277.347 66.7066 277.82 63.3144 277.213C59.9222 276.606 56.8064 274.949 54.4069 272.476C51.1576 269.155 49.533 265.104 49.533 260.323C49.4989 258.096 49.9174 255.885 50.7631 253.825C51.6089 251.765 52.8643 249.898 54.4532 248.337C55.9765 246.736 57.8142 245.467 59.851 244.61C61.8879 243.753 64.0798 243.326 66.2894 243.356C68.8033 243.322 71.2871 243.905 73.5221 245.057C75.7937 246.285 77.7439 248.032 79.2143 250.155V244.192H83.3198ZM66.6345 247.394C64.3643 247.376 62.1314 247.972 60.1728 249.12C58.2141 250.269 56.6028 251.925 55.5098 253.915C54.3629 255.909 53.7594 258.169 53.7594 260.469C53.7594 262.768 54.3629 265.028 55.5098 267.022C56.6171 269.04 58.248 270.722 60.2308 271.892C62.1542 273.038 64.353 273.639 66.5918 273.632C68.8681 273.634 71.1052 273.04 73.0809 271.91C75.0624 270.821 76.6991 269.199 77.8055 267.228C78.9227 265.196 79.4916 262.908 79.4562 260.589C79.4562 256.835 78.2205 253.697 75.7492 251.176C74.5723 249.948 73.1531 248.978 71.5817 248.327C70.0103 247.676 68.3208 247.358 66.6203 247.394" fill="black"/>
<path d="M96.2553 231.669H92.0822V276.638H96.2553V231.669Z" fill="black"/>
<path d="M108.483 231.669H104.31V276.638H108.483V231.669Z" fill="black"/>
<path d="M191.507 287.396C193.898 283.091 192.646 280.398 193.016 275.403C193.457 269.512 205.386 266.63 208.193 280.594C208.193 280.594 189.956 290.2 191.507 287.396Z" fill="#E94335"/>
<path d="M199.868 276.816C199.868 276.816 202.639 281.498 199.323 285.198C199.323 285.198 205.581 282.273 199.868 276.816Z" fill="black"/>
<path d="M216.311 282.305H216.927L218.282 284.497L219.62 282.305H220.235L218.553 285.077V287.62H218.03V285.077L216.311 282.305Z" fill="black"/>
<path d="M221.47 284.241C221.707 284.233 221.944 284.279 222.162 284.374C222.38 284.47 222.573 284.612 222.729 284.792C223.031 285.112 223.195 285.537 223.188 285.977C223.193 286.426 223.022 286.858 222.711 287.183C222.553 287.352 222.361 287.486 222.146 287.576C221.932 287.666 221.702 287.709 221.47 287.702C221.239 287.71 221.009 287.667 220.796 287.578C220.582 287.488 220.391 287.353 220.235 287.183C219.93 286.861 219.757 286.436 219.752 285.993C219.747 285.55 219.909 285.121 220.207 284.792C220.364 284.613 220.558 284.47 220.777 284.375C220.995 284.28 221.232 284.234 221.47 284.241ZM221.47 284.65C221.299 284.648 221.13 284.683 220.973 284.75C220.817 284.817 220.676 284.916 220.559 285.041C220.312 285.293 220.175 285.632 220.178 285.984C220.18 286.218 220.24 286.448 220.353 286.653C220.463 286.851 220.625 287.016 220.822 287.129C221.019 287.243 221.243 287.301 221.47 287.297C221.697 287.3 221.921 287.243 222.117 287.129C222.315 287.017 222.477 286.852 222.587 286.653C222.728 286.397 222.784 286.103 222.747 285.813C222.71 285.523 222.581 285.253 222.381 285.041C222.264 284.916 222.123 284.817 221.966 284.75C221.809 284.683 221.64 284.648 221.47 284.65Z" fill="black"/>
<path d="M223.917 284.337H224.344V285.874C224.335 286.132 224.355 286.391 224.405 286.646C224.46 286.845 224.587 287.017 224.761 287.129C224.943 287.248 225.158 287.307 225.376 287.3C225.588 287.308 225.798 287.249 225.974 287.129C226.142 287.027 226.268 286.868 226.329 286.681C226.393 286.417 226.417 286.145 226.401 285.874V284.337H226.828V285.948C226.848 286.298 226.794 286.649 226.667 286.976C226.57 287.203 226.403 287.392 226.191 287.517C225.949 287.657 225.673 287.726 225.394 287.716C225.111 287.726 224.832 287.657 224.586 287.517C224.374 287.388 224.206 287.199 224.102 286.973C223.982 286.637 223.929 286.28 223.946 285.923L223.917 284.337Z" fill="black"/>
<path d="M227.578 284.337H228.012V284.82C228.12 284.652 228.26 284.507 228.425 284.394C228.556 284.302 228.713 284.254 228.873 284.255C228.999 284.261 229.121 284.299 229.229 284.365L229.008 284.721C228.938 284.683 228.86 284.662 228.781 284.657C228.627 284.665 228.481 284.729 228.372 284.838C228.224 284.985 228.121 285.172 228.076 285.376C228.006 285.751 227.979 286.133 227.994 286.514V287.627H227.56L227.578 284.337Z" fill="black"/>
<path d="M232.879 284.241C233.117 284.233 233.354 284.279 233.573 284.374C233.791 284.47 233.986 284.612 234.142 284.792C234.441 285.113 234.605 285.538 234.597 285.977C234.602 286.426 234.431 286.858 234.121 287.183C233.959 287.349 233.765 287.482 233.551 287.572C233.338 287.662 233.108 287.709 232.876 287.709C232.643 287.709 232.414 287.662 232.2 287.572C231.986 287.482 231.792 287.349 231.63 287.183C231.324 286.862 231.151 286.436 231.146 285.992C231.142 285.548 231.306 285.119 231.605 284.792C231.762 284.613 231.956 284.471 232.173 284.375C232.391 284.28 232.627 284.234 232.865 284.241M232.865 284.65C232.694 284.648 232.525 284.683 232.368 284.75C232.212 284.817 232.071 284.916 231.954 285.041C231.707 285.293 231.571 285.632 231.573 285.984C231.575 286.218 231.635 286.448 231.748 286.653C231.858 286.851 232.021 287.016 232.217 287.129C232.414 287.242 232.638 287.3 232.865 287.297C233.092 287.3 233.316 287.243 233.512 287.129C233.711 287.018 233.873 286.853 233.982 286.653C234.125 286.397 234.182 286.103 234.145 285.813C234.108 285.522 233.979 285.252 233.776 285.041C233.659 284.916 233.518 284.817 233.361 284.75C233.204 284.683 233.035 284.648 232.865 284.65Z" fill="black"/>
<path d="M235.38 284.337H235.8V284.931C235.946 284.721 236.137 284.546 236.358 284.418C236.567 284.31 236.799 284.254 237.034 284.255C237.266 284.249 237.494 284.314 237.689 284.44C237.878 284.559 238.025 284.734 238.109 284.941C238.216 285.261 238.263 285.597 238.248 285.934V287.631H237.824V286.062C237.832 285.806 237.817 285.55 237.778 285.297C237.749 285.103 237.647 284.928 237.493 284.806C237.339 284.684 237.144 284.626 236.949 284.643C236.696 284.641 236.451 284.73 236.259 284.895C236.06 285.054 235.92 285.274 235.86 285.521C235.808 285.82 235.788 286.122 235.8 286.425V287.631H235.369L235.38 284.337Z" fill="black"/>
<path d="M239.532 283.049H239.105V287.62H239.532V283.049Z" fill="black"/>
<path d="M240.56 282.963C240.605 282.962 240.65 282.971 240.691 282.99C240.733 283.008 240.769 283.036 240.798 283.07C240.832 283.101 240.859 283.139 240.878 283.182C240.896 283.224 240.906 283.27 240.906 283.316C240.906 283.362 240.896 283.407 240.878 283.45C240.859 283.492 240.832 283.53 240.798 283.561C240.769 283.595 240.732 283.622 240.691 283.64C240.65 283.658 240.605 283.666 240.56 283.664C240.514 283.665 240.468 283.657 240.425 283.639C240.382 283.621 240.343 283.595 240.311 283.561C240.248 283.495 240.213 283.407 240.213 283.316C240.213 283.224 240.248 283.136 240.311 283.07C240.377 283.003 240.466 282.965 240.56 282.963ZM240.347 284.322H240.773V287.617H240.347V284.322Z" fill="black"/>
<path d="M241.649 284.337H242.076V284.931C242.223 284.722 242.413 284.547 242.634 284.418C242.843 284.311 243.075 284.255 243.31 284.255C243.542 284.248 243.77 284.313 243.965 284.44C244.155 284.557 244.302 284.733 244.384 284.941C244.493 285.261 244.54 285.597 244.523 285.934V287.631H244.103V286.062C244.111 285.806 244.094 285.55 244.054 285.297C244.021 285.105 243.921 284.931 243.773 284.806C243.615 284.691 243.423 284.633 243.228 284.643C242.975 284.64 242.73 284.73 242.538 284.895C242.339 285.053 242.198 285.274 242.14 285.521C242.086 285.819 242.064 286.122 242.076 286.425V287.631H241.649V284.337Z" fill="black"/>
<path d="M248.205 286.521L248.561 286.71C248.462 286.919 248.324 287.109 248.156 287.268C248.007 287.41 247.832 287.52 247.64 287.592C247.43 287.669 247.208 287.706 246.985 287.702C246.748 287.715 246.511 287.674 246.293 287.582C246.074 287.49 245.879 287.35 245.722 287.172C245.441 286.856 245.28 286.451 245.268 286.028C245.255 285.605 245.392 285.192 245.655 284.86C245.807 284.659 246.006 284.498 246.234 284.39C246.462 284.283 246.712 284.231 246.964 284.241C247.222 284.231 247.479 284.284 247.713 284.394C247.947 284.504 248.151 284.669 248.308 284.874C248.553 285.199 248.679 285.598 248.664 286.005H245.697C245.69 286.351 245.817 286.687 246.053 286.941C246.165 287.059 246.302 287.151 246.452 287.212C246.603 287.274 246.765 287.302 246.928 287.297C247.095 287.296 247.261 287.268 247.419 287.215C247.567 287.16 247.704 287.081 247.825 286.98C247.965 286.841 248.084 286.683 248.18 286.51M248.18 285.624C248.136 285.428 248.051 285.242 247.931 285.08C247.817 284.939 247.671 284.827 247.504 284.753C247.33 284.671 247.139 284.629 246.946 284.628C246.638 284.624 246.34 284.737 246.113 284.945C245.92 285.128 245.784 285.364 245.726 285.624H248.18Z" fill="black"/>
<path d="M252.521 283.049V283.469C252.396 283.405 252.259 283.369 252.119 283.362C252.048 283.361 251.978 283.379 251.916 283.412C251.869 283.438 251.831 283.479 251.809 283.529C251.791 283.647 251.784 283.766 251.788 283.885V284.337H252.478V284.692H251.809V287.62H251.382V284.692H250.948V284.337H251.382V283.821C251.371 283.648 251.395 283.475 251.453 283.312C251.497 283.21 251.575 283.127 251.674 283.077C251.782 283.013 251.905 282.979 252.03 282.978C252.199 282.983 252.367 283.011 252.528 283.063" fill="black"/>
<path d="M254.687 284.241C254.925 284.233 255.161 284.279 255.379 284.374C255.597 284.47 255.791 284.612 255.947 284.792C256.247 285.112 256.411 285.538 256.402 285.977C256.407 286.426 256.235 286.86 255.922 287.183C255.76 287.349 255.567 287.482 255.353 287.572C255.139 287.662 254.909 287.709 254.677 287.709C254.445 287.709 254.215 287.662 254.001 287.572C253.787 287.482 253.593 287.349 253.432 287.183C253.126 286.861 252.953 286.436 252.948 285.993C252.943 285.55 253.105 285.121 253.403 284.792C253.561 284.612 253.757 284.47 253.977 284.375C254.196 284.279 254.434 284.234 254.673 284.241M254.673 284.65C254.503 284.648 254.333 284.682 254.177 284.75C254.02 284.817 253.879 284.916 253.762 285.041C253.639 285.165 253.541 285.312 253.476 285.474C253.411 285.636 253.378 285.809 253.382 285.984C253.38 286.218 253.439 286.448 253.552 286.653C253.662 286.852 253.825 287.017 254.022 287.129C254.22 287.242 254.445 287.3 254.673 287.297C254.9 287.301 255.124 287.243 255.321 287.129C255.518 287.016 255.68 286.851 255.79 286.653C255.901 286.447 255.96 286.217 255.961 285.984C255.963 285.809 255.93 285.636 255.864 285.474C255.798 285.312 255.7 285.165 255.577 285.041C255.461 284.917 255.321 284.818 255.166 284.751C255.01 284.683 254.843 284.649 254.673 284.65Z" fill="black"/>
<path d="M258.747 284.241C258.985 284.233 259.222 284.279 259.44 284.374C259.659 284.47 259.853 284.612 260.01 284.792C260.307 285.121 260.47 285.55 260.465 285.993C260.459 286.436 260.287 286.861 259.981 287.183C259.825 287.353 259.634 287.487 259.421 287.577C259.208 287.667 258.978 287.709 258.747 287.702C258.514 287.709 258.283 287.667 258.068 287.577C257.853 287.488 257.66 287.353 257.501 287.183C257.201 286.859 257.031 286.435 257.026 285.993C257.02 285.551 257.18 285.123 257.473 284.792C257.631 284.613 257.827 284.47 258.047 284.375C258.266 284.28 258.504 284.234 258.743 284.241M258.743 284.65C258.572 284.648 258.403 284.683 258.247 284.75C258.09 284.817 257.949 284.916 257.832 285.041C257.629 285.252 257.5 285.522 257.463 285.813C257.426 286.103 257.483 286.397 257.626 286.653C257.736 286.852 257.898 287.017 258.096 287.129C258.292 287.243 258.516 287.3 258.743 287.297C258.97 287.301 259.194 287.243 259.391 287.129C259.588 287.016 259.75 286.851 259.86 286.653C259.973 286.448 260.033 286.218 260.035 285.984C260.034 285.809 259.999 285.636 259.93 285.476C259.862 285.315 259.762 285.17 259.636 285.048C259.521 284.924 259.381 284.825 259.226 284.757C259.07 284.69 258.902 284.656 258.732 284.657" fill="black"/>
<path d="M264.538 283.045V287.62H264.119V287.051C263.954 287.253 263.749 287.417 263.517 287.535C263.202 287.688 262.845 287.735 262.5 287.671C262.155 287.607 261.84 287.435 261.6 287.179C261.438 287.018 261.311 286.826 261.226 286.614C261.141 286.403 261.1 286.176 261.105 285.948C261.101 285.721 261.144 285.496 261.23 285.286C261.316 285.076 261.444 284.886 261.607 284.728C261.762 284.568 261.949 284.441 262.155 284.355C262.361 284.27 262.583 284.227 262.806 284.23C263.061 284.224 263.313 284.283 263.539 284.401C263.771 284.524 263.97 284.703 264.119 284.92V283.035L264.538 283.045ZM262.841 284.646C262.611 284.644 262.385 284.704 262.187 284.82C261.986 284.936 261.821 285.105 261.71 285.308C261.594 285.51 261.532 285.738 261.532 285.971C261.532 286.204 261.594 286.433 261.71 286.635C261.824 286.842 261.991 287.015 262.194 287.137C262.39 287.253 262.614 287.313 262.841 287.311C263.071 287.311 263.297 287.251 263.496 287.137C263.699 287.026 263.867 286.861 263.98 286.66C264.092 286.452 264.149 286.22 264.144 285.984C264.149 285.808 264.118 285.633 264.053 285.47C263.988 285.307 263.891 285.158 263.766 285.034C263.649 284.907 263.505 284.807 263.346 284.74C263.186 284.673 263.014 284.641 262.841 284.646Z" fill="black"/>
<path d="M270.412 285.005L270.074 285.212C269.939 285.025 269.759 284.875 269.552 284.775C269.345 284.674 269.116 284.627 268.886 284.635C268.702 284.629 268.518 284.66 268.347 284.728C268.176 284.795 268.02 284.897 267.89 285.027C267.76 285.145 267.657 285.29 267.588 285.451C267.519 285.613 267.485 285.787 267.488 285.962C267.486 286.201 267.551 286.435 267.676 286.638C267.792 286.849 267.966 287.022 268.178 287.136C268.492 287.299 268.853 287.348 269.2 287.273C269.546 287.198 269.855 287.005 270.074 286.727L270.412 286.955C270.253 287.192 270.033 287.383 269.775 287.507C269.494 287.64 269.186 287.707 268.875 287.702C268.637 287.71 268.4 287.67 268.177 287.585C267.955 287.499 267.752 287.37 267.58 287.204C267.414 287.051 267.282 286.864 267.192 286.656C267.103 286.449 267.058 286.224 267.061 285.998C267.061 285.684 267.145 285.376 267.303 285.105C267.458 284.834 267.687 284.613 267.964 284.468C268.251 284.312 268.574 284.234 268.9 284.241C269.116 284.238 269.331 284.271 269.537 284.337C269.722 284.393 269.896 284.48 270.053 284.593C270.197 284.706 270.318 284.846 270.409 285.005" fill="black"/>
<path d="M272.799 284.241C273.037 284.233 273.273 284.279 273.491 284.374C273.709 284.47 273.903 284.612 274.059 284.792C274.359 285.112 274.523 285.538 274.514 285.977C274.519 286.426 274.347 286.86 274.034 287.183C273.872 287.349 273.678 287.482 273.465 287.572C273.251 287.662 273.021 287.709 272.789 287.709C272.556 287.709 272.327 287.662 272.113 287.572C271.899 287.482 271.705 287.349 271.543 287.183C271.238 286.861 271.065 286.436 271.06 285.993C271.055 285.55 271.217 285.121 271.515 284.792C271.673 284.612 271.869 284.47 272.089 284.375C272.308 284.279 272.546 284.234 272.785 284.241M272.785 284.65C272.614 284.648 272.445 284.682 272.289 284.75C272.132 284.817 271.991 284.916 271.874 285.041C271.751 285.165 271.653 285.312 271.588 285.474C271.523 285.636 271.49 285.809 271.494 285.984C271.49 286.218 271.549 286.449 271.664 286.653C271.774 286.853 271.938 287.018 272.138 287.129C272.334 287.243 272.558 287.301 272.785 287.297C273.012 287.301 273.236 287.243 273.433 287.129C273.63 287.016 273.792 286.851 273.902 286.653C274.013 286.447 274.072 286.217 274.073 285.984C274.075 285.809 274.042 285.636 273.976 285.474C273.91 285.312 273.812 285.165 273.689 285.041C273.573 284.917 273.433 284.818 273.278 284.751C273.122 284.683 272.955 284.649 272.785 284.65Z" fill="black"/>
<path d="M275.29 284.337H275.709V284.931C275.859 284.722 276.052 284.547 276.275 284.418C276.481 284.31 276.711 284.254 276.944 284.255C277.178 284.248 277.409 284.313 277.606 284.44C277.793 284.56 277.94 284.735 278.025 284.941C278.134 285.26 278.181 285.597 278.164 285.934V287.631H277.737V286.062C277.748 285.806 277.732 285.55 277.687 285.297C277.66 285.103 277.559 284.927 277.405 284.805C277.252 284.683 277.057 284.625 276.862 284.643C276.609 284.642 276.365 284.732 276.172 284.895C275.975 285.055 275.835 285.275 275.773 285.521C275.72 285.819 275.698 286.122 275.709 286.425V287.631H275.29V284.337Z" fill="black"/>
<path d="M282.27 285.005L281.932 285.212C281.795 285.026 281.615 284.877 281.407 284.777C281.199 284.676 280.97 284.628 280.74 284.635C280.555 284.629 280.372 284.661 280.2 284.728C280.028 284.796 279.872 284.897 279.74 285.027C279.613 285.147 279.512 285.292 279.444 285.453C279.376 285.614 279.343 285.788 279.345 285.962C279.346 286.2 279.409 286.433 279.527 286.638C279.645 286.848 279.818 287.02 280.028 287.137C280.247 287.253 280.492 287.311 280.74 287.307C280.969 287.311 281.196 287.261 281.402 287.16C281.608 287.059 281.787 286.911 281.925 286.727L282.263 286.955C282.104 287.191 281.885 287.382 281.629 287.507C281.344 287.639 281.033 287.706 280.719 287.702C280.48 287.709 280.242 287.669 280.019 287.584C279.796 287.498 279.593 287.369 279.42 287.204C279.255 287.05 279.124 286.863 279.036 286.655C278.948 286.448 278.904 286.224 278.908 285.998C278.908 285.685 278.99 285.377 279.146 285.105C279.306 284.838 279.534 284.618 279.808 284.468C280.098 284.312 280.424 284.234 280.754 284.241C280.967 284.238 281.178 284.271 281.38 284.337C281.566 284.39 281.741 284.477 281.896 284.593C282.04 284.706 282.161 284.846 282.252 285.005" fill="black"/>
<path d="M283.227 282.963C283.273 282.962 283.32 282.971 283.363 282.99C283.406 283.008 283.444 283.036 283.476 283.07C283.539 283.136 283.574 283.224 283.574 283.316C283.574 283.407 283.539 283.495 283.476 283.561C283.444 283.595 283.405 283.622 283.362 283.64C283.32 283.658 283.273 283.666 283.227 283.664C283.181 283.665 283.136 283.656 283.095 283.639C283.053 283.621 283.015 283.594 282.985 283.561C282.922 283.495 282.887 283.407 282.887 283.316C282.887 283.224 282.922 283.136 282.985 283.07C283.015 283.036 283.053 283.009 283.094 282.991C283.136 282.973 283.181 282.963 283.227 282.963ZM283.02 284.322H283.444V287.617H283.02V284.322Z" fill="black"/>
<path d="M287.097 286.521L287.453 286.71C287.349 286.918 287.211 287.106 287.044 287.268C286.895 287.409 286.72 287.519 286.528 287.592C286.319 287.668 286.097 287.706 285.874 287.702C285.637 287.715 285.4 287.674 285.181 287.583C284.962 287.491 284.767 287.35 284.611 287.172C284.33 286.856 284.169 286.451 284.156 286.029C284.143 285.606 284.279 285.193 284.539 284.86C284.693 284.659 284.892 284.499 285.121 284.391C285.349 284.283 285.6 284.232 285.852 284.241C286.11 284.231 286.367 284.284 286.6 284.394C286.833 284.504 287.037 284.669 287.193 284.874C287.438 285.199 287.564 285.598 287.549 286.005H284.586C284.578 286.351 284.706 286.687 284.941 286.941C285.054 287.059 285.19 287.151 285.341 287.213C285.492 287.274 285.654 287.302 285.817 287.297C285.984 287.296 286.149 287.268 286.308 287.215C286.455 287.159 286.592 287.08 286.713 286.98C286.853 286.841 286.973 286.683 287.069 286.51M287.069 285.625C287.025 285.428 286.94 285.242 286.82 285.08C286.705 284.939 286.559 284.827 286.393 284.753C286.218 284.672 286.027 284.629 285.834 284.628C285.526 284.624 285.227 284.737 284.998 284.945C284.807 285.129 284.673 285.365 284.614 285.625H287.069Z" fill="black"/>
<path d="M288.193 284.337H288.627V284.82C288.732 284.652 288.87 284.507 289.033 284.394C289.153 284.308 289.296 284.26 289.443 284.255C289.59 284.25 289.736 284.288 289.862 284.365L289.63 284.721C289.564 284.683 289.49 284.661 289.413 284.657C289.259 284.663 289.113 284.728 289.004 284.838C288.854 284.985 288.749 285.171 288.702 285.375C288.639 285.752 288.614 286.133 288.627 286.514V287.627H288.193V284.337Z" fill="black"/>
<path d="M293.078 284.337H293.498V286.959C293.512 287.302 293.472 287.645 293.38 287.976C293.282 288.276 293.077 288.529 292.804 288.688C292.501 288.86 292.156 288.945 291.808 288.933C291.55 288.938 291.293 288.897 291.05 288.812C290.844 288.748 290.656 288.639 290.498 288.492C290.332 288.321 290.198 288.121 290.104 287.901H290.566C290.68 288.104 290.847 288.272 291.05 288.385C291.281 288.488 291.531 288.542 291.785 288.542C292.038 288.542 292.288 288.488 292.519 288.385C292.701 288.297 292.85 288.154 292.946 287.976C293.051 287.727 293.096 287.456 293.078 287.186V287.016C292.922 287.216 292.721 287.375 292.491 287.482C292.242 287.601 291.968 287.658 291.692 287.647C291.416 287.637 291.147 287.559 290.908 287.421C290.649 287.279 290.433 287.068 290.285 286.813C290.138 286.557 290.062 286.268 290.064 285.973C290.063 285.673 290.141 285.378 290.292 285.119C290.442 284.86 290.658 284.645 290.918 284.497C291.176 284.346 291.47 284.267 291.769 284.269C292.007 284.267 292.242 284.316 292.459 284.415C292.698 284.54 292.909 284.713 293.078 284.924V284.337ZM291.822 284.66C291.588 284.659 291.357 284.719 291.153 284.835C290.951 284.945 290.784 285.11 290.673 285.311C290.556 285.513 290.495 285.743 290.498 285.977C290.492 286.143 290.52 286.308 290.582 286.463C290.643 286.617 290.736 286.757 290.854 286.873C291.114 287.102 291.449 287.229 291.795 287.229C292.142 287.229 292.476 287.102 292.736 286.873C292.856 286.753 292.95 286.609 293.011 286.45C293.073 286.291 293.1 286.122 293.092 285.952C293.094 285.717 293.037 285.486 292.925 285.279C292.815 285.088 292.657 284.93 292.466 284.82C292.267 284.71 292.043 284.653 291.815 284.653" fill="black"/>
<path d="M297.162 286.521L297.518 286.71C297.415 286.917 297.278 287.106 297.112 287.268C296.961 287.408 296.785 287.518 296.593 287.592C296.383 287.669 296.161 287.706 295.938 287.702C295.701 287.715 295.464 287.674 295.246 287.582C295.027 287.49 294.832 287.35 294.675 287.172C294.394 286.856 294.233 286.451 294.221 286.028C294.208 285.605 294.345 285.192 294.608 284.86C294.76 284.659 294.959 284.498 295.187 284.39C295.414 284.283 295.665 284.231 295.917 284.241C296.175 284.231 296.432 284.284 296.666 284.394C296.9 284.504 297.104 284.669 297.262 284.874C297.506 285.199 297.632 285.598 297.617 286.005H294.65C294.643 286.351 294.77 286.687 295.006 286.941C295.118 287.059 295.255 287.151 295.405 287.212C295.556 287.274 295.718 287.302 295.881 287.297C296.048 287.296 296.214 287.268 296.372 287.215C296.52 287.16 296.657 287.081 296.778 286.98C296.918 286.841 297.037 286.683 297.133 286.51M297.133 285.624C297.089 285.428 297.004 285.242 296.884 285.08C296.77 284.939 296.624 284.827 296.458 284.753C296.283 284.671 296.092 284.629 295.899 284.628C295.59 284.625 295.292 284.738 295.063 284.945C294.873 285.13 294.739 285.366 294.679 285.624H297.133Z" fill="black"/>
<path d="M212.675 273.621C212.675 273.621 213.323 271.803 212.704 270.569C212.085 269.334 212.992 267.182 215.07 267.459C217.147 267.737 217.329 271.373 212.675 273.621Z" fill="#0E60D1"/>
</g>
<defs>
<clipPath id="clip0_79_4550">
<rect width="303" height="293.747" fill="white"/>
</clipPath>
</defs>
</svg>
